EncodeSans-CondensedBold.ufo
<glyph name="exclam" format="2">
  <advance width="584.0"/>
  <unicode hex="0021"/>
  <outline>
    <contour>
      <point x="176.0" y="532.0" type="line"/>
      <point x="412.0" y="532.0" type="line"/>
      <point x="500.0" y="996.0" type="line"/>
      <point x="500.0" y="1480.0" type="line"/>
      <point x="84.0" y="1480.0" type="line"/>
      <point x="84.0" y="996.0" type="line"/>
    </contour>
    <contour>
      <point x="292.0" y="-20.0" type="curve" smooth="yes"/>
      <point x="436.0" y="-20.0"/>
      <point x="538.0" y="76.0"/>
      <point x="538.0" y="216.0" type="curve" smooth="yes"/>
      <point x="538.0" y="356.0"/>
      <point x="440.0" y="452.0"/>
      <point x="292.0" y="452.0" type="curve" smooth="yes"/>
      <point x="144.0" y="452.0"/>
      <point x="46.0" y="360.0"/>
      <point x="46.0" y="216.0" type="curve" smooth="yes"/>
      <point x="46.0" y="72.0"/>
      <point x="148.0" y="-20.0"/>
    </contour>
  </outline>
</glyph>
<glyph name="dollar" format="2">
  <advance width="1050.0"/>
  <unicode hex="0024"/>
  <outline>
    <contour>
      <point x="436.0" y="-20.0" type="curve" smooth="yes"/>
      <point x="816.0" y="-20.0"/>
      <point x="1030.0" y="166.0"/>
      <point x="1030.0" y="456.0" type="curve" smooth="yes"/>
      <point x="1030.0" y="698.0"/>
      <point x="888.0" y="826.0"/>
      <point x="670.0" y="898.0" type="curve" smooth="yes"/>
      <point x="550.0" y="938.0" type="line" smooth="yes"/>
      <point x="438.0" y="976.0"/>
      <point x="414.0" y="1004.0"/>
      <point x="414.0" y="1054.0" type="curve" smooth="yes"/>
      <point x="414.0" y="1116.0"/>
      <point x="466.0" y="1172.0"/>
      <point x="682.0" y="1172.0" type="curve" smooth="yes"/>
      <point x="764.0" y="1172.0"/>
      <point x="868.0" y="1160.0"/>
      <point x="948.0" y="1140.0" type="curve"/>
      <point x="948.0" y="1466.0" type="line"/>
      <point x="864.0" y="1486.0"/>
      <point x="754.0" y="1500.0"/>
      <point x="644.0" y="1500.0" type="curve" smooth="yes"/>
      <point x="218.0" y="1500.0"/>
      <point x="20.0" y="1318.0"/>
      <point x="20.0" y="1024.0" type="curve" smooth="yes"/>
      <point x="20.0" y="790.0"/>
      <point x="166.0" y="654.0"/>
      <point x="356.0" y="590.0" type="curve" smooth="yes"/>
      <point x="476.0" y="550.0" type="line" smooth="yes"/>
      <point x="606.0" y="506.0"/>
      <point x="636.0" y="474.0"/>
      <point x="636.0" y="420.0" type="curve" smooth="yes"/>
      <point x="636.0" y="354.0"/>
      <point x="582.0" y="308.0"/>
      <point x="424.0" y="308.0" type="curve" smooth="yes"/>
      <point x="308.0" y="308.0"/>
      <point x="176.0" y="332.0"/>
      <point x="66.0" y="364.0" type="curve"/>
      <point x="66.0" y="38.0" type="line"/>
      <point x="174.0" y="0.0"/>
      <point x="326.0" y="-20.0"/>
    </contour>
    <contour>
      <point x="346.0" y="-240.0" type="line"/>
      <point x="706.0" y="-240.0" type="line"/>
      <point x="706.0" y="100.0" type="line"/>
      <point x="346.0" y="100.0" type="line"/>
    </contour>
    <contour>
      <point x="346.0" y="1420.0" type="line"/>
      <point x="706.0" y="1420.0" type="line"/>
      <point x="706.0" y="1720.0" type="line"/>
      <point x="346.0" y="1720.0" type="line"/>
    </contour>
  </outline>
</glyph>
<glyph name="parenright" format="2">
  <advance width="674.0"/>
  <unicode hex="0029"/>
  <outline>
    <contour>
      <point x="-52.0" y="-440.0" type="curve"/>
      <point x="332.0" y="-440.0" type="line"/>
      <point x="518.0" y="-158.0"/>
      <point x="600.0" y="188.0"/>
      <point x="600.0" y="588.0" type="curve" smooth="yes"/>
      <point x="600.0" y="988.0"/>
      <point x="518.0" y="1334.0"/>
      <point x="332.0" y="1616.0" type="curve"/>
      <point x="-52.0" y="1616.0" type="line"/>
      <point x="114.0" y="1324.0"/>
      <point x="198.0" y="978.0"/>
      <point x="198.0" y="588.0" type="curve" smooth="yes"/>
      <point x="198.0" y="198.0"/>
      <point x="114.0" y="-148.0"/>
    </contour>
  </outline>
</glyph>
<glyph name="asterisk" format="2">
  <advance width="1012.0"/>
  <unicode hex="002A"/>
  <outline>
    <contour>
      <point x="646.0" y="1112.0" type="line"/>
      <point x="846.0" y="1130.0" type="line"/>
      <point x="982.0" y="1174.0" type="line"/>
      <point x="900.0" y="1426.0" type="line"/>
      <point x="764.0" y="1380.0" type="line"/>
      <point x="592.0" y="1276.0" type="line"/>
      <point x="638.0" y="1472.0" type="line"/>
      <point x="638.0" y="1616.0" type="line"/>
      <point x="374.0" y="1616.0" type="line"/>
      <point x="374.0" y="1472.0" type="line"/>
      <point x="420.0" y="1276.0" type="line"/>
      <point x="248.0" y="1380.0" type="line"/>
      <point x="112.0" y="1426.0" type="line"/>
      <point x="30.0" y="1174.0" type="line"/>
      <point x="166.0" y="1130.0" type="line"/>
      <point x="366.0" y="1112.0" type="line"/>
      <point x="214.0" y="982.0" type="line"/>
      <point x="130.0" y="866.0" type="line"/>
      <point x="344.0" y="710.0" type="line"/>
      <point x="428.0" y="826.0" type="line"/>
      <point x="506.0" y="1014.0" type="line"/>
      <point x="584.0" y="826.0" type="line"/>
      <point x="668.0" y="710.0" type="line"/>
      <point x="882.0" y="866.0" type="line"/>
      <point x="798.0" y="982.0" type="line"/>
    </contour>
  </outline>
</glyph>
<glyph name="plus" format="2">
  <advance width="1036.0"/>
  <unicode hex="002B"/>
  <outline>
    <contour>
      <point x="362.0" y="318.0" type="line"/>
      <point x="674.0" y="318.0" type="line"/>
      <point x="674.0" y="610.0" type="line"/>
      <point x="958.0" y="610.0" type="line"/>
      <point x="958.0" y="910.0" type="line"/>
      <point x="674.0" y="910.0" type="line"/>
      <point x="674.0" y="1202.0" type="line"/>
      <point x="362.0" y="1202.0" type="line"/>
      <point x="362.0" y="910.0" type="line"/>
      <point x="78.0" y="910.0" type="line"/>
      <point x="78.0" y="610.0" type="line"/>
      <point x="362.0" y="610.0" type="line"/>
    </contour>
  </outline>
</glyph>
<glyph name="comma" format="2">
  <advance width="544.0"/>
  <unicode hex="002C"/>
  <outline>
    <contour>
      <point x="116.0" y="-360.0" type="curve"/>
      <point x="338.0" y="-360.0" type="line"/>
      <point x="446.0" y="-218.0"/>
      <point x="518.0" y="-24.0"/>
      <point x="518.0" y="150.0" type="curve" smooth="yes"/>
      <point x="518.0" y="358.0"/>
      <point x="430.0" y="464.0"/>
      <point x="266.0" y="464.0" type="curve" smooth="yes"/>
      <point x="124.0" y="464.0"/>
      <point x="26.0" y="378.0"/>
      <point x="26.0" y="222.0" type="curve" smooth="yes"/>
      <point x="26.0" y="72.0"/>
      <point x="132.0" y="-20.0"/>
      <point x="272.0" y="-20.0" type="curve" smooth="yes"/>
      <point x="320.0" y="-20.0" type="line"/>
      <point x="230.0" y="52.0" type="line"/>
      <point x="230.0" y="-82.0"/>
      <point x="188.0" y="-206.0"/>
    </contour>
  </outline>
</glyph>
<glyph name="hyphen" format="2">
  <advance width="762.0"/>
  <unicode hex="002D"/>
  <outline>
    <contour>
      <point x="78.0" y="414.0" type="line"/>
      <point x="684.0" y="414.0" type="line"/>
      <point x="684.0" y="726.0" type="line"/>
      <point x="78.0" y="726.0" type="line"/>
    </contour>
  </outline>
</glyph>
<glyph name="period" format="2">
  <advance width="544.0"/>
  <unicode hex="002E"/>
  <outline>
    <contour>
      <point x="272.0" y="-20.0" type="curve" smooth="yes"/>
      <point x="416.0" y="-20.0"/>
      <point x="518.0" y="76.0"/>
      <point x="518.0" y="222.0" type="curve" smooth="yes"/>
      <point x="518.0" y="368.0"/>
      <point x="420.0" y="464.0"/>
      <point x="272.0" y="464.0" type="curve" smooth="yes"/>
      <point x="124.0" y="464.0"/>
      <point x="26.0" y="372.0"/>
      <point x="26.0" y="222.0" type="curve" smooth="yes"/>
      <point x="26.0" y="72.0"/>
      <point x="128.0" y="-20.0"/>
    </contour>
  </outline>
</glyph>
<glyph name="zero" format="2">
  <advance width="1220.0"/>
  <unicode hex="0030"/>
  <note>
600
</note>
  <outline>
    <contour>
      <point x="610.0" y="-20.0" type="curve" smooth="yes"/>
      <point x="964.0" y="-20.0"/>
      <point x="1156.0" y="210.0"/>
      <point x="1156.0" y="740.0" type="curve" smooth="yes"/>
      <point x="1156.0" y="1270.0"/>
      <point x="964.0" y="1500.0"/>
      <point x="610.0" y="1500.0" type="curve" smooth="yes"/>
      <point x="256.0" y="1500.0"/>
      <point x="64.0" y="1270.0"/>
      <point x="64.0" y="740.0" type="curve" smooth="yes"/>
      <point x="64.0" y="210.0"/>
      <point x="256.0" y="-20.0"/>
    </contour>
    <contour>
      <point x="610.0" y="304.0" type="curve" smooth="yes"/>
      <point x="498.0" y="304.0"/>
      <point x="450.0" y="406.0"/>
      <point x="450.0" y="740.0" type="curve" smooth="yes"/>
      <point x="450.0" y="1074.0"/>
      <point x="498.0" y="1176.0"/>
      <point x="610.0" y="1176.0" type="curve" smooth="yes"/>
      <point x="722.0" y="1176.0"/>
      <point x="770.0" y="1074.0"/>
      <point x="770.0" y="740.0" type="curve" smooth="yes"/>
      <point x="770.0" y="406.0"/>
      <point x="722.0" y="304.0"/>
    </contour>
  </outline>
</glyph>
<glyph name="three" format="2">
  <advance width="984.0"/>
  <unicode hex="0033"/>
  <outline>
    <contour>
      <point x="352.0" y="-20.0" type="curve" smooth="yes"/>
      <point x="730.0" y="-20.0"/>
      <point x="948.0" y="136.0"/>
      <point x="948.0" y="414.0" type="curve" smooth="yes"/>
      <point x="948.0" y="606.0"/>
      <point x="848.0" y="734.0"/>
      <point x="646.0" y="768.0" type="curve"/>
      <point x="646.0" y="756.0" type="line"/>
      <point x="810.0" y="792.0"/>
      <point x="906.0" y="920.0"/>
      <point x="906.0" y="1102.0" type="curve" smooth="yes"/>
      <point x="906.0" y="1358.0"/>
      <point x="726.0" y="1500.0"/>
      <point x="378.0" y="1500.0" type="curve" smooth="yes"/>
      <point x="262.0" y="1500.0"/>
      <point x="122.0" y="1480.0"/>
      <point x="34.0" y="1450.0" type="curve"/>
      <point x="34.0" y="1146.0" type="line"/>
      <point x="116.0" y="1176.0"/>
      <point x="226.0" y="1194.0"/>
      <point x="322.0" y="1194.0" type="curve" smooth="yes"/>
      <point x="472.0" y="1194.0"/>
      <point x="532.0" y="1150.0"/>
      <point x="532.0" y="1056.0" type="curve" smooth="yes"/>
      <point x="532.0" y="966.0"/>
      <point x="474.0" y="912.0"/>
      <point x="316.0" y="912.0" type="curve" smooth="yes"/>
      <point x="142.0" y="912.0" type="line"/>
      <point x="142.0" y="598.0" type="line"/>
      <point x="326.0" y="598.0" type="line" smooth="yes"/>
      <point x="506.0" y="598.0"/>
      <point x="574.0" y="546.0"/>
      <point x="574.0" y="442.0" type="curve" smooth="yes"/>
      <point x="574.0" y="336.0"/>
      <point x="508.0" y="286.0"/>
      <point x="342.0" y="286.0" type="curve" smooth="yes"/>
      <point x="250.0" y="286.0"/>
      <point x="120.0" y="300.0"/>
      <point x="20.0" y="326.0" type="curve"/>
      <point x="20.0" y="22.0" type="line"/>
      <point x="126.0" y="-6.0"/>
      <point x="238.0" y="-20.0"/>
    </contour>
  </outline>
</glyph>
<glyph name="four" format="2">
  <advance width="1176.0"/>
  <unicode hex="0034"/>
  <outline>
    <contour>
      <point x="26.0" y="286.0" type="line"/>
      <point x="1154.0" y="286.0" type="line"/>
      <point x="1154.0" y="586.0" type="line"/>
      <point x="358.0" y="586.0" type="line"/>
      <point x="410.0" y="506.0" type="line"/>
      <point x="828.0" y="1480.0" type="line"/>
      <point x="458.0" y="1480.0" type="line"/>
      <point x="26.0" y="506.0" type="line"/>
    </contour>
    <contour>
      <point x="648.0" y="0.0" type="line"/>
      <point x="994.0" y="0.0" type="line"/>
      <point x="994.0" y="980.0" type="line"/>
      <point x="688.0" y="980.0" type="line"/>
      <point x="648.0" y="586.0" type="line"/>
    </contour>
  </outline>
</glyph>
<glyph name="F" format="2">
  <advance width="1070.0"/>
  <unicode hex="0046"/>
  <outline>
    <contour>
      <point x="88.0" y="0.0" type="line"/>
      <point x="480.0" y="0.0" type="line"/>
      <point x="480.0" y="1142.0" type="line"/>
      <point x="1060.0" y="1142.0" type="line"/>
      <point x="1060.0" y="1480.0" type="line"/>
      <point x="88.0" y="1480.0" type="line"/>
    </contour>
    <contour>
      <point x="366.0" y="538.0" type="line"/>
      <point x="962.0" y="538.0" type="line"/>
      <point x="962.0" y="876.0" type="line"/>
      <point x="366.0" y="876.0" type="line"/>
    </contour>
  </outline>
</glyph>
<glyph name="I" format="2">
  <advance width="568.0"/>
  <unicode hex="0049"/>
  <anchor x="284.0" y="0.0" name="bottom"/>
  <anchor x="480.0" y="0.0" name="ogonek"/>
  <anchor x="284.0" y="1520.0" name="top"/>
  <outline>
    <contour>
      <point x="88.0" y="0.0" type="line"/>
      <point x="480.0" y="0.0" type="line"/>
      <point x="480.0" y="1480.0" type="line"/>
      <point x="88.0" y="1480.0" type="line"/>
    </contour>
  </outline>
</glyph>
<glyph name="O" format="2">
  <advance width="1396.0"/>
  <unicode hex="004F"/>
  <anchor x="698.0" y="0.0" name="bottom"/>
  <anchor x="698.0" y="740.0" name="center"/>
  <anchor x="890.0" y="0.0" name="ogonek"/>
  <anchor x="698.0" y="1520.0" name="top"/>
  <anchor x="42.0" y="1480.0" name="topleft"/>
  <anchor x="882.0" y="1480.0" name="topright"/>
  <outline>
    <contour>
      <point x="698.0" y="-20.0" type="curve" smooth="yes"/>
      <point x="1078.0" y="-20.0"/>
      <point x="1342.0" y="204.0"/>
      <point x="1342.0" y="740.0" type="curve" smooth="yes"/>
      <point x="1342.0" y="1276.0"/>
      <point x="1078.0" y="1500.0"/>
      <point x="698.0" y="1500.0" type="curve" smooth="yes"/>
      <point x="318.0" y="1500.0"/>
      <point x="54.0" y="1276.0"/>
      <point x="54.0" y="740.0" type="curve" smooth="yes"/>
      <point x="54.0" y="204.0"/>
      <point x="318.0" y="-20.0"/>
    </contour>
    <contour>
      <point x="698.0" y="304.0" type="curve" smooth="yes"/>
      <point x="544.0" y="304.0"/>
      <point x="458.0" y="414.0"/>
      <point x="458.0" y="748.0" type="curve" smooth="yes"/>
      <point x="458.0" y="1066.0"/>
      <point x="544.0" y="1176.0"/>
      <point x="698.0" y="1176.0" type="curve" smooth="yes"/>
      <point x="852.0" y="1176.0"/>
      <point x="938.0" y="1066.0"/>
      <point x="938.0" y="732.0" type="curve" smooth="yes"/>
      <point x="938.0" y="414.0"/>
      <point x="852.0" y="304.0"/>
    </contour>
  </outline>
</glyph>
<glyph name="P" format="2">
  <advance width="1218.0"/>
  <unicode hex="0050"/>
  <outline>
    <contour>
      <point x="88.0" y="0.0" type="line"/>
      <point x="480.0" y="0.0" type="line"/>
      <point x="480.0" y="396.0" type="line"/>
      <point x="514.0" y="396.0"/>
      <point x="536.0" y="394.0"/>
      <point x="574.0" y="394.0" type="curve" smooth="yes"/>
      <point x="956.0" y="394.0"/>
      <point x="1172.0" y="584.0"/>
      <point x="1172.0" y="946.0" type="curve" smooth="yes"/>
      <point x="1172.0" y="1330.0"/>
      <point x="956.0" y="1500.0"/>
      <point x="530.0" y="1500.0" type="curve" smooth="yes"/>
      <point x="370.0" y="1500.0"/>
      <point x="224.0" y="1480.0"/>
      <point x="88.0" y="1450.0" type="curve"/>
    </contour>
    <contour>
      <point x="578.0" y="708.0" type="curve" smooth="yes"/>
      <point x="538.0" y="708.0"/>
      <point x="510.0" y="710.0"/>
      <point x="480.0" y="714.0" type="curve"/>
      <point x="480.0" y="1178.0" type="line"/>
      <point x="506.0" y="1184.0"/>
      <point x="528.0" y="1186.0"/>
      <point x="568.0" y="1186.0" type="curve" smooth="yes"/>
      <point x="720.0" y="1186.0"/>
      <point x="792.0" y="1114.0"/>
      <point x="792.0" y="942.0" type="curve" smooth="yes"/>
      <point x="792.0" y="770.0"/>
      <point x="720.0" y="708.0"/>
    </contour>
  </outline>
</glyph>
<glyph name="T" format="2">
  <advance width="1186.0"/>
  <unicode hex="0054"/>
  <anchor x="594.0" y="0.0" name="bottom"/>
  <anchor x="594.0" y="700.0" name="center"/>
  <anchor x="594.0" y="1520.0" name="top"/>
  <outline>
    <contour>
      <point x="396.0" y="0.0" type="line"/>
      <point x="790.0" y="0.0" type="line"/>
      <point x="790.0" y="1134.0" type="line"/>
      <point x="1182.0" y="1134.0" type="line"/>
      <point x="1182.0" y="1480.0" type="line"/>
      <point x="4.0" y="1480.0" type="line"/>
      <point x="4.0" y="1134.0" type="line"/>
      <point x="396.0" y="1134.0" type="line"/>
    </contour>
  </outline>
</glyph>
<glyph name="V" format="2">
  <advance width="1280.0"/>
  <unicode hex="0056"/>
  <outline>
    <contour>
      <point x="340.0" y="0.0" type="line"/>
      <point x="940.0" y="0.0" type="line"/>
      <point x="1298.0" y="1480.0" type="line"/>
      <point x="924.0" y="1480.0" type="line"/>
      <point x="612.0" y="150.0" type="line"/>
      <point x="688.0" y="150.0" type="line"/>
      <point x="384.0" y="1480.0" type="line"/>
      <point x="-18.0" y="1480.0" type="line"/>
    </contour>
  </outline>
</glyph>
<glyph name="W" format="2">
  <advance width="2028.0"/>
  <unicode hex="0057"/>
  <anchor x="1014.0" y="0.0" name="bottom"/>
  <anchor x="1014.0" y="1520.0" name="top"/>
  <outline>
    <contour>
      <point x="308.0" y="0.0" type="line"/>
      <point x="816.0" y="0.0" type="line"/>
      <point x="1076.0" y="1200.0" type="line"/>
      <point x="976.0" y="1200.0" type="line"/>
      <point x="1212.0" y="0.0" type="line"/>
      <point x="1720.0" y="0.0" type="line"/>
      <point x="2024.0" y="1480.0" type="line"/>
      <point x="1658.0" y="1480.0" type="line"/>
      <point x="1394.0" y="138.0" type="line"/>
      <point x="1500.0" y="138.0" type="line"/>
      <point x="1240.0" y="1480.0" type="line"/>
      <point x="816.0" y="1480.0" type="line"/>
      <point x="536.0" y="138.0" type="line"/>
      <point x="650.0" y="138.0" type="line"/>
      <point x="398.0" y="1480.0" type="line"/>
      <point x="4.0" y="1480.0" type="line"/>
    </contour>
  </outline>
</glyph>
<glyph name="X" format="2">
  <advance width="1290.0"/>
  <unicode hex="0058"/>
  <outline>
    <contour>
      <point x="910.0" y="0.0" type="line"/>
      <point x="1332.0" y="0.0" type="line"/>
      <point x="872.0" y="778.0" type="line"/>
      <point x="644.0" y="1096.0" type="line"/>
      <point x="422.0" y="1480.0" type="line"/>
      <point x="-6.0" y="1480.0" type="line"/>
      <point x="416.0" y="776.0" type="line"/>
      <point x="644.0" y="464.0" type="line"/>
    </contour>
    <contour>
      <point x="-52.0" y="0.0" type="line"/>
      <point x="376.0" y="0.0" type="line"/>
      <point x="644.0" y="464.0" type="line"/>
      <point x="872.0" y="778.0" type="line"/>
      <point x="1286.0" y="1480.0" type="line"/>
      <point x="866.0" y="1480.0" type="line"/>
      <point x="644.0" y="1096.0" type="line"/>
      <point x="416.0" y="776.0" type="line"/>
    </contour>
  </outline>
</glyph>
<glyph name="Y" format="2">
  <advance width="1186.0"/>
  <unicode hex="0059"/>
  <anchor x="594.0" y="0.0" name="bottom"/>
  <anchor x="596.0" y="1520.0" name="top"/>
  <anchor x="-46.0" y="1480.0" name="topleft"/>
  <outline>
    <contour>
      <point x="398.0" y="0.0" type="line"/>
      <point x="790.0" y="0.0" type="line"/>
      <point x="790.0" y="770.0" type="line"/>
      <point x="710.0" y="460.0" type="line"/>
      <point x="1252.0" y="1480.0" type="line"/>
      <point x="876.0" y="1480.0" type="line"/>
      <point x="556.0" y="870.0" type="line"/>
      <point x="656.0" y="870.0" type="line"/>
      <point x="338.0" y="1480.0" type="line"/>
      <point x="-72.0" y="1480.0" type="line"/>
      <point x="478.0" y="460.0" type="line"/>
      <point x="398.0" y="776.0" type="line"/>
    </contour>
  </outline>
</glyph>
<glyph name="Z" format="2">
  <advance width="1112.0"/>
  <unicode hex="005A"/>
  <anchor x="550.0" y="0.0" name="bottom"/>
  <anchor x="558.0" y="1520.0" name="top"/>
  <outline>
    <contour>
      <point x="32.0" y="0.0" type="line"/>
      <point x="1080.0" y="0.0" type="line"/>
      <point x="1080.0" y="346.0" type="line"/>
      <point x="502.0" y="346.0" type="line"/>
      <point x="502.0" y="280.0" type="line"/>
      <point x="1070.0" y="1260.0" type="line"/>
      <point x="1070.0" y="1480.0" type="line"/>
      <point x="42.0" y="1480.0" type="line"/>
      <point x="42.0" y="1134.0" type="line"/>
      <point x="600.0" y="1134.0" type="line"/>
      <point x="600.0" y="1200.0" type="line"/>
      <point x="32.0" y="220.0" type="line"/>
    </contour>
  </outline>
</glyph>
<glyph name="bracketleft" format="2">
  <advance width="674.0"/>
  <unicode hex="005B"/>
  <outline>
    <contour>
      <point x="108.0" y="-440.0" type="line"/>
      <point x="704.0" y="-440.0" type="line"/>
      <point x="704.0" y="-140.0" type="line"/>
      <point x="494.0" y="-140.0" type="line"/>
      <point x="494.0" y="1316.0" type="line"/>
      <point x="704.0" y="1316.0" type="line"/>
      <point x="704.0" y="1616.0" type="line"/>
      <point x="108.0" y="1616.0" type="line"/>
    </contour>
  </outline>
</glyph>
<glyph name="backslash" format="2">
  <advance width="748.0"/>
  <unicode hex="005C"/>
  <outline>
    <contour>
      <point x="378.0" y="-240.0" type="line"/>
      <point x="748.0" y="-240.0" type="line"/>
      <point x="370.0" y="1616.0" type="line"/>
      <point x="0.0" y="1616.0" type="line"/>
    </contour>
  </outline>
</glyph>
<glyph name="bracketright" format="2">
  <advance width="674.0"/>
  <unicode hex="005D"/>
  <outline>
    <contour>
      <point x="-30.0" y="-440.0" type="line"/>
      <point x="566.0" y="-440.0" type="line"/>
      <point x="566.0" y="1616.0" type="line"/>
      <point x="-30.0" y="1616.0" type="line"/>
      <point x="-30.0" y="1316.0" type="line"/>
      <point x="180.0" y="1316.0" type="line"/>
      <point x="180.0" y="-140.0" type="line"/>
      <point x="-30.0" y="-140.0" type="line"/>
    </contour>
  </outline>
</glyph>
<glyph name="asciicircum" format="2">
  <advance width="1200.0"/>
  <unicode hex="005E"/>
  <outline>
    <contour>
      <point x="54.0" y="740.0" type="line"/>
      <point x="408.0" y="740.0" type="line"/>
      <point x="672.0" y="1270.0" type="line"/>
      <point x="528.0" y="1270.0" type="line"/>
      <point x="792.0" y="740.0" type="line"/>
      <point x="1146.0" y="740.0" type="line"/>
      <point x="758.0" y="1480.0" type="line"/>
      <point x="442.0" y="1480.0" type="line"/>
    </contour>
  </outline>
</glyph>
<glyph name="underscore" format="2">
  <advance width="1088.0"/>
  <unicode hex="005F"/>
  <outline>
    <contour>
      <point x="80.0" y="-300.0" type="line"/>
      <point x="1008.0" y="-300.0" type="line"/>
      <point x="1008.0" y="0.0" type="line"/>
      <point x="80.0" y="0.0" type="line"/>
    </contour>
  </outline>
</glyph>
<glyph name="q" format="2">
  <advance width="1104.0"/>
  <unicode hex="0071"/>
  <outline>
    <contour>
      <point x="640.0" y="-440.0" type="line"/>
      <point x="1026.0" y="-440.0" type="line"/>
      <point x="1026.0" y="1052.0" type="line"/>
      <point x="908.0" y="1096.0"/>
      <point x="758.0" y="1118.0"/>
      <point x="624.0" y="1118.0" type="curve" smooth="yes"/>
      <point x="212.0" y="1118.0"/>
      <point x="40.0" y="908.0"/>
      <point x="40.0" y="532.0" type="curve" smooth="yes"/>
      <point x="40.0" y="150.0"/>
      <point x="210.0" y="-20.0"/>
      <point x="404.0" y="-20.0" type="curve" smooth="yes"/>
      <point x="504.0" y="-20.0"/>
      <point x="580.0" y="26.0"/>
      <point x="622.0" y="110.0" type="curve"/>
      <point x="640.0" y="110.0" type="line"/>
    </contour>
    <contour>
      <point x="576.0" y="304.0" type="curve" smooth="yes"/>
      <point x="484.0" y="304.0"/>
      <point x="434.0" y="350.0"/>
      <point x="434.0" y="566.0" type="curve" smooth="yes"/>
      <point x="434.0" y="772.0"/>
      <point x="492.0" y="826.0"/>
      <point x="590.0" y="826.0" type="curve" smooth="yes"/>
      <point x="606.0" y="826.0"/>
      <point x="624.0" y="824.0"/>
      <point x="640.0" y="822.0" type="curve"/>
      <point x="640.0" y="316.0" type="line"/>
      <point x="622.0" y="308.0"/>
      <point x="598.0" y="304.0"/>
    </contour>
  </outline>
</glyph>
<glyph name="r" format="2">
  <advance width="778.0"/>
  <unicode hex="0072"/>
  <anchor x="272.0" y="0.0" name="bottom"/>
  <anchor x="424.0" y="1200.0" name="top"/>
  <outline>
    <contour>
      <point x="78.0" y="0.0" type="line"/>
      <point x="464.0" y="0.0" type="line"/>
      <point x="464.0" y="690.0" type="line"/>
      <point x="500.0" y="732.0"/>
      <point x="578.0" y="762.0"/>
      <point x="660.0" y="762.0" type="curve" smooth="yes"/>
      <point x="692.0" y="762.0"/>
      <point x="734.0" y="760.0"/>
      <point x="768.0" y="752.0" type="curve"/>
      <point x="768.0" y="1110.0" type="line"/>
      <point x="746.0" y="1114.0"/>
      <point x="714.0" y="1118.0"/>
      <point x="686.0" y="1118.0" type="curve" smooth="yes"/>
      <point x="574.0" y="1118.0"/>
      <point x="484.0" y="1074.0"/>
      <point x="440.0" y="946.0" type="curve"/>
      <point x="424.0" y="946.0" type="line"/>
      <point x="394.0" y="1100.0" type="line"/>
      <point x="78.0" y="1100.0" type="line"/>
    </contour>
  </outline>
</glyph>
<glyph name="v" format="2">
  <advance width="1052.0"/>
  <unicode hex="0076"/>
  <anchor x="526.0" y="0.0" name="bottom"/>
  <anchor x="526.0" y="1200.0" name="top"/>
  <outline>
    <contour>
      <point x="276.0" y="0.0" type="line"/>
      <point x="776.0" y="0.0" type="line"/>
      <point x="1062.0" y="1100.0" type="line"/>
      <point x="682.0" y="1100.0" type="line"/>
      <point x="520.0" y="318.0" type="line"/>
      <point x="548.0" y="318.0" type="line"/>
      <point x="386.0" y="1100.0" type="line"/>
      <point x="-10.0" y="1100.0" type="line"/>
    </contour>
  </outline>
</glyph>
<glyph name="braceleft" format="2">
  <advance width="714.0"/>
  <unicode hex="007B"/>
  <outline>
    <contour>
      <point x="564.0" y="-460.0" type="curve" smooth="yes"/>
      <point x="634.0" y="-460.0"/>
      <point x="692.0" y="-454.0"/>
      <point x="744.0" y="-446.0" type="curve"/>
      <point x="744.0" y="-154.0" type="line"/>
      <point x="632.0" y="-154.0" type="line" smooth="yes"/>
      <point x="568.0" y="-154.0"/>
      <point x="534.0" y="-128.0"/>
      <point x="534.0" y="-70.0" type="curve" smooth="yes"/>
      <point x="534.0" y="352.0" type="line" smooth="yes"/>
      <point x="534.0" y="548.0"/>
      <point x="438.0" y="656.0"/>
      <point x="158.0" y="656.0" type="curve"/>
      <point x="158.0" y="608.0" type="line"/>
      <point x="438.0" y="608.0"/>
      <point x="534.0" y="716.0"/>
      <point x="534.0" y="912.0" type="curve" smooth="yes"/>
      <point x="534.0" y="1246.0" type="line" smooth="yes"/>
      <point x="534.0" y="1304.0"/>
      <point x="568.0" y="1330.0"/>
      <point x="632.0" y="1330.0" type="curve" smooth="yes"/>
      <point x="744.0" y="1330.0" type="line"/>
      <point x="744.0" y="1622.0" type="line"/>
      <point x="692.0" y="1630.0"/>
      <point x="634.0" y="1636.0"/>
      <point x="564.0" y="1636.0" type="curve" smooth="yes"/>
      <point x="288.0" y="1636.0"/>
      <point x="148.0" y="1500.0"/>
      <point x="148.0" y="1242.0" type="curve" smooth="yes"/>
      <point x="148.0" y="882.0" type="line" smooth="yes"/>
      <point x="148.0" y="822.0"/>
      <point x="108.0" y="782.0"/>
      <point x="48.0" y="782.0" type="curve" smooth="yes"/>
      <point x="-14.0" y="782.0" type="line"/>
      <point x="-14.0" y="482.0" type="line"/>
      <point x="48.0" y="482.0" type="line" smooth="yes"/>
      <point x="108.0" y="482.0"/>
      <point x="148.0" y="442.0"/>
      <point x="148.0" y="382.0" type="curve" smooth="yes"/>
      <point x="148.0" y="-66.0" type="line" smooth="yes"/>
      <point x="148.0" y="-324.0"/>
      <point x="288.0" y="-460.0"/>
    </contour>
  </outline>
</glyph>
<glyph name="bar" format="2">
  <advance width="516.0"/>
  <unicode hex="007C"/>
  <outline>
    <contour>
      <point x="88.0" y="-440.0" type="line"/>
      <point x="428.0" y="-440.0" type="line"/>
      <point x="428.0" y="1616.0" type="line"/>
      <point x="88.0" y="1616.0" type="line"/>
    </contour>
  </outline>
</glyph>
<glyph name="currency" format="2">
  <advance width="1200.0"/>
  <unicode hex="00A4"/>
  <outline>
    <contour>
      <point x="376.0" y="800.0" type="line"/>
      <point x="540.0" y="964.0" type="line"/>
      <point x="336.0" y="1200.0" type="line"/>
      <point x="240.0" y="1298.0" type="line"/>
      <point x="42.0" y="1100.0" type="line"/>
      <point x="140.0" y="1004.0" type="line"/>
    </contour>
    <contour>
      <point x="824.0" y="800.0" type="line"/>
      <point x="1060.0" y="1004.0" type="line"/>
      <point x="1158.0" y="1100.0" type="line"/>
      <point x="960.0" y="1298.0" type="line"/>
      <point x="864.0" y="1200.0" type="line"/>
      <point x="660.0" y="964.0" type="line"/>
    </contour>
    <contour>
      <point x="960.0" y="182.0" type="line"/>
      <point x="1158.0" y="380.0" type="line"/>
      <point x="1060.0" y="476.0" type="line"/>
      <point x="824.0" y="680.0" type="line"/>
      <point x="660.0" y="516.0" type="line"/>
      <point x="864.0" y="280.0" type="line"/>
    </contour>
    <contour>
      <point x="240.0" y="182.0" type="line"/>
      <point x="336.0" y="280.0" type="line"/>
      <point x="540.0" y="516.0" type="line"/>
      <point x="376.0" y="680.0" type="line"/>
      <point x="140.0" y="476.0" type="line"/>
      <point x="42.0" y="380.0" type="line"/>
    </contour>
    <contour>
      <point x="600.0" y="356.0" type="curve" smooth="yes"/>
      <point x="820.0" y="356.0"/>
      <point x="990.0" y="510.0"/>
      <point x="990.0" y="740.0" type="curve" smooth="yes"/>
      <point x="990.0" y="968.0"/>
      <point x="820.0" y="1122.0"/>
      <point x="600.0" y="1122.0" type="curve" smooth="yes"/>
      <point x="380.0" y="1122.0"/>
      <point x="210.0" y="968.0"/>
      <point x="210.0" y="740.0" type="curve" smooth="yes"/>
      <point x="210.0" y="510.0"/>
      <point x="380.0" y="356.0"/>
    </contour>
    <contour>
      <point x="600.0" y="580.0" type="curve" smooth="yes"/>
      <point x="516.0" y="580.0"/>
      <point x="452.0" y="640.0"/>
      <point x="452.0" y="740.0" type="curve" smooth="yes"/>
      <point x="452.0" y="840.0"/>
      <point x="516.0" y="900.0"/>
      <point x="602.0" y="900.0" type="curve" smooth="yes"/>
      <point x="688.0" y="900.0"/>
      <point x="748.0" y="832.0"/>
      <point x="748.0" y="740.0" type="curve" smooth="yes"/>
      <point x="748.0" y="640.0"/>
      <point x="684.0" y="580.0"/>
    </contour>
  </outline>
</glyph>
<glyph name="section" format="2">
  <advance width="980.0"/>
  <unicode hex="00A7"/>
  <outline>
    <contour>
      <point x="408.0" y="-22.0" type="curve" smooth="yes"/>
      <point x="704.0" y="-22.0"/>
      <point x="884.0" y="120.0"/>
      <point x="884.0" y="340.0" type="curve" smooth="yes"/>
      <point x="884.0" y="498.0"/>
      <point x="790.0" y="578.0"/>
      <point x="632.0" y="616.0" type="curve" smooth="yes"/>
      <point x="436.0" y="662.0" type="line" smooth="yes"/>
      <point x="380.0" y="676.0"/>
      <point x="364.0" y="702.0"/>
      <point x="364.0" y="746.0" type="curve" smooth="yes"/>
      <point x="364.0" y="796.0"/>
      <point x="384.0" y="826.0"/>
      <point x="424.0" y="876.0" type="curve"/>
      <point x="216.0" y="1008.0" type="line"/>
      <point x="122.0" y="946.0"/>
      <point x="56.0" y="858.0"/>
      <point x="56.0" y="732.0" type="curve" smooth="yes"/>
      <point x="56.0" y="542.0"/>
      <point x="156.0" y="450.0"/>
      <point x="294.0" y="416.0" type="curve" smooth="yes"/>
      <point x="490.0" y="368.0" type="line" smooth="yes"/>
      <point x="522.0" y="360.0"/>
      <point x="536.0" y="348.0"/>
      <point x="536.0" y="322.0" type="curve" smooth="yes"/>
      <point x="536.0" y="286.0"/>
      <point x="510.0" y="260.0"/>
      <point x="404.0" y="260.0" type="curve" smooth="yes"/>
      <point x="304.0" y="260.0"/>
      <point x="200.0" y="274.0"/>
      <point x="114.0" y="298.0" type="curve"/>
      <point x="114.0" y="16.0" type="line"/>
      <point x="210.0" y="-10.0"/>
      <point x="312.0" y="-22.0"/>
    </contour>
    <contour>
      <point x="748.0" y="460.0" type="line"/>
      <point x="850.0" y="524.0"/>
      <point x="924.0" y="616.0"/>
      <point x="924.0" y="750.0" type="curve" smooth="yes"/>
      <point x="924.0" y="942.0"/>
      <point x="830.0" y="1028.0"/>
      <point x="688.0" y="1062.0" type="curve" smooth="yes"/>
      <point x="492.0" y="1108.0" type="line" smooth="yes"/>
      <point x="460.0" y="1116.0"/>
      <point x="444.0" y="1126.0"/>
      <point x="444.0" y="1150.0" type="curve" smooth="yes"/>
      <point x="444.0" y="1182.0"/>
      <point x="474.0" y="1216.0"/>
      <point x="620.0" y="1216.0" type="curve" smooth="yes"/>
      <point x="694.0" y="1216.0"/>
      <point x="768.0" y="1210.0"/>
      <point x="842.0" y="1194.0" type="curve"/>
      <point x="842.0" y="1476.0" type="line"/>
      <point x="768.0" y="1490.0"/>
      <point x="682.0" y="1498.0"/>
      <point x="592.0" y="1498.0" type="curve" smooth="yes"/>
      <point x="256.0" y="1498.0"/>
      <point x="96.0" y="1354.0"/>
      <point x="96.0" y="1132.0" type="curve" smooth="yes"/>
      <point x="96.0" y="986.0"/>
      <point x="194.0" y="896.0"/>
      <point x="350.0" y="860.0" type="curve" smooth="yes"/>
      <point x="546.0" y="814.0" type="line" smooth="yes"/>
      <point x="602.0" y="800.0"/>
      <point x="616.0" y="772.0"/>
      <point x="616.0" y="736.0" type="curve" smooth="yes"/>
      <point x="616.0" y="700.0"/>
      <point x="602.0" y="672.0"/>
      <point x="536.0" y="616.0" type="curve"/>
    </contour>
  </outline>
</glyph>
<glyph name="ordfeminine" format="2">
  <advance width="838.0"/>
  <unicode hex="00AA"/>
  <outline>
    <contour>
      <point x="266.0" y="592.0" type="curve" smooth="yes"/>
      <point x="346.0" y="592.0"/>
      <point x="418.0" y="618.0"/>
      <point x="454.0" y="698.0" type="curve"/>
      <point x="470.0" y="698.0" type="line"/>
      <point x="496.0" y="610.0" type="line"/>
      <point x="786.0" y="610.0" type="line"/>
      <point x="786.0" y="1112.0" type="line" smooth="yes"/>
      <point x="786.0" y="1398.0"/>
      <point x="660.0" y="1502.0"/>
      <point x="368.0" y="1502.0" type="curve" smooth="yes"/>
      <point x="272.0" y="1502.0"/>
      <point x="166.0" y="1490.0"/>
      <point x="80.0" y="1470.0" type="curve"/>
      <point x="80.0" y="1196.0" type="line"/>
      <point x="146.0" y="1214.0"/>
      <point x="220.0" y="1224.0"/>
      <point x="288.0" y="1224.0" type="curve" smooth="yes"/>
      <point x="410.0" y="1224.0"/>
      <point x="434.0" y="1194.0"/>
      <point x="434.0" y="1144.0" type="curve" smooth="yes"/>
      <point x="434.0" y="844.0" type="line"/>
      <point x="428.0" y="842.0"/>
      <point x="418.0" y="842.0"/>
      <point x="412.0" y="842.0" type="curve" smooth="yes"/>
      <point x="380.0" y="842.0"/>
      <point x="352.0" y="860.0"/>
      <point x="352.0" y="910.0" type="curve" smooth="yes"/>
      <point x="352.0" y="952.0"/>
      <point x="378.0" y="972.0"/>
      <point x="428.0" y="974.0" type="curve" smooth="yes"/>
      <point x="520.0" y="976.0" type="line"/>
      <point x="468.0" y="1156.0" type="line"/>
      <point x="380.0" y="1152.0" type="line" smooth="yes"/>
      <point x="110.0" y="1140.0"/>
      <point x="8.0" y="1044.0"/>
      <point x="8.0" y="858.0" type="curve" smooth="yes"/>
      <point x="8.0" y="704.0"/>
      <point x="114.0" y="592.0"/>
    </contour>
  </outline>
</glyph>
<glyph name="softhyphen" format="2">
  <advance width="762.0"/>
  <unicode hex="00AD"/>
  <outline>
    <contour>
      <point x="78.0" y="414.0" type="line"/>
      <point x="684.0" y="414.0" type="line"/>
      <point x="684.0" y="726.0" type="line"/>
      <point x="78.0" y="726.0" type="line"/>
    </contour>
  </outline>
</glyph>
<glyph name="plusminus" format="2">
  <advance width="1036.0"/>
  <unicode hex="00B1"/>
  <outline>
    <contour>
      <point x="362.0" y="386.0" type="line"/>
      <point x="674.0" y="386.0" type="line"/>
      <point x="674.0" y="678.0" type="line"/>
      <point x="958.0" y="678.0" type="line"/>
      <point x="958.0" y="978.0" type="line"/>
      <point x="674.0" y="978.0" type="line"/>
      <point x="674.0" y="1270.0" type="line"/>
      <point x="362.0" y="1270.0" type="line"/>
      <point x="362.0" y="978.0" type="line"/>
      <point x="78.0" y="978.0" type="line"/>
      <point x="78.0" y="678.0" type="line"/>
      <point x="362.0" y="678.0" type="line"/>
    </contour>
    <contour>
      <point x="78.0" y="2.0" type="line"/>
      <point x="958.0" y="2.0" type="line"/>
      <point x="958.0" y="302.0" type="line"/>
      <point x="78.0" y="302.0" type="line"/>
    </contour>
  </outline>
</glyph>
<glyph name="twosuperior" format="2">
  <advance width="820.0"/>
  <unicode hex="00B2"/>
  <outline>
    <contour>
      <point x="84.0" y="-136.0" type="line"/>
      <point x="748.0" y="-136.0" type="line"/>
      <point x="748.0" y="120.0" type="line"/>
      <point x="420.0" y="120.0" type="line"/>
      <point x="430.0" y="50.0" type="line"/>
      <point x="582.0" y="252.0" type="line" smooth="yes"/>
      <point x="672.0" y="370.0"/>
      <point x="706.0" y="468.0"/>
      <point x="706.0" y="564.0" type="curve" smooth="yes"/>
      <point x="706.0" y="790.0"/>
      <point x="554.0" y="878.0"/>
      <point x="308.0" y="878.0" type="curve" smooth="yes"/>
      <point x="228.0" y="878.0"/>
      <point x="130.0" y="864.0"/>
      <point x="70.0" y="844.0" type="curve"/>
      <point x="70.0" y="602.0" type="line"/>
      <point x="124.0" y="622.0"/>
      <point x="198.0" y="634.0"/>
      <point x="256.0" y="634.0" type="curve" smooth="yes"/>
      <point x="370.0" y="634.0"/>
      <point x="406.0" y="598.0"/>
      <point x="406.0" y="538.0" type="curve" smooth="yes"/>
      <point x="406.0" y="484.0"/>
      <point x="376.0" y="418.0"/>
      <point x="304.0" y="322.0" type="curve" smooth="yes"/>
      <point x="84.0" y="28.0" type="line"/>
    </contour>
  </outline>
</glyph>
<glyph name="micro" format="2">
  <advance width="1090.0"/>
  <unicode hex="00B5"/>
  <outline>
    <contour>
      <point x="492.0" y="-20.0" type="curve" smooth="yes"/>
      <point x="558.0" y="-20.0"/>
      <point x="606.0" y="24.0"/>
      <point x="648.0" y="112.0" type="curve"/>
      <point x="664.0" y="112.0" type="line"/>
      <point x="692.0" y="0.0" type="line"/>
      <point x="1012.0" y="0.0" type="line"/>
      <point x="1012.0" y="1100.0" type="line"/>
      <point x="626.0" y="1100.0" type="line"/>
      <point x="626.0" y="362.0" type="line"/>
      <point x="604.0" y="338.0"/>
      <point x="564.0" y="322.0"/>
      <point x="534.0" y="322.0" type="curve" smooth="yes"/>
      <point x="492.0" y="322.0"/>
      <point x="460.0" y="346.0"/>
      <point x="460.0" y="422.0" type="curve" smooth="yes"/>
      <point x="460.0" y="700.0" type="line"/>
      <point x="304.0" y="700.0" type="line"/>
      <point x="304.0" y="386.0" type="line" smooth="yes"/>
      <point x="304.0" y="88.0"/>
      <point x="386.0" y="-20.0"/>
    </contour>
    <contour>
      <point x="74.0" y="-440.0" type="line"/>
      <point x="460.0" y="-440.0" type="line"/>
      <point x="460.0" y="1100.0" type="line"/>
      <point x="74.0" y="1100.0" type="line"/>
    </contour>
  </outline>
</glyph>
<glyph name="paragraph" format="2">
  <advance width="1218.0"/>
  <unicode hex="00B6"/>
  <outline>
    <contour>
      <point x="484.0" y="0.0" type="line"/>
      <point x="752.0" y="0.0" type="line"/>
      <point x="752.0" y="1480.0" type="line"/>
      <point x="686.0" y="1492.0"/>
      <point x="592.0" y="1500.0"/>
      <point x="508.0" y="1500.0" type="curve" smooth="yes"/>
      <point x="180.0" y="1500.0"/>
      <point x="46.0" y="1330.0"/>
      <point x="46.0" y="946.0" type="curve" smooth="yes"/>
      <point x="46.0" y="584.0"/>
      <point x="180.0" y="394.0"/>
      <point x="424.0" y="394.0" type="curve" smooth="yes"/>
      <point x="448.0" y="394.0"/>
      <point x="462.0" y="394.0"/>
      <point x="484.0" y="394.0" type="curve"/>
    </contour>
    <contour>
      <point x="862.0" y="0.0" type="line"/>
      <point x="1130.0" y="0.0" type="line"/>
      <point x="1130.0" y="1480.0" type="line"/>
      <point x="862.0" y="1480.0" type="line"/>
    </contour>
  </outline>
</glyph>
<glyph name="cedilla" format="2">
  <advance width="1200.0"/>
  <unicode hex="00B8"/>
  <anchor x="600.0" y="0.0" name="_bottom"/>
  <outline>
    <contour>
      <point x="588.0" y="-460.0" type="curve" smooth="yes"/>
      <point x="784.0" y="-460.0"/>
      <point x="864.0" y="-382.0"/>
      <point x="864.0" y="-262.0" type="curve" smooth="yes"/>
      <point x="864.0" y="-138.0"/>
      <point x="768.0" y="-72.0"/>
      <point x="618.0" y="-72.0" type="curve"/>
      <point x="706.0" y="-122.0" type="line"/>
      <point x="706.0" y="20.0" type="line"/>
      <point x="520.0" y="20.0" type="line"/>
      <point x="520.0" y="-178.0" type="line"/>
      <point x="562.0" y="-178.0" type="line" smooth="yes"/>
      <point x="624.0" y="-178.0"/>
      <point x="658.0" y="-200.0"/>
      <point x="658.0" y="-246.0" type="curve" smooth="yes"/>
      <point x="658.0" y="-294.0"/>
      <point x="628.0" y="-310.0"/>
      <point x="566.0" y="-310.0" type="curve" smooth="yes"/>
      <point x="528.0" y="-310.0"/>
      <point x="470.0" y="-302.0"/>
      <point x="418.0" y="-284.0" type="curve"/>
      <point x="418.0" y="-434.0" type="line"/>
      <point x="470.0" y="-450.0"/>
      <point x="522.0" y="-460.0"/>
    </contour>
  </outline>
</glyph>
<glyph name="ordmasculine" format="2">
  <advance width="886.0"/>
  <unicode hex="00BA"/>
  <outline>
    <contour>
      <point x="444.0" y="592.0" type="curve" smooth="yes"/>
      <point x="718.0" y="592.0"/>
      <point x="866.0" y="760.0"/>
      <point x="866.0" y="1044.0" type="curve" smooth="yes"/>
      <point x="866.0" y="1328.0"/>
      <point x="718.0" y="1502.0"/>
      <point x="444.0" y="1502.0" type="curve" smooth="yes"/>
      <point x="170.0" y="1502.0"/>
      <point x="20.0" y="1338.0"/>
      <point x="20.0" y="1044.0" type="curve" smooth="yes"/>
      <point x="20.0" y="750.0"/>
      <point x="170.0" y="592.0"/>
    </contour>
    <contour>
      <point x="444.0" y="846.0" type="curve" smooth="yes"/>
      <point x="408.0" y="846.0"/>
      <point x="378.0" y="866.0"/>
      <point x="378.0" y="1044.0" type="curve" smooth="yes"/>
      <point x="378.0" y="1224.0"/>
      <point x="408.0" y="1248.0"/>
      <point x="444.0" y="1248.0" type="curve" smooth="yes"/>
      <point x="480.0" y="1248.0"/>
      <point x="508.0" y="1224.0"/>
      <point x="508.0" y="1044.0" type="curve" smooth="yes"/>
      <point x="508.0" y="866.0"/>
      <point x="480.0" y="846.0"/>
    </contour>
  </outline>
</glyph>
<glyph name="onehalf" format="2">
  <advance width="1986.0"/>
  <unicode hex="00BD"/>
  <outline>
    <contour>
      <point x="290.0" y="636.0" type="line"/>
      <point x="592.0" y="636.0" type="line"/>
      <point x="592.0" y="1620.0" type="line"/>
      <point x="406.0" y="1620.0" type="line"/>
      <point x="138.0" y="1458.0" type="line"/>
      <point x="138.0" y="1188.0" type="line"/>
      <point x="406.0" y="1350.0" type="line"/>
      <point x="290.0" y="1442.0" type="line"/>
    </contour>
    <contour>
      <point x="124.0" y="616.0" type="line"/>
      <point x="750.0" y="616.0" type="line"/>
      <point x="750.0" y="872.0" type="line"/>
      <point x="124.0" y="872.0" type="line"/>
    </contour>
    <contour>
      <point x="470.0" y="-136.0" type="line"/>
      <point x="786.0" y="-136.0" type="line"/>
      <point x="1516.0" y="1616.0" type="line"/>
      <point x="1200.0" y="1616.0" type="line"/>
    </contour>
    <contour>
      <point x="1250.0" y="-136.0" type="line"/>
      <point x="1914.0" y="-136.0" type="line"/>
      <point x="1914.0" y="120.0" type="line"/>
      <point x="1586.0" y="120.0" type="line"/>
      <point x="1596.0" y="50.0" type="line"/>
      <point x="1748.0" y="252.0" type="line" smooth="yes"/>
      <point x="1838.0" y="370.0"/>
      <point x="1872.0" y="468.0"/>
      <point x="1872.0" y="564.0" type="curve" smooth="yes"/>
      <point x="1872.0" y="790.0"/>
      <point x="1720.0" y="878.0"/>
      <point x="1474.0" y="878.0" type="curve" smooth="yes"/>
      <point x="1394.0" y="878.0"/>
      <point x="1296.0" y="864.0"/>
      <point x="1236.0" y="844.0" type="curve"/>
      <point x="1236.0" y="602.0" type="line"/>
      <point x="1290.0" y="622.0"/>
      <point x="1364.0" y="634.0"/>
      <point x="1422.0" y="634.0" type="curve" smooth="yes"/>
      <point x="1536.0" y="634.0"/>
      <point x="1572.0" y="598.0"/>
      <point x="1572.0" y="538.0" type="curve" smooth="yes"/>
      <point x="1572.0" y="484.0"/>
      <point x="1542.0" y="418.0"/>
      <point x="1470.0" y="322.0" type="curve" smooth="yes"/>
      <point x="1250.0" y="28.0" type="line"/>
    </contour>
  </outline>
</glyph>
<glyph name="Agrave" format="2">
  <advance width="1300.0"/>
  <unicode hex="00C0"/>
  <anchor x="650.0" y="1520.0" name="_top"/>
  <anchor x="650.0" y="0.0" name="bottom"/>
  <anchor x="1308.0" y="0.0" name="ogonek"/>
  <anchor x="650.0" y="1520.0" name="top"/>
  <outline>
    <contour>
      <point x="-8.0" y="0.0" type="line"/>
      <point x="372.0" y="0.0" type="line"/>
      <point x="664.0" y="1306.0" type="line"/>
      <point x="628.0" y="1306.0" type="line"/>
      <point x="924.0" y="0.0" type="line"/>
      <point x="1308.0" y="0.0" type="line"/>
      <point x="944.0" y="1480.0" type="line"/>
      <point x="356.0" y="1480.0" type="line"/>
    </contour>
    <contour>
      <point x="246.0" y="344.0" type="line"/>
      <point x="1052.0" y="344.0" type="line"/>
      <point x="980.0" y="674.0" type="line"/>
      <point x="318.0" y="674.0" type="line"/>
    </contour>
    <contour>
      <point x="478.0" y="1586.0" type="line"/>
      <point x="822.0" y="1586.0" type="line"/>
      <point x="660.0" y="1902.0" type="line"/>
      <point x="260.0" y="1902.0" type="line"/>
    </contour>
  </outline>
</glyph>
<glyph name="Adieresis" format="2">
  <advance width="1300.0"/>
  <unicode hex="00C4"/>
  <anchor x="650.0" y="1520.0" name="_top"/>
  <anchor x="650.0" y="0.0" name="bottom"/>
  <anchor x="1308.0" y="0.0" name="ogonek"/>
  <anchor x="650.0" y="1520.0" name="top"/>
  <outline>
    <contour>
      <point x="-8.0" y="0.0" type="line"/>
      <point x="372.0" y="0.0" type="line"/>
      <point x="664.0" y="1306.0" type="line"/>
      <point x="628.0" y="1306.0" type="line"/>
      <point x="924.0" y="0.0" type="line"/>
      <point x="1308.0" y="0.0" type="line"/>
      <point x="944.0" y="1480.0" type="line"/>
      <point x="356.0" y="1480.0" type="line"/>
    </contour>
    <contour>
      <point x="246.0" y="344.0" type="line"/>
      <point x="1052.0" y="344.0" type="line"/>
      <point x="980.0" y="674.0" type="line"/>
      <point x="318.0" y="674.0" type="line"/>
    </contour>
    <contour>
      <point x="900.0" y="1570.0" type="curve" smooth="yes"/>
      <point x="1032.0" y="1570.0"/>
      <point x="1108.0" y="1634.0"/>
      <point x="1108.0" y="1750.0" type="curve" smooth="yes"/>
      <point x="1108.0" y="1866.0"/>
      <point x="1032.0" y="1930.0"/>
      <point x="900.0" y="1930.0" type="curve" smooth="yes"/>
      <point x="768.0" y="1930.0"/>
      <point x="692.0" y="1866.0"/>
      <point x="692.0" y="1750.0" type="curve" smooth="yes"/>
      <point x="692.0" y="1634.0"/>
      <point x="768.0" y="1570.0"/>
    </contour>
    <contour>
      <point x="400.0" y="1570.0" type="curve" smooth="yes"/>
      <point x="532.0" y="1570.0"/>
      <point x="608.0" y="1634.0"/>
      <point x="608.0" y="1750.0" type="curve" smooth="yes"/>
      <point x="608.0" y="1866.0"/>
      <point x="532.0" y="1930.0"/>
      <point x="400.0" y="1930.0" type="curve" smooth="yes"/>
      <point x="268.0" y="1930.0"/>
      <point x="192.0" y="1866.0"/>
      <point x="192.0" y="1750.0" type="curve" smooth="yes"/>
      <point x="192.0" y="1634.0"/>
      <point x="268.0" y="1570.0"/>
    </contour>
  </outline>
</glyph>
<glyph name="germandbls" format="2">
  <advance width="1432.0"/>
  <unicode hex="00DF"/>
  <outline>
    <contour>
      <point x="938.0" y="-22.0" type="curve" smooth="yes"/>
      <point x="1234.0" y="-22.0"/>
      <point x="1414.0" y="120.0"/>
      <point x="1414.0" y="350.0" type="curve" smooth="yes"/>
      <point x="1414.0" y="542.0"/>
      <point x="1320.0" y="632.0"/>
      <point x="1162.0" y="670.0" type="curve" smooth="yes"/>
      <point x="1002.0" y="708.0" type="line" smooth="yes"/>
      <point x="970.0" y="716.0"/>
      <point x="954.0" y="726.0"/>
      <point x="954.0" y="750.0" type="curve" smooth="yes"/>
      <point x="954.0" y="782.0"/>
      <point x="984.0" y="816.0"/>
      <point x="1130.0" y="816.0" type="curve" smooth="yes"/>
      <point x="1172.0" y="816.0"/>
      <point x="1220.0" y="814.0"/>
      <point x="1258.0" y="808.0" type="curve"/>
      <point x="1284.0" y="902.0"/>
      <point x="1302.0" y="1006.0"/>
      <point x="1302.0" y="1110.0" type="curve" smooth="yes"/>
      <point x="1302.0" y="1494.0"/>
      <point x="1078.0" y="1636.0"/>
      <point x="778.0" y="1636.0" type="curve" smooth="yes"/>
      <point x="382.0" y="1636.0"/>
      <point x="148.0" y="1400.0"/>
      <point x="148.0" y="1032.0" type="curve" smooth="yes"/>
      <point x="148.0" y="0.0" type="line"/>
      <point x="534.0" y="0.0" type="line"/>
      <point x="534.0" y="1030.0" type="line" smooth="yes"/>
      <point x="534.0" y="1254.0"/>
      <point x="614.0" y="1360.0"/>
      <point x="804.0" y="1360.0" type="curve" smooth="yes"/>
      <point x="934.0" y="1360.0"/>
      <point x="1028.0" y="1298.0"/>
      <point x="1028.0" y="1114.0" type="curve" smooth="yes"/>
      <point x="1028.0" y="1044.0"/>
      <point x="1018.0" y="980.0"/>
      <point x="1002.0" y="916.0" type="curve"/>
      <point x="1238.0" y="1100.0" type="line"/>
      <point x="1202.0" y="1104.0"/>
      <point x="1126.0" y="1106.0"/>
      <point x="1090.0" y="1106.0" type="curve" smooth="yes"/>
      <point x="766.0" y="1106.0"/>
      <point x="606.0" y="974.0"/>
      <point x="606.0" y="752.0" type="curve" smooth="yes"/>
      <point x="606.0" y="562.0"/>
      <point x="704.0" y="462.0"/>
      <point x="860.0" y="426.0" type="curve" smooth="yes"/>
      <point x="1020.0" y="388.0" type="line" smooth="yes"/>
      <point x="1052.0" y="380.0"/>
      <point x="1066.0" y="368.0"/>
      <point x="1066.0" y="342.0" type="curve" smooth="yes"/>
      <point x="1066.0" y="306.0"/>
      <point x="1040.0" y="280.0"/>
      <point x="934.0" y="280.0" type="curve" smooth="yes"/>
      <point x="834.0" y="280.0"/>
      <point x="730.0" y="294.0"/>
      <point x="644.0" y="318.0" type="curve"/>
      <point x="644.0" y="16.0" type="line"/>
      <point x="740.0" y="-10.0"/>
      <point x="842.0" y="-22.0"/>
    </contour>
    <contour>
      <point x="8.0" y="800.0" type="line"/>
      <point x="300.0" y="800.0" type="line"/>
      <point x="300.0" y="1100.0" type="line"/>
      <point x="8.0" y="1100.0" type="line"/>
    </contour>
  </outline>
</glyph>
<glyph name="iacute" format="2">
  <advance width="544.0"/>
  <unicode hex="00ED"/>
  <anchor x="272.0" y="1200.0" name="_top"/>
  <anchor x="272.0" y="0.0" name="bottom"/>
  <anchor x="466.0" y="0.0" name="ogonek"/>
  <anchor x="272.0" y="1200.0" name="top"/>
  <outline>
    <contour>
      <point x="78.0" y="0.0" type="line"/>
      <point x="466.0" y="0.0" type="line"/>
      <point x="466.0" y="1100.0" type="line"/>
      <point x="78.0" y="1100.0" type="line"/>
    </contour>
    <contour>
      <point x="104.0" y="1220.0" type="line"/>
      <point x="440.0" y="1220.0" type="line"/>
      <point x="700.0" y="1616.0" type="line"/>
      <point x="312.0" y="1616.0" type="line"/>
    </contour>
  </outline>
</glyph>
<glyph name="otilde" format="2">
  <advance width="1068.0"/>
  <unicode hex="00F5"/>
  <anchor x="534.0" y="1200.0" name="_top"/>
  <anchor x="534.0" y="0.0" name="bottom"/>
  <anchor x="534.0" y="550.0" name="center"/>
  <anchor x="706.0" y="0.0" name="ogonek"/>
  <anchor x="534.0" y="1200.0" name="top"/>
  <anchor x="534.0" y="1100.0" name="topright"/>
  <outline>
    <contour>
      <point x="534.0" y="-22.0" type="curve" smooth="yes"/>
      <point x="850.0" y="-22.0"/>
      <point x="1028.0" y="158.0"/>
      <point x="1028.0" y="546.0" type="curve" smooth="yes"/>
      <point x="1028.0" y="926.0"/>
      <point x="850.0" y="1118.0"/>
      <point x="534.0" y="1118.0" type="curve" smooth="yes"/>
      <point x="218.0" y="1118.0"/>
      <point x="40.0" y="936.0"/>
      <point x="40.0" y="542.0" type="curve" smooth="yes"/>
      <point x="40.0" y="158.0"/>
      <point x="218.0" y="-22.0"/>
    </contour>
    <contour>
      <point x="534.0" y="262.0" type="curve" smooth="yes"/>
      <point x="466.0" y="262.0"/>
      <point x="434.0" y="302.0"/>
      <point x="434.0" y="546.0" type="curve" smooth="yes"/>
      <point x="434.0" y="790.0"/>
      <point x="470.0" y="834.0"/>
      <point x="534.0" y="834.0" type="curve" smooth="yes"/>
      <point x="598.0" y="834.0"/>
      <point x="634.0" y="790.0"/>
      <point x="634.0" y="542.0" type="curve" smooth="yes"/>
      <point x="634.0" y="302.0"/>
      <point x="602.0" y="262.0"/>
    </contour>
    <contour>
      <point x="692.0" y="1250.0" type="curve" smooth="yes"/>
      <point x="776.0" y="1250.0"/>
      <point x="836.0" y="1274.0"/>
      <point x="890.0" y="1332.0" type="curve"/>
      <point x="890.0" y="1582.0" type="line"/>
      <point x="828.0" y="1520.0"/>
      <point x="772.0" y="1492.0"/>
      <point x="696.0" y="1492.0" type="curve" smooth="yes"/>
      <point x="594.0" y="1492.0"/>
      <point x="502.0" y="1588.0"/>
      <point x="376.0" y="1588.0" type="curve" smooth="yes"/>
      <point x="292.0" y="1588.0"/>
      <point x="232.0" y="1564.0"/>
      <point x="178.0" y="1506.0" type="curve"/>
      <point x="178.0" y="1256.0" type="line"/>
      <point x="240.0" y="1318.0"/>
      <point x="296.0" y="1346.0"/>
      <point x="372.0" y="1346.0" type="curve" smooth="yes"/>
      <point x="474.0" y="1346.0"/>
      <point x="566.0" y="1250.0"/>
    </contour>
  </outline>
</glyph>
<glyph name="divide" format="2">
  <advance width="1036.0"/>
  <unicode hex="00F7"/>
  <outline>
    <contour>
      <point x="78.0" y="610.0" type="line"/>
      <point x="958.0" y="610.0" type="line"/>
      <point x="958.0" y="910.0" type="line"/>
      <point x="78.0" y="910.0" type="line"/>
    </contour>
    <contour>
      <point x="518.0" y="146.0" type="curve" smooth="yes"/>
      <point x="644.0" y="146.0"/>
      <point x="734.0" y="230.0"/>
      <point x="734.0" y="358.0" type="curve" smooth="yes"/>
      <point x="734.0" y="486.0"/>
      <point x="648.0" y="570.0"/>
      <point x="518.0" y="570.0" type="curve" smooth="yes"/>
      <point x="388.0" y="570.0"/>
      <point x="302.0" y="490.0"/>
      <point x="302.0" y="358.0" type="curve" smooth="yes"/>
      <point x="302.0" y="226.0"/>
      <point x="392.0" y="146.0"/>
    </contour>
    <contour>
      <point x="518.0" y="950.0" type="curve" smooth="yes"/>
      <point x="644.0" y="950.0"/>
      <point x="734.0" y="1034.0"/>
      <point x="734.0" y="1162.0" type="curve" smooth="yes"/>
      <point x="734.0" y="1290.0"/>
      <point x="648.0" y="1374.0"/>
      <point x="518.0" y="1374.0" type="curve" smooth="yes"/>
      <point x="388.0" y="1374.0"/>
      <point x="302.0" y="1294.0"/>
      <point x="302.0" y="1162.0" type="curve" smooth="yes"/>
      <point x="302.0" y="1030.0"/>
      <point x="392.0" y="950.0"/>
    </contour>
  </outline>
</glyph>
<glyph name="ucircumflex" format="2">
  <advance width="1090.0"/>
  <unicode hex="00FB"/>
  <anchor x="544.0" y="1200.0" name="_top"/>
  <anchor x="544.0" y="0.0" name="bottom"/>
  <anchor x="1012.0" y="0.0" name="ogonek"/>
  <anchor x="544.0" y="1200.0" name="top"/>
  <anchor x="700.0" y="1100.0" name="topright"/>
  <outline>
    <contour>
      <point x="388.0" y="-20.0" type="curve" smooth="yes"/>
      <point x="496.0" y="-20.0"/>
      <point x="580.0" y="24.0"/>
      <point x="648.0" y="112.0" type="curve"/>
      <point x="664.0" y="112.0" type="line"/>
      <point x="692.0" y="0.0" type="line"/>
      <point x="1012.0" y="0.0" type="line"/>
      <point x="1012.0" y="1100.0" type="line"/>
      <point x="626.0" y="1100.0" type="line"/>
      <point x="626.0" y="362.0" type="line"/>
      <point x="604.0" y="338.0"/>
      <point x="564.0" y="322.0"/>
      <point x="534.0" y="322.0" type="curve" smooth="yes"/>
      <point x="492.0" y="322.0"/>
      <point x="460.0" y="346.0"/>
      <point x="460.0" y="422.0" type="curve" smooth="yes"/>
      <point x="460.0" y="1100.0" type="line"/>
      <point x="74.0" y="1100.0" type="line"/>
      <point x="74.0" y="386.0" type="line" smooth="yes"/>
      <point x="74.0" y="88.0"/>
      <point x="212.0" y="-20.0"/>
    </contour>
    <contour>
      <point x="190.0" y="1220.0" type="line"/>
      <point x="446.0" y="1220.0" type="line"/>
      <point x="566.0" y="1492.0" type="line"/>
      <point x="522.0" y="1492.0" type="line"/>
      <point x="642.0" y="1220.0" type="line"/>
      <point x="898.0" y="1220.0" type="line"/>
      <point x="706.0" y="1616.0" type="line"/>
      <point x="382.0" y="1616.0" type="line"/>
    </contour>
  </outline>
</glyph>
<glyph name="Aogonek" format="2">
  <advance width="1300.0"/>
  <unicode hex="0104"/>
  <anchor x="1308.0" y="0.0" name="_ogonek"/>
  <anchor x="650.0" y="0.0" name="bottom"/>
  <anchor x="1308.0" y="0.0" name="ogonek"/>
  <anchor x="650.0" y="1520.0" name="top"/>
  <outline>
    <contour>
      <point x="-8.0" y="0.0" type="line"/>
      <point x="372.0" y="0.0" type="line"/>
      <point x="664.0" y="1306.0" type="line"/>
      <point x="628.0" y="1306.0" type="line"/>
      <point x="924.0" y="0.0" type="line"/>
      <point x="1308.0" y="0.0" type="line"/>
      <point x="944.0" y="1480.0" type="line"/>
      <point x="356.0" y="1480.0" type="line"/>
    </contour>
    <contour>
      <point x="246.0" y="344.0" type="line"/>
      <point x="1052.0" y="344.0" type="line"/>
      <point x="980.0" y="674.0" type="line"/>
      <point x="318.0" y="674.0" type="line"/>
    </contour>
    <contour>
      <point x="1138.0" y="-460.0" type="curve" smooth="yes"/>
      <point x="1212.0" y="-460.0"/>
      <point x="1268.0" y="-448.0"/>
      <point x="1320.0" y="-430.0" type="curve"/>
      <point x="1320.0" y="-280.0" type="line"/>
      <point x="1272.0" y="-298.0"/>
      <point x="1228.0" y="-306.0"/>
      <point x="1190.0" y="-306.0" type="curve" smooth="yes"/>
      <point x="1098.0" y="-306.0"/>
      <point x="1062.0" y="-272.0"/>
      <point x="1062.0" y="-216.0" type="curve" smooth="yes"/>
      <point x="1062.0" y="-144.0"/>
      <point x="1100.0" y="-72.0"/>
      <point x="1308.0" y="0.0" type="curve"/>
      <point x="1196.0" y="86.0" type="line"/>
      <point x="932.0" y="-8.0"/>
      <point x="846.0" y="-104.0"/>
      <point x="846.0" y="-238.0" type="curve" smooth="yes"/>
      <point x="846.0" y="-374.0"/>
      <point x="938.0" y="-460.0"/>
    </contour>
  </outline>
</glyph>
<glyph name="eogonek" format="2">
  <advance width="998.0"/>
  <unicode hex="0119"/>
  <outline>
    <contour>
      <point x="744.0" y="-460.0" type="curve" smooth="yes"/>
      <point x="818.0" y="-460.0"/>
      <point x="868.0" y="-446.0"/>
      <point x="914.0" y="-430.0" type="curve"/>
      <point x="914.0" y="-280.0" type="line"/>
      <point x="866.0" y="-298.0"/>
      <point x="828.0" y="-306.0"/>
      <point x="796.0" y="-306.0" type="curve" smooth="yes"/>
      <point x="724.0" y="-306.0"/>
      <point x="688.0" y="-272.0"/>
      <point x="688.0" y="-216.0" type="curve" smooth="yes"/>
      <point x="688.0" y="-144.0"/>
      <point x="726.0" y="-66.0"/>
      <point x="914.0" y="14.0" type="curve"/>
      <point x="914.0" y="318.0" type="line"/>
      <point x="830.0" y="298.0"/>
      <point x="746.0" y="284.0"/>
      <point x="664.0" y="284.0" type="curve" smooth="yes"/>
      <point x="476.0" y="284.0"/>
      <point x="430.0" y="328.0"/>
      <point x="430.0" y="472.0" type="curve" smooth="yes"/>
      <point x="430.0" y="636.0" type="line" smooth="yes"/>
      <point x="430.0" y="820.0"/>
      <point x="456.0" y="860.0"/>
      <point x="522.0" y="860.0" type="curve" smooth="yes"/>
      <point x="586.0" y="860.0"/>
      <point x="610.0" y="820.0"/>
      <point x="610.0" y="636.0" type="curve"/>
      <point x="664.0" y="652.0" type="line"/>
      <point x="324.0" y="652.0" type="line"/>
      <point x="324.0" y="434.0" type="line"/>
      <point x="968.0" y="434.0" type="line"/>
      <point x="968.0" y="544.0" type="line" smooth="yes"/>
      <point x="968.0" y="910.0"/>
      <point x="820.0" y="1118.0"/>
      <point x="524.0" y="1118.0" type="curve" smooth="yes"/>
      <point x="208.0" y="1118.0"/>
      <point x="40.0" y="910.0"/>
      <point x="40.0" y="556.0" type="curve" smooth="yes"/>
      <point x="40.0" y="150.0"/>
      <point x="206.0" y="-22.0"/>
      <point x="614.0" y="-22.0" type="curve" smooth="yes"/>
      <point x="654.0" y="-22.0"/>
      <point x="698.0" y="-20.0"/>
      <point x="742.0" y="-16.0" type="curve"/>
      <point x="734.0" y="58.0" type="line"/>
      <point x="534.0" y="-24.0"/>
      <point x="472.0" y="-116.0"/>
      <point x="472.0" y="-238.0" type="curve" smooth="yes"/>
      <point x="472.0" y="-374.0"/>
      <point x="564.0" y="-460.0"/>
    </contour>
  </outline>
</glyph>
<glyph name="Jcircumflex" format="2">
  <advance width="568.0"/>
  <unicode hex="0134"/>
  <anchor x="284.0" y="1520.0" name="_top"/>
  <anchor x="480.0" y="0.0" name="bottom"/>
  <anchor x="284.0" y="1520.0" name="top"/>
  <outline>
    <contour>
      <point x="206.0" y="-350.0" type="line"/>
      <point x="410.0" y="-132.0"/>
      <point x="480.0" y="72.0"/>
      <point x="480.0" y="322.0" type="curve" smooth="yes"/>
      <point x="480.0" y="1480.0" type="line"/>
      <point x="88.0" y="1480.0" type="line"/>
      <point x="88.0" y="306.0" type="line" smooth="yes"/>
      <point x="88.0" y="100.0"/>
      <point x="58.0" y="-26.0"/>
      <point x="-50.0" y="-182.0" type="curve"/>
    </contour>
    <contour>
      <point x="-70.0" y="1586.0" type="line"/>
      <point x="186.0" y="1586.0" type="line"/>
      <point x="306.0" y="1804.0" type="line"/>
      <point x="262.0" y="1804.0" type="line"/>
      <point x="382.0" y="1586.0" type="line"/>
      <point x="638.0" y="1586.0" type="line"/>
      <point x="446.0" y="1902.0" type="line"/>
      <point x="122.0" y="1902.0" type="line"/>
    </contour>
  </outline>
</glyph>
<glyph name="ldot" format="2">
  <advance width="966.0"/>
  <unicode hex="0140"/>
  <outline>
    <contour>
      <point x="78.0" y="0.0" type="line"/>
      <point x="464.0" y="0.0" type="line"/>
      <point x="464.0" y="1616.0" type="line"/>
      <point x="78.0" y="1616.0" type="line"/>
    </contour>
    <contour>
      <point x="754.0" y="586.0" type="curve" smooth="yes"/>
      <point x="916.0" y="586.0"/>
      <point x="988.0" y="664.0"/>
      <point x="988.0" y="794.0" type="curve" smooth="yes"/>
      <point x="988.0" y="924.0"/>
      <point x="916.0" y="1002.0"/>
      <point x="754.0" y="1002.0" type="curve" smooth="yes"/>
      <point x="592.0" y="1002.0"/>
      <point x="520.0" y="924.0"/>
      <point x="520.0" y="794.0" type="curve" smooth="yes"/>
      <point x="520.0" y="664.0"/>
      <point x="592.0" y="586.0"/>
    </contour>
  </outline>
</glyph>
<glyph name="Nacute" format="2">
  <advance width="1380.0"/>
  <unicode hex="0143"/>
  <anchor x="690.0" y="1520.0" name="_top"/>
  <anchor x="690.0" y="0.0" name="bottom"/>
  <anchor x="690.0" y="1520.0" name="top"/>
  <outline>
    <contour>
      <point x="88.0" y="0.0" type="line"/>
      <point x="454.0" y="0.0" type="line"/>
      <point x="454.0" y="930.0" type="line"/>
      <point x="396.0" y="930.0" type="line"/>
      <point x="902.0" y="0.0" type="line"/>
      <point x="1292.0" y="0.0" type="line"/>
      <point x="1292.0" y="1480.0" type="line"/>
      <point x="926.0" y="1480.0" type="line"/>
      <point x="926.0" y="550.0" type="line"/>
      <point x="984.0" y="550.0" type="line"/>
      <point x="478.0" y="1480.0" type="line"/>
      <point x="88.0" y="1480.0" type="line"/>
    </contour>
    <contour>
      <point x="518.0" y="1586.0" type="line"/>
      <point x="862.0" y="1586.0" type="line"/>
      <point x="1080.0" y="1902.0" type="line"/>
      <point x="680.0" y="1902.0" type="line"/>
    </contour>
  </outline>
</glyph>
<glyph name="obreve" format="2">
  <advance width="1068.0"/>
  <unicode hex="014F"/>
  <anchor x="534.0" y="1200.0" name="_top"/>
  <anchor x="534.0" y="0.0" name="bottom"/>
  <anchor x="534.0" y="550.0" name="center"/>
  <anchor x="706.0" y="0.0" name="ogonek"/>
  <anchor x="534.0" y="1200.0" name="top"/>
  <anchor x="534.0" y="1100.0" name="topright"/>
  <outline>
    <contour>
      <point x="534.0" y="-22.0" type="curve" smooth="yes"/>
      <point x="850.0" y="-22.0"/>
      <point x="1028.0" y="158.0"/>
      <point x="1028.0" y="546.0" type="curve" smooth="yes"/>
      <point x="1028.0" y="926.0"/>
      <point x="850.0" y="1118.0"/>
      <point x="534.0" y="1118.0" type="curve" smooth="yes"/>
      <point x="218.0" y="1118.0"/>
      <point x="40.0" y="936.0"/>
      <point x="40.0" y="542.0" type="curve" smooth="yes"/>
      <point x="40.0" y="158.0"/>
      <point x="218.0" y="-22.0"/>
    </contour>
    <contour>
      <point x="534.0" y="262.0" type="curve" smooth="yes"/>
      <point x="466.0" y="262.0"/>
      <point x="434.0" y="302.0"/>
      <point x="434.0" y="546.0" type="curve" smooth="yes"/>
      <point x="434.0" y="790.0"/>
      <point x="470.0" y="834.0"/>
      <point x="534.0" y="834.0" type="curve" smooth="yes"/>
      <point x="598.0" y="834.0"/>
      <point x="634.0" y="790.0"/>
      <point x="634.0" y="542.0" type="curve" smooth="yes"/>
      <point x="634.0" y="302.0"/>
      <point x="602.0" y="262.0"/>
    </contour>
    <contour>
      <point x="534.0" y="1232.0" type="curve" smooth="yes"/>
      <point x="734.0" y="1232.0"/>
      <point x="874.0" y="1338.0"/>
      <point x="888.0" y="1596.0" type="curve"/>
      <point x="656.0" y="1596.0" type="line"/>
      <point x="650.0" y="1474.0"/>
      <point x="604.0" y="1428.0"/>
      <point x="534.0" y="1428.0" type="curve" smooth="yes"/>
      <point x="464.0" y="1428.0"/>
      <point x="418.0" y="1474.0"/>
      <point x="412.0" y="1596.0" type="curve"/>
      <point x="180.0" y="1596.0" type="line"/>
      <point x="194.0" y="1338.0"/>
      <point x="334.0" y="1232.0"/>
    </contour>
  </outline>
</glyph>
<glyph name="OE" format="2">
  <advance width="1864.0"/>
  <unicode hex="0152"/>
  <anchor x="1042.0" y="0.0" name="bottom"/>
  <anchor x="1042.0" y="1520.0" name="top"/>
  <outline>
    <contour>
      <point x="802.0" y="-10.0" type="curve" smooth="yes"/>
      <point x="894.0" y="-10.0"/>
      <point x="1012.0" y="0.0"/>
      <point x="1098.0" y="0.0" type="curve" smooth="yes"/>
      <point x="1806.0" y="0.0" type="line"/>
      <point x="1806.0" y="334.0" type="line"/>
      <point x="1234.0" y="334.0" type="line"/>
      <point x="1234.0" y="1146.0" type="line"/>
      <point x="1796.0" y="1146.0" type="line"/>
      <point x="1796.0" y="1480.0" type="line"/>
      <point x="1098.0" y="1480.0" type="line" smooth="yes"/>
      <point x="1012.0" y="1480.0"/>
      <point x="914.0" y="1490.0"/>
      <point x="822.0" y="1490.0" type="curve" smooth="yes"/>
      <point x="346.0" y="1490.0"/>
      <point x="54.0" y="1258.0"/>
      <point x="54.0" y="740.0" type="curve" smooth="yes"/>
      <point x="54.0" y="230.0"/>
      <point x="310.0" y="-10.0"/>
    </contour>
    <contour>
      <point x="748.0" y="314.0" type="curve" smooth="yes"/>
      <point x="568.0" y="314.0"/>
      <point x="458.0" y="412.0"/>
      <point x="458.0" y="740.0" type="curve" smooth="yes"/>
      <point x="458.0" y="1066.0"/>
      <point x="568.0" y="1164.0"/>
      <point x="748.0" y="1164.0" type="curve" smooth="yes"/>
      <point x="770.0" y="1164.0"/>
      <point x="804.0" y="1164.0"/>
      <point x="848.0" y="1162.0" type="curve"/>
      <point x="848.0" y="316.0" type="line"/>
      <point x="804.0" y="314.0"/>
      <point x="776.0" y="314.0"/>
    </contour>
    <contour>
      <point x="1126.0" y="588.0" type="line"/>
      <point x="1692.0" y="588.0" type="line"/>
      <point x="1692.0" y="922.0" type="line"/>
      <point x="1126.0" y="922.0" type="line"/>
    </contour>
  </outline>
</glyph>
<glyph name="Rcommaaccent" format="2">
  <advance width="1272.0"/>
  <unicode hex="0156"/>
  <anchor x="682.0" y="0.0" name="_bottom"/>
  <anchor x="682.0" y="0.0" name="bottom"/>
  <anchor x="622.0" y="1520.0" name="top"/>
  <outline>
    <contour>
      <point x="88.0" y="0.0" type="line"/>
      <point x="474.0" y="0.0" type="line"/>
      <point x="474.0" y="504.0" type="line"/>
      <point x="510.0" y="504.0"/>
      <point x="538.0" y="502.0"/>
      <point x="584.0" y="502.0" type="curve" smooth="yes"/>
      <point x="930.0" y="502.0"/>
      <point x="1168.0" y="674.0"/>
      <point x="1168.0" y="1000.0" type="curve" smooth="yes"/>
      <point x="1168.0" y="1336.0"/>
      <point x="958.0" y="1500.0"/>
      <point x="536.0" y="1500.0" type="curve" smooth="yes"/>
      <point x="370.0" y="1500.0"/>
      <point x="224.0" y="1480.0"/>
      <point x="88.0" y="1450.0" type="curve"/>
    </contour>
    <contour>
      <point x="858.0" y="0.0" type="line"/>
      <point x="1274.0" y="0.0" type="line"/>
      <point x="864.0" y="672.0" type="line"/>
      <point x="460.0" y="672.0" type="line"/>
    </contour>
    <contour>
      <point x="584.0" y="808.0" type="curve" smooth="yes"/>
      <point x="538.0" y="808.0"/>
      <point x="510.0" y="810.0"/>
      <point x="474.0" y="814.0" type="curve"/>
      <point x="474.0" y="1188.0" type="line"/>
      <point x="506.0" y="1194.0"/>
      <point x="540.0" y="1198.0"/>
      <point x="592.0" y="1198.0" type="curve" smooth="yes"/>
      <point x="720.0" y="1198.0"/>
      <point x="798.0" y="1136.0"/>
      <point x="798.0" y="1000.0" type="curve" smooth="yes"/>
      <point x="798.0" y="858.0"/>
      <point x="720.0" y="808.0"/>
    </contour>
    <contour>
      <point x="558.0" y="-516.0" type="curve"/>
      <point x="802.0" y="-516.0" type="line"/>
      <point x="850.0" y="-456.0"/>
      <point x="890.0" y="-358.0"/>
      <point x="890.0" y="-278.0" type="curve" smooth="yes"/>
      <point x="890.0" y="-168.0"/>
      <point x="828.0" y="-104.0"/>
      <point x="682.0" y="-104.0" type="curve" smooth="yes"/>
      <point x="536.0" y="-104.0"/>
      <point x="474.0" y="-154.0"/>
      <point x="474.0" y="-236.0" type="curve" smooth="yes"/>
      <point x="474.0" y="-318.0"/>
      <point x="536.0" y="-370.0"/>
      <point x="682.0" y="-370.0" type="curve" smooth="yes"/>
      <point x="710.0" y="-370.0" type="line"/>
      <point x="628.0" y="-292.0" type="line"/>
      <point x="628.0" y="-366.0"/>
      <point x="610.0" y="-420.0"/>
    </contour>
  </outline>
</glyph>
<glyph name="scedilla" format="2">
  <advance width="852.0"/>
  <unicode hex="015F"/>
  <anchor x="420.0" y="0.0" name="_bottom"/>
  <anchor x="420.0" y="0.0" name="bottom"/>
  <anchor x="420.0" y="1200.0" name="top"/>
  <outline>
    <contour>
      <point x="372.0" y="-22.0" type="curve" smooth="yes"/>
      <point x="654.0" y="-22.0"/>
      <point x="834.0" y="120.0"/>
      <point x="834.0" y="350.0" type="curve" smooth="yes"/>
      <point x="834.0" y="542.0"/>
      <point x="740.0" y="632.0"/>
      <point x="582.0" y="670.0" type="curve" smooth="yes"/>
      <point x="422.0" y="708.0" type="line" smooth="yes"/>
      <point x="390.0" y="716.0"/>
      <point x="374.0" y="726.0"/>
      <point x="374.0" y="750.0" type="curve" smooth="yes"/>
      <point x="374.0" y="782.0"/>
      <point x="404.0" y="816.0"/>
      <point x="536.0" y="816.0" type="curve" smooth="yes"/>
      <point x="624.0" y="816.0"/>
      <point x="698.0" y="806.0"/>
      <point x="772.0" y="786.0" type="curve"/>
      <point x="772.0" y="1088.0" type="line"/>
      <point x="698.0" y="1106.0"/>
      <point x="612.0" y="1118.0"/>
      <point x="514.0" y="1118.0" type="curve" smooth="yes"/>
      <point x="192.0" y="1118.0"/>
      <point x="26.0" y="974.0"/>
      <point x="26.0" y="752.0" type="curve" smooth="yes"/>
      <point x="26.0" y="562.0"/>
      <point x="124.0" y="462.0"/>
      <point x="280.0" y="426.0" type="curve" smooth="yes"/>
      <point x="440.0" y="388.0" type="line" smooth="yes"/>
      <point x="472.0" y="380.0"/>
      <point x="486.0" y="368.0"/>
      <point x="486.0" y="342.0" type="curve" smooth="yes"/>
      <point x="486.0" y="306.0"/>
      <point x="460.0" y="280.0"/>
      <point x="364.0" y="280.0" type="curve" smooth="yes"/>
      <point x="254.0" y="280.0"/>
      <point x="150.0" y="298.0"/>
      <point x="64.0" y="328.0" type="curve"/>
      <point x="64.0" y="26.0" type="line"/>
      <point x="160.0" y="-8.0"/>
      <point x="262.0" y="-22.0"/>
    </contour>
    <contour>
      <point x="408.0" y="-460.0" type="curve" smooth="yes"/>
      <point x="604.0" y="-460.0"/>
      <point x="684.0" y="-382.0"/>
      <point x="684.0" y="-262.0" type="curve" smooth="yes"/>
      <point x="684.0" y="-138.0"/>
      <point x="588.0" y="-72.0"/>
      <point x="438.0" y="-72.0" type="curve"/>
      <point x="526.0" y="-122.0" type="line"/>
      <point x="526.0" y="20.0" type="line"/>
      <point x="340.0" y="20.0" type="line"/>
      <point x="340.0" y="-178.0" type="line"/>
      <point x="382.0" y="-178.0" type="line" smooth="yes"/>
      <point x="444.0" y="-178.0"/>
      <point x="478.0" y="-200.0"/>
      <point x="478.0" y="-246.0" type="curve" smooth="yes"/>
      <point x="478.0" y="-294.0"/>
      <point x="448.0" y="-310.0"/>
      <point x="386.0" y="-310.0" type="curve" smooth="yes"/>
      <point x="348.0" y="-310.0"/>
      <point x="290.0" y="-302.0"/>
      <point x="238.0" y="-284.0" type="curve"/>
      <point x="238.0" y="-434.0" type="line"/>
      <point x="290.0" y="-450.0"/>
      <point x="342.0" y="-460.0"/>
    </contour>
  </outline>
</glyph>
<glyph name="Tcedilla" format="2">
  <advance width="1186.0"/>
  <unicode hex="0162"/>
  <anchor x="594.0" y="0.0" name="_bottom"/>
  <anchor x="594.0" y="0.0" name="bottom"/>
  <anchor x="594.0" y="700.0" name="center"/>
  <anchor x="594.0" y="1520.0" name="top"/>
  <outline>
    <contour>
      <point x="396.0" y="0.0" type="line"/>
      <point x="790.0" y="0.0" type="line"/>
      <point x="790.0" y="1134.0" type="line"/>
      <point x="1182.0" y="1134.0" type="line"/>
      <point x="1182.0" y="1480.0" type="line"/>
      <point x="4.0" y="1480.0" type="line"/>
      <point x="4.0" y="1134.0" type="line"/>
      <point x="396.0" y="1134.0" type="line"/>
    </contour>
    <contour>
      <point x="542.0" y="-460.0" type="curve" smooth="yes"/>
      <point x="758.0" y="-460.0"/>
      <point x="838.0" y="-382.0"/>
      <point x="838.0" y="-262.0" type="curve" smooth="yes"/>
      <point x="838.0" y="-138.0"/>
      <point x="742.0" y="-72.0"/>
      <point x="572.0" y="-72.0" type="curve"/>
      <point x="660.0" y="-122.0" type="line"/>
      <point x="660.0" y="20.0" type="line"/>
      <point x="474.0" y="20.0" type="line"/>
      <point x="474.0" y="-178.0" type="line"/>
      <point x="516.0" y="-178.0" type="line" smooth="yes"/>
      <point x="592.0" y="-178.0"/>
      <point x="632.0" y="-200.0"/>
      <point x="632.0" y="-246.0" type="curve" smooth="yes"/>
      <point x="632.0" y="-294.0"/>
      <point x="596.0" y="-310.0"/>
      <point x="520.0" y="-310.0" type="curve" smooth="yes"/>
      <point x="474.0" y="-310.0"/>
      <point x="404.0" y="-302.0"/>
      <point x="352.0" y="-284.0" type="curve"/>
      <point x="352.0" y="-434.0" type="line"/>
      <point x="404.0" y="-450.0"/>
      <point x="468.0" y="-460.0"/>
    </contour>
  </outline>
</glyph>
<glyph name="Tcaron" format="2">
  <advance width="1186.0"/>
  <unicode hex="0164"/>
  <anchor x="594.0" y="1520.0" name="_top"/>
  <anchor x="594.0" y="0.0" name="bottom"/>
  <anchor x="594.0" y="700.0" name="center"/>
  <anchor x="594.0" y="1520.0" name="top"/>
  <outline>
    <contour>
      <point x="396.0" y="0.0" type="line"/>
      <point x="790.0" y="0.0" type="line"/>
      <point x="790.0" y="1134.0" type="line"/>
      <point x="1182.0" y="1134.0" type="line"/>
      <point x="1182.0" y="1480.0" type="line"/>
      <point x="4.0" y="1480.0" type="line"/>
      <point x="4.0" y="1134.0" type="line"/>
      <point x="396.0" y="1134.0" type="line"/>
    </contour>
    <contour>
      <point x="432.0" y="1586.0" type="line"/>
      <point x="756.0" y="1586.0" type="line"/>
      <point x="948.0" y="1902.0" type="line"/>
      <point x="692.0" y="1902.0" type="line"/>
      <point x="572.0" y="1684.0" type="line"/>
      <point x="616.0" y="1684.0" type="line"/>
      <point x="496.0" y="1902.0" type="line"/>
      <point x="240.0" y="1902.0" type="line"/>
    </contour>
  </outline>
</glyph>
<glyph name="Utilde" format="2">
  <advance width="1338.0"/>
  <unicode hex="0168"/>
  <anchor x="674.0" y="1520.0" name="_top"/>
  <anchor x="674.0" y="0.0" name="bottom"/>
  <anchor x="926.0" y="0.0" name="ogonek"/>
  <anchor x="674.0" y="1520.0" name="top"/>
  <anchor x="940.0" y="1480.0" name="topright"/>
  <outline>
    <contour>
      <point x="674.0" y="-20.0" type="curve" smooth="yes"/>
      <point x="1064.0" y="-20.0"/>
      <point x="1256.0" y="158.0"/>
      <point x="1256.0" y="604.0" type="curve" smooth="yes"/>
      <point x="1256.0" y="1480.0" type="line"/>
      <point x="872.0" y="1480.0" type="line"/>
      <point x="872.0" y="560.0" type="line" smooth="yes"/>
      <point x="872.0" y="370.0"/>
      <point x="798.0" y="308.0"/>
      <point x="674.0" y="308.0" type="curve" smooth="yes"/>
      <point x="550.0" y="308.0"/>
      <point x="474.0" y="370.0"/>
      <point x="474.0" y="560.0" type="curve" smooth="yes"/>
      <point x="474.0" y="1480.0" type="line"/>
      <point x="82.0" y="1480.0" type="line"/>
      <point x="82.0" y="604.0" type="line" smooth="yes"/>
      <point x="82.0" y="158.0"/>
      <point x="280.0" y="-20.0"/>
    </contour>
    <contour>
      <point x="844.0" y="1586.0" type="curve" smooth="yes"/>
      <point x="936.0" y="1586.0"/>
      <point x="996.0" y="1608.0"/>
      <point x="1050.0" y="1662.0" type="curve"/>
      <point x="1050.0" y="1896.0" type="line"/>
      <point x="988.0" y="1846.0"/>
      <point x="932.0" y="1820.0"/>
      <point x="848.0" y="1820.0" type="curve" smooth="yes"/>
      <point x="734.0" y="1820.0"/>
      <point x="642.0" y="1902.0"/>
      <point x="504.0" y="1902.0" type="curve" smooth="yes"/>
      <point x="412.0" y="1902.0"/>
      <point x="352.0" y="1878.0"/>
      <point x="298.0" y="1824.0" type="curve"/>
      <point x="298.0" y="1590.0" type="line"/>
      <point x="360.0" y="1640.0"/>
      <point x="416.0" y="1666.0"/>
      <point x="500.0" y="1666.0" type="curve" smooth="yes"/>
      <point x="614.0" y="1666.0"/>
      <point x="706.0" y="1586.0"/>
    </contour>
  </outline>
</glyph>
<glyph name="utilde" format="2">
  <advance width="1090.0"/>
  <unicode hex="0169"/>
  <anchor x="544.0" y="1200.0" name="_top"/>
  <anchor x="544.0" y="0.0" name="bottom"/>
  <anchor x="1012.0" y="0.0" name="ogonek"/>
  <anchor x="544.0" y="1200.0" name="top"/>
  <anchor x="700.0" y="1100.0" name="topright"/>
  <outline>
    <contour>
      <point x="388.0" y="-20.0" type="curve" smooth="yes"/>
      <point x="496.0" y="-20.0"/>
      <point x="580.0" y="24.0"/>
      <point x="648.0" y="112.0" type="curve"/>
      <point x="664.0" y="112.0" type="line"/>
      <point x="692.0" y="0.0" type="line"/>
      <point x="1012.0" y="0.0" type="line"/>
      <point x="1012.0" y="1100.0" type="line"/>
      <point x="626.0" y="1100.0" type="line"/>
      <point x="626.0" y="362.0" type="line"/>
      <point x="604.0" y="338.0"/>
      <point x="564.0" y="322.0"/>
      <point x="534.0" y="322.0" type="curve" smooth="yes"/>
      <point x="492.0" y="322.0"/>
      <point x="460.0" y="346.0"/>
      <point x="460.0" y="422.0" type="curve" smooth="yes"/>
      <point x="460.0" y="1100.0" type="line"/>
      <point x="74.0" y="1100.0" type="line"/>
      <point x="74.0" y="386.0" type="line" smooth="yes"/>
      <point x="74.0" y="88.0"/>
      <point x="212.0" y="-20.0"/>
    </contour>
    <contour>
      <point x="702.0" y="1250.0" type="curve" smooth="yes"/>
      <point x="786.0" y="1250.0"/>
      <point x="846.0" y="1274.0"/>
      <point x="900.0" y="1332.0" type="curve"/>
      <point x="900.0" y="1582.0" type="line"/>
      <point x="838.0" y="1520.0"/>
      <point x="782.0" y="1492.0"/>
      <point x="706.0" y="1492.0" type="curve" smooth="yes"/>
      <point x="604.0" y="1492.0"/>
      <point x="512.0" y="1588.0"/>
      <point x="386.0" y="1588.0" type="curve" smooth="yes"/>
      <point x="302.0" y="1588.0"/>
      <point x="242.0" y="1564.0"/>
      <point x="188.0" y="1506.0" type="curve"/>
      <point x="188.0" y="1256.0" type="line"/>
      <point x="250.0" y="1318.0"/>
      <point x="306.0" y="1346.0"/>
      <point x="382.0" y="1346.0" type="curve" smooth="yes"/>
      <point x="484.0" y="1346.0"/>
      <point x="576.0" y="1250.0"/>
    </contour>
  </outline>
</glyph>
<glyph name="Uhungarumlaut" format="2">
  <advance width="1338.0"/>
  <unicode hex="0170"/>
  <anchor x="674.0" y="1520.0" name="_top"/>
  <anchor x="674.0" y="0.0" name="bottom"/>
  <anchor x="926.0" y="0.0" name="ogonek"/>
  <anchor x="674.0" y="1520.0" name="top"/>
  <anchor x="940.0" y="1480.0" name="topright"/>
  <outline>
    <contour>
      <point x="674.0" y="-20.0" type="curve" smooth="yes"/>
      <point x="1064.0" y="-20.0"/>
      <point x="1256.0" y="158.0"/>
      <point x="1256.0" y="604.0" type="curve" smooth="yes"/>
      <point x="1256.0" y="1480.0" type="line"/>
      <point x="872.0" y="1480.0" type="line"/>
      <point x="872.0" y="560.0" type="line" smooth="yes"/>
      <point x="872.0" y="370.0"/>
      <point x="798.0" y="308.0"/>
      <point x="674.0" y="308.0" type="curve" smooth="yes"/>
      <point x="550.0" y="308.0"/>
      <point x="474.0" y="370.0"/>
      <point x="474.0" y="560.0" type="curve" smooth="yes"/>
      <point x="474.0" y="1480.0" type="line"/>
      <point x="82.0" y="1480.0" type="line"/>
      <point x="82.0" y="604.0" type="line" smooth="yes"/>
      <point x="82.0" y="158.0"/>
      <point x="280.0" y="-20.0"/>
    </contour>
    <contour>
      <point x="742.0" y="1586.0" type="line"/>
      <point x="1038.0" y="1586.0" type="line"/>
      <point x="1174.0" y="1902.0" type="line"/>
      <point x="862.0" y="1902.0" type="line"/>
    </contour>
    <contour>
      <point x="310.0" y="1586.0" type="line"/>
      <point x="606.0" y="1586.0" type="line"/>
      <point x="742.0" y="1902.0" type="line"/>
      <point x="430.0" y="1902.0" type="line"/>
    </contour>
  </outline>
</glyph>
<glyph name="uogonek" format="2">
  <advance width="1090.0"/>
  <unicode hex="0173"/>
  <anchor x="1012.0" y="0.0" name="_ogonek"/>
  <anchor x="544.0" y="0.0" name="bottom"/>
  <anchor x="1012.0" y="0.0" name="ogonek"/>
  <anchor x="544.0" y="1200.0" name="top"/>
  <anchor x="700.0" y="1100.0" name="topright"/>
  <outline>
    <contour>
      <point x="388.0" y="-20.0" type="curve" smooth="yes"/>
      <point x="496.0" y="-20.0"/>
      <point x="580.0" y="24.0"/>
      <point x="648.0" y="112.0" type="curve"/>
      <point x="664.0" y="112.0" type="line"/>
      <point x="692.0" y="0.0" type="line"/>
      <point x="1012.0" y="0.0" type="line"/>
      <point x="1012.0" y="1100.0" type="line"/>
      <point x="626.0" y="1100.0" type="line"/>
      <point x="626.0" y="362.0" type="line"/>
      <point x="604.0" y="338.0"/>
      <point x="564.0" y="322.0"/>
      <point x="534.0" y="322.0" type="curve" smooth="yes"/>
      <point x="492.0" y="322.0"/>
      <point x="460.0" y="346.0"/>
      <point x="460.0" y="422.0" type="curve" smooth="yes"/>
      <point x="460.0" y="1100.0" type="line"/>
      <point x="74.0" y="1100.0" type="line"/>
      <point x="74.0" y="386.0" type="line" smooth="yes"/>
      <point x="74.0" y="88.0"/>
      <point x="212.0" y="-20.0"/>
    </contour>
    <contour>
      <point x="842.0" y="-460.0" type="curve" smooth="yes"/>
      <point x="916.0" y="-460.0"/>
      <point x="966.0" y="-446.0"/>
      <point x="1012.0" y="-430.0" type="curve"/>
      <point x="1012.0" y="-280.0" type="line"/>
      <point x="964.0" y="-298.0"/>
      <point x="926.0" y="-306.0"/>
      <point x="894.0" y="-306.0" type="curve" smooth="yes"/>
      <point x="822.0" y="-306.0"/>
      <point x="786.0" y="-272.0"/>
      <point x="786.0" y="-216.0" type="curve" smooth="yes"/>
      <point x="786.0" y="-144.0"/>
      <point x="824.0" y="-72.0"/>
      <point x="1012.0" y="0.0" type="curve"/>
      <point x="900.0" y="86.0" type="line"/>
      <point x="646.0" y="-8.0"/>
      <point x="570.0" y="-104.0"/>
      <point x="570.0" y="-238.0" type="curve" smooth="yes"/>
      <point x="570.0" y="-374.0"/>
      <point x="662.0" y="-460.0"/>
    </contour>
  </outline>
</glyph>
<glyph name="ycircumflex" format="2">
  <advance width="1052.0"/>
  <unicode hex="0177"/>
  <anchor x="526.0" y="1200.0" name="_top"/>
  <anchor x="954.0" y="0.0" name="bottom"/>
  <anchor x="526.0" y="1200.0" name="top"/>
  <outline>
    <contour>
      <point x="284.0" y="-440.0" type="line"/>
      <point x="660.0" y="-440.0" type="line"/>
      <point x="1062.0" y="1100.0" type="line"/>
      <point x="682.0" y="1100.0" type="line"/>
      <point x="520.0" y="318.0" type="line"/>
      <point x="400.0" y="0.0" type="line"/>
    </contour>
    <contour>
      <point x="276.0" y="0.0" type="line"/>
      <point x="614.0" y="0.0" type="line"/>
      <point x="386.0" y="1100.0" type="line"/>
      <point x="-10.0" y="1100.0" type="line"/>
    </contour>
    <contour>
      <point x="172.0" y="1220.0" type="line"/>
      <point x="428.0" y="1220.0" type="line"/>
      <point x="548.0" y="1492.0" type="line"/>
      <point x="504.0" y="1492.0" type="line"/>
      <point x="624.0" y="1220.0" type="line"/>
      <point x="880.0" y="1220.0" type="line"/>
      <point x="688.0" y="1616.0" type="line"/>
      <point x="364.0" y="1616.0" type="line"/>
    </contour>
  </outline>
</glyph>
<glyph name="Zcaron" format="2">
  <advance width="1112.0"/>
  <unicode hex="017D"/>
  <anchor x="558.0" y="1520.0" name="_top"/>
  <anchor x="550.0" y="0.0" name="bottom"/>
  <anchor x="558.0" y="1520.0" name="top"/>
  <outline>
    <contour>
      <point x="32.0" y="0.0" type="line"/>
      <point x="1080.0" y="0.0" type="line"/>
      <point x="1080.0" y="346.0" type="line"/>
      <point x="502.0" y="346.0" type="line"/>
      <point x="502.0" y="280.0" type="line"/>
      <point x="1070.0" y="1260.0" type="line"/>
      <point x="1070.0" y="1480.0" type="line"/>
      <point x="42.0" y="1480.0" type="line"/>
      <point x="42.0" y="1134.0" type="line"/>
      <point x="600.0" y="1134.0" type="line"/>
      <point x="600.0" y="1200.0" type="line"/>
      <point x="32.0" y="220.0" type="line"/>
    </contour>
    <contour>
      <point x="396.0" y="1586.0" type="line"/>
      <point x="720.0" y="1586.0" type="line"/>
      <point x="912.0" y="1902.0" type="line"/>
      <point x="656.0" y="1902.0" type="line"/>
      <point x="536.0" y="1684.0" type="line"/>
      <point x="580.0" y="1684.0" type="line"/>
      <point x="460.0" y="1902.0" type="line"/>
      <point x="204.0" y="1902.0" type="line"/>
    </contour>
  </outline>
</glyph>
<glyph name="Schwa" format="2">
  <advance width="1370.0"/>
  <unicode hex="018F"/>
  <anchor x="694.0" y="0.0" name="bottom"/>
  <anchor x="694.0" y="1480.0" name="top"/>
  <outline>
    <contour>
      <point x="688.0" y="-20.0" type="curve" smooth="yes"/>
      <point x="1042.0" y="-20.0"/>
      <point x="1316.0" y="218.0"/>
      <point x="1316.0" y="720.0" type="curve" smooth="yes"/>
      <point x="1316.0" y="1250.0"/>
      <point x="1054.0" y="1500.0"/>
      <point x="532.0" y="1500.0" type="curve" smooth="yes"/>
      <point x="408.0" y="1500.0"/>
      <point x="256.0" y="1486.0"/>
      <point x="136.0" y="1458.0" type="curve"/>
      <point x="136.0" y="1136.0" type="line"/>
      <point x="244.0" y="1164.0"/>
      <point x="378.0" y="1180.0"/>
      <point x="492.0" y="1180.0" type="curve" smooth="yes"/>
      <point x="802.0" y="1180.0"/>
      <point x="926.0" y="1072.0"/>
      <point x="926.0" y="712.0" type="curve" smooth="yes"/>
      <point x="926.0" y="386.0"/>
      <point x="856.0" y="296.0"/>
      <point x="690.0" y="296.0" type="curve" smooth="yes"/>
      <point x="512.0" y="296.0"/>
      <point x="448.0" y="398.0"/>
      <point x="448.0" y="712.0" type="curve"/>
      <point x="292.0" y="564.0" type="line"/>
      <point x="1064.0" y="564.0" type="line"/>
      <point x="1064.0" y="858.0" type="line"/>
      <point x="44.0" y="858.0" type="line"/>
      <point x="44.0" y="720.0" type="line" smooth="yes"/>
      <point x="44.0" y="198.0"/>
      <point x="322.0" y="-20.0"/>
    </contour>
  </outline>
</glyph>
<glyph name="florin" format="2">
  <advance width="740.0"/>
  <unicode hex="0192"/>
  <outline>
    <contour>
      <point x="22.0" y="-460.0" type="curve" smooth="yes"/>
      <point x="362.0" y="-460.0"/>
      <point x="528.0" y="-278.0"/>
      <point x="528.0" y="34.0" type="curve" smooth="yes"/>
      <point x="528.0" y="1168.0" type="line" smooth="yes"/>
      <point x="528.0" y="1276.0"/>
      <point x="578.0" y="1326.0"/>
      <point x="716.0" y="1326.0" type="curve" smooth="yes"/>
      <point x="742.0" y="1326.0"/>
      <point x="768.0" y="1324.0"/>
      <point x="800.0" y="1320.0" type="curve"/>
      <point x="800.0" y="1624.0" type="line"/>
      <point x="756.0" y="1632.0"/>
      <point x="702.0" y="1636.0"/>
      <point x="654.0" y="1636.0" type="curve" smooth="yes"/>
      <point x="314.0" y="1636.0"/>
      <point x="148.0" y="1454.0"/>
      <point x="148.0" y="1142.0" type="curve" smooth="yes"/>
      <point x="148.0" y="8.0" type="line" smooth="yes"/>
      <point x="148.0" y="-100.0"/>
      <point x="98.0" y="-150.0"/>
      <point x="-40.0" y="-150.0" type="curve" smooth="yes"/>
      <point x="-66.0" y="-150.0"/>
      <point x="-92.0" y="-148.0"/>
      <point x="-124.0" y="-144.0" type="curve"/>
      <point x="-124.0" y="-448.0" type="line"/>
      <point x="-80.0" y="-456.0"/>
      <point x="-26.0" y="-460.0"/>
    </contour>
    <contour>
      <point x="8.0" y="800.0" type="line"/>
      <point x="758.0" y="800.0" type="line"/>
      <point x="758.0" y="1100.0" type="line"/>
      <point x="8.0" y="1100.0" type="line"/>
    </contour>
  </outline>
</glyph>
<glyph name="ohorn" format="2">
  <advance width="1068.0"/>
  <unicode hex="01A1"/>
  <anchor x="534.0" y="0.0" name="bottom"/>
  <anchor x="534.0" y="550.0" name="center"/>
  <anchor x="706.0" y="0.0" name="ogonek"/>
  <anchor x="514.0" y="1200.0" name="top"/>
  <outline>
    <contour>
      <point x="534.0" y="-22.0" type="curve" smooth="yes"/>
      <point x="850.0" y="-22.0"/>
      <point x="1028.0" y="158.0"/>
      <point x="1028.0" y="546.0" type="curve" smooth="yes"/>
      <point x="1028.0" y="776.0"/>
      <point x="962.0" y="938.0"/>
      <point x="838.0" y="1026.0" type="curve"/>
      <point x="742.0" y="932.0" type="line"/>
      <point x="934.0" y="932.0"/>
      <point x="1074.0" y="1012.0"/>
      <point x="1074.0" y="1236.0" type="curve" smooth="yes"/>
      <point x="1074.0" y="1292.0"/>
      <point x="1070.0" y="1346.0"/>
      <point x="1054.0" y="1396.0" type="curve"/>
      <point x="808.0" y="1396.0" type="line"/>
      <point x="820.0" y="1344.0"/>
      <point x="824.0" y="1298.0"/>
      <point x="824.0" y="1260.0" type="curve" smooth="yes"/>
      <point x="824.0" y="1146.0"/>
      <point x="772.0" y="1108.0"/>
      <point x="678.0" y="1108.0" type="curve" smooth="yes"/>
      <point x="650.0" y="1108.0"/>
      <point x="590.0" y="1118.0"/>
      <point x="534.0" y="1118.0" type="curve" smooth="yes"/>
      <point x="218.0" y="1118.0"/>
      <point x="40.0" y="936.0"/>
      <point x="40.0" y="542.0" type="curve" smooth="yes"/>
      <point x="40.0" y="158.0"/>
      <point x="218.0" y="-22.0"/>
    </contour>
    <contour>
      <point x="534.0" y="262.0" type="curve" smooth="yes"/>
      <point x="466.0" y="262.0"/>
      <point x="434.0" y="302.0"/>
      <point x="434.0" y="546.0" type="curve" smooth="yes"/>
      <point x="434.0" y="790.0"/>
      <point x="470.0" y="834.0"/>
      <point x="534.0" y="834.0" type="curve" smooth="yes"/>
      <point x="598.0" y="834.0"/>
      <point x="634.0" y="790.0"/>
      <point x="634.0" y="542.0" type="curve" smooth="yes"/>
      <point x="634.0" y="302.0"/>
      <point x="602.0" y="262.0"/>
    </contour>
  </outline>
</glyph>
<glyph name="Dzcaron" format="2">
  <advance width="2208.0"/>
  <unicode hex="01C5"/>
  <anchor x="1778.0" y="1200.0" name="_top"/>
  <anchor x="638.0" y="0.0" name="bottom"/>
  <anchor x="652.0" y="740.0" name="center"/>
  <anchor x="88.0" y="762.0" name="stroke"/>
  <anchor x="618.0" y="1520.0" name="top"/>
  <outline>
    <contour>
      <point x="472.0" y="-20.0" type="curve" smooth="yes"/>
      <point x="1014.0" y="-20.0"/>
      <point x="1278.0" y="212.0"/>
      <point x="1278.0" y="740.0" type="curve" smooth="yes"/>
      <point x="1278.0" y="1264.0"/>
      <point x="1028.0" y="1500.0"/>
      <point x="526.0" y="1500.0" type="curve" smooth="yes"/>
      <point x="370.0" y="1500.0"/>
      <point x="224.0" y="1480.0"/>
      <point x="88.0" y="1450.0" type="curve"/>
      <point x="88.0" y="2.0" type="line"/>
      <point x="208.0" y="-12.0"/>
      <point x="348.0" y="-20.0"/>
    </contour>
    <contour>
      <point x="580.0" y="306.0" type="curve" smooth="yes"/>
      <point x="558.0" y="306.0"/>
      <point x="524.0" y="306.0"/>
      <point x="480.0" y="308.0" type="curve"/>
      <point x="480.0" y="1166.0" type="line"/>
      <point x="504.0" y="1172.0"/>
      <point x="546.0" y="1176.0"/>
      <point x="574.0" y="1176.0" type="curve" smooth="yes"/>
      <point x="756.0" y="1176.0"/>
      <point x="874.0" y="1078.0"/>
      <point x="874.0" y="740.0" type="curve" smooth="yes"/>
      <point x="874.0" y="404.0"/>
      <point x="764.0" y="306.0"/>
    </contour>
    <contour>
      <point x="1374.0" y="0.0" type="line"/>
      <point x="2182.0" y="0.0" type="line"/>
      <point x="2182.0" y="300.0" type="line"/>
      <point x="1754.0" y="300.0" type="line"/>
      <point x="1754.0" y="228.0" type="line"/>
      <point x="2172.0" y="860.0" type="line"/>
      <point x="2172.0" y="1100.0" type="line"/>
      <point x="1384.0" y="1100.0" type="line"/>
      <point x="1384.0" y="800.0" type="line"/>
      <point x="1792.0" y="800.0" type="line"/>
      <point x="1792.0" y="872.0" type="line"/>
      <point x="1374.0" y="240.0" type="line"/>
    </contour>
    <contour>
      <point x="1616.0" y="1266.0" type="line"/>
      <point x="1940.0" y="1266.0" type="line"/>
      <point x="2132.0" y="1582.0" type="line"/>
      <point x="1876.0" y="1582.0" type="line"/>
      <point x="1756.0" y="1364.0" type="line"/>
      <point x="1800.0" y="1364.0" type="line"/>
      <point x="1680.0" y="1582.0" type="line"/>
      <point x="1424.0" y="1582.0" type="line"/>
    </contour>
  </outline>
</glyph>
<glyph name="NJ" format="2">
  <advance width="1948.0"/>
  <unicode hex="01CA"/>
  <anchor x="690.0" y="0.0" name="bottom"/>
  <anchor x="690.0" y="1520.0" name="top"/>
  <outline>
    <contour>
      <point x="88.0" y="0.0" type="line"/>
      <point x="454.0" y="0.0" type="line"/>
      <point x="454.0" y="930.0" type="line"/>
      <point x="396.0" y="930.0" type="line"/>
      <point x="902.0" y="0.0" type="line"/>
      <point x="1292.0" y="0.0" type="line"/>
      <point x="1292.0" y="1480.0" type="line"/>
      <point x="926.0" y="1480.0" type="line"/>
      <point x="926.0" y="550.0" type="line"/>
      <point x="984.0" y="550.0" type="line"/>
      <point x="478.0" y="1480.0" type="line"/>
      <point x="88.0" y="1480.0" type="line"/>
    </contour>
    <contour>
      <point x="1586.0" y="-350.0" type="line"/>
      <point x="1790.0" y="-132.0"/>
      <point x="1860.0" y="72.0"/>
      <point x="1860.0" y="322.0" type="curve" smooth="yes"/>
      <point x="1860.0" y="1480.0" type="line"/>
      <point x="1468.0" y="1480.0" type="line"/>
      <point x="1468.0" y="306.0" type="line" smooth="yes"/>
      <point x="1468.0" y="100.0"/>
      <point x="1438.0" y="-26.0"/>
      <point x="1330.0" y="-182.0" type="curve"/>
    </contour>
  </outline>
</glyph>
<glyph name="Gcaron" format="2">
  <advance width="1280.0"/>
  <unicode hex="01E6"/>
  <anchor x="750.0" y="1520.0" name="_top"/>
  <anchor x="750.0" y="0.0" name="bottom"/>
  <anchor x="750.0" y="1520.0" name="top"/>
  <outline>
    <contour>
      <point x="850.0" y="-20.0" type="curve" smooth="yes"/>
      <point x="956.0" y="-20.0"/>
      <point x="1082.0" y="-8.0"/>
      <point x="1196.0" y="10.0" type="curve"/>
      <point x="1196.0" y="720.0" type="line"/>
      <point x="834.0" y="720.0" type="line"/>
      <point x="834.0" y="224.0" type="line"/>
      <point x="952.0" y="318.0" type="line"/>
      <point x="912.0" y="312.0"/>
      <point x="856.0" y="308.0"/>
      <point x="806.0" y="308.0" type="curve" smooth="yes"/>
      <point x="588.0" y="308.0"/>
      <point x="464.0" y="420.0"/>
      <point x="464.0" y="734.0" type="curve" smooth="yes"/>
      <point x="464.0" y="1060.0"/>
      <point x="590.0" y="1170.0"/>
      <point x="896.0" y="1170.0" type="curve" smooth="yes"/>
      <point x="988.0" y="1170.0"/>
      <point x="1068.0" y="1156.0"/>
      <point x="1158.0" y="1136.0" type="curve"/>
      <point x="1158.0" y="1464.0" type="line"/>
      <point x="1064.0" y="1488.0"/>
      <point x="974.0" y="1500.0"/>
      <point x="850.0" y="1500.0" type="curve" smooth="yes"/>
      <point x="336.0" y="1500.0"/>
      <point x="54.0" y="1254.0"/>
      <point x="54.0" y="740.0" type="curve" smooth="yes"/>
      <point x="54.0" y="218.0"/>
      <point x="324.0" y="-20.0"/>
    </contour>
    <contour>
      <point x="588.0" y="1586.0" type="line"/>
      <point x="912.0" y="1586.0" type="line"/>
      <point x="1104.0" y="1902.0" type="line"/>
      <point x="848.0" y="1902.0" type="line"/>
      <point x="728.0" y="1684.0" type="line"/>
      <point x="772.0" y="1684.0" type="line"/>
      <point x="652.0" y="1902.0" type="line"/>
      <point x="396.0" y="1902.0" type="line"/>
    </contour>
  </outline>
</glyph>
<glyph name="aringacute" format="2">
  <advance width="1008.0"/>
  <unicode hex="01FB"/>
  <anchor x="502.0" y="1200.0" name="_top"/>
  <anchor x="502.0" y="0.0" name="bottom"/>
  <anchor x="934.0" y="0.0" name="ogonek"/>
  <anchor x="502.0" y="1200.0" name="top"/>
  <outline>
    <contour>
      <point x="344.0" y="-22.0" type="curve" smooth="yes"/>
      <point x="446.0" y="-22.0"/>
      <point x="532.0" y="14.0"/>
      <point x="578.0" y="112.0" type="curve"/>
      <point x="594.0" y="112.0" type="line"/>
      <point x="622.0" y="0.0" type="line"/>
      <point x="934.0" y="0.0" type="line"/>
      <point x="934.0" y="646.0" type="line" smooth="yes"/>
      <point x="934.0" y="996.0"/>
      <point x="790.0" y="1118.0"/>
      <point x="452.0" y="1118.0" type="curve" smooth="yes"/>
      <point x="344.0" y="1118.0"/>
      <point x="216.0" y="1104.0"/>
      <point x="116.0" y="1080.0" type="curve"/>
      <point x="116.0" y="776.0" type="line"/>
      <point x="200.0" y="800.0"/>
      <point x="296.0" y="812.0"/>
      <point x="374.0" y="812.0" type="curve" smooth="yes"/>
      <point x="520.0" y="812.0"/>
      <point x="560.0" y="772.0"/>
      <point x="560.0" y="664.0" type="curve" smooth="yes"/>
      <point x="560.0" y="284.0" type="line"/>
      <point x="536.0" y="266.0"/>
      <point x="510.0" y="260.0"/>
      <point x="486.0" y="260.0" type="curve" smooth="yes"/>
      <point x="438.0" y="260.0"/>
      <point x="404.0" y="290.0"/>
      <point x="404.0" y="350.0" type="curve" smooth="yes"/>
      <point x="404.0" y="414.0"/>
      <point x="442.0" y="452.0"/>
      <point x="514.0" y="456.0" type="curve" smooth="yes"/>
      <point x="650.0" y="464.0" type="line"/>
      <point x="598.0" y="678.0" type="line"/>
      <point x="466.0" y="670.0" type="line" smooth="yes"/>
      <point x="152.0" y="650.0"/>
      <point x="30.0" y="524.0"/>
      <point x="30.0" y="306.0" type="curve" smooth="yes"/>
      <point x="30.0" y="108.0"/>
      <point x="158.0" y="-22.0"/>
    </contour>
    <contour>
      <point x="502.0" y="1214.0" type="curve" smooth="yes"/>
      <point x="634.0" y="1214.0"/>
      <point x="730.0" y="1306.0"/>
      <point x="730.0" y="1434.0" type="curve" smooth="yes"/>
      <point x="730.0" y="1562.0"/>
      <point x="634.0" y="1654.0"/>
      <point x="502.0" y="1654.0" type="curve" smooth="yes"/>
      <point x="370.0" y="1654.0"/>
      <point x="274.0" y="1562.0"/>
      <point x="274.0" y="1434.0" type="curve" smooth="yes"/>
      <point x="274.0" y="1306.0"/>
      <point x="370.0" y="1214.0"/>
    </contour>
    <contour>
      <point x="502.0" y="1352.0" type="curve" smooth="yes"/>
      <point x="456.0" y="1352.0"/>
      <point x="424.0" y="1384.0"/>
      <point x="424.0" y="1434.0" type="curve" smooth="yes"/>
      <point x="424.0" y="1484.0"/>
      <point x="456.0" y="1516.0"/>
      <point x="502.0" y="1516.0" type="curve" smooth="yes"/>
      <point x="548.0" y="1516.0"/>
      <point x="580.0" y="1484.0"/>
      <point x="580.0" y="1434.0" type="curve" smooth="yes"/>
      <point x="580.0" y="1384.0"/>
      <point x="548.0" y="1352.0"/>
    </contour>
    <contour>
      <point x="664.0" y="1488.0" type="line"/>
      <point x="916.0" y="1780.0" type="line"/>
      <point x="620.0" y="1780.0" type="line"/>
      <point x="484.0" y="1602.0" type="line"/>
    </contour>
  </outline>
</glyph>
<glyph name="Idblgrave" format="2">
  <advance width="568.0"/>
  <unicode hex="0208"/>
  <anchor x="284.0" y="1520.0" name="_top"/>
  <anchor x="284.0" y="0.0" name="bottom"/>
  <anchor x="480.0" y="0.0" name="ogonek"/>
  <anchor x="284.0" y="1520.0" name="top"/>
  <outline>
    <contour>
      <point x="88.0" y="0.0" type="line"/>
      <point x="480.0" y="0.0" type="line"/>
      <point x="480.0" y="1480.0" type="line"/>
      <point x="88.0" y="1480.0" type="line"/>
    </contour>
    <contour>
      <point x="352.0" y="1586.0" type="line"/>
      <point x="648.0" y="1586.0" type="line"/>
      <point x="528.0" y="1902.0" type="line"/>
      <point x="216.0" y="1902.0" type="line"/>
    </contour>
    <contour>
      <point x="-80.0" y="1586.0" type="line"/>
      <point x="216.0" y="1586.0" type="line"/>
      <point x="96.0" y="1902.0" type="line"/>
      <point x="-216.0" y="1902.0" type="line"/>
    </contour>
  </outline>
</glyph>
<glyph name="rinvertedbreve" format="2">
  <advance width="778.0"/>
  <unicode hex="0213"/>
  <anchor x="424.0" y="1200.0" name="_top"/>
  <anchor x="272.0" y="0.0" name="bottom"/>
  <anchor x="424.0" y="1200.0" name="top"/>
  <outline>
    <contour>
      <point x="78.0" y="0.0" type="line"/>
      <point x="464.0" y="0.0" type="line"/>
      <point x="464.0" y="690.0" type="line"/>
      <point x="500.0" y="732.0"/>
      <point x="578.0" y="762.0"/>
      <point x="660.0" y="762.0" type="curve" smooth="yes"/>
      <point x="692.0" y="762.0"/>
      <point x="734.0" y="760.0"/>
      <point x="768.0" y="752.0" type="curve"/>
      <point x="768.0" y="1110.0" type="line"/>
      <point x="746.0" y="1114.0"/>
      <point x="714.0" y="1118.0"/>
      <point x="686.0" y="1118.0" type="curve" smooth="yes"/>
      <point x="574.0" y="1118.0"/>
      <point x="484.0" y="1074.0"/>
      <point x="440.0" y="946.0" type="curve"/>
      <point x="424.0" y="946.0" type="line"/>
      <point x="394.0" y="1100.0" type="line"/>
      <point x="78.0" y="1100.0" type="line"/>
    </contour>
    <contour>
      <point x="70.0" y="1248.0" type="curve"/>
      <point x="302.0" y="1248.0" type="line"/>
      <point x="308.0" y="1376.0"/>
      <point x="346.0" y="1422.0"/>
      <point x="424.0" y="1422.0" type="curve" smooth="yes"/>
      <point x="492.0" y="1422.0"/>
      <point x="540.0" y="1376.0"/>
      <point x="546.0" y="1248.0" type="curve"/>
      <point x="778.0" y="1248.0" type="line"/>
      <point x="764.0" y="1506.0"/>
      <point x="620.0" y="1612.0"/>
      <point x="424.0" y="1612.0" type="curve" smooth="yes"/>
      <point x="218.0" y="1612.0"/>
      <point x="84.0" y="1506.0"/>
    </contour>
  </outline>
</glyph>
<glyph name="Scommaaccent" format="2">
  <advance width="1050.0"/>
  <unicode hex="0218"/>
  <anchor x="536.0" y="0.0" name="_bottom"/>
  <anchor x="536.0" y="0.0" name="bottom"/>
  <anchor x="536.0" y="1520.0" name="top"/>
  <outline>
    <contour>
      <point x="446.0" y="-20.0" type="curve" smooth="yes"/>
      <point x="816.0" y="-20.0"/>
      <point x="1030.0" y="166.0"/>
      <point x="1030.0" y="456.0" type="curve" smooth="yes"/>
      <point x="1030.0" y="698.0"/>
      <point x="888.0" y="826.0"/>
      <point x="670.0" y="898.0" type="curve" smooth="yes"/>
      <point x="550.0" y="938.0" type="line" smooth="yes"/>
      <point x="438.0" y="976.0"/>
      <point x="414.0" y="1004.0"/>
      <point x="414.0" y="1054.0" type="curve" smooth="yes"/>
      <point x="414.0" y="1116.0"/>
      <point x="466.0" y="1172.0"/>
      <point x="666.0" y="1172.0" type="curve" smooth="yes"/>
      <point x="764.0" y="1172.0"/>
      <point x="868.0" y="1158.0"/>
      <point x="948.0" y="1134.0" type="curve"/>
      <point x="948.0" y="1460.0" type="line"/>
      <point x="864.0" y="1484.0"/>
      <point x="750.0" y="1500.0"/>
      <point x="624.0" y="1500.0" type="curve" smooth="yes"/>
      <point x="218.0" y="1500.0"/>
      <point x="20.0" y="1318.0"/>
      <point x="20.0" y="1024.0" type="curve" smooth="yes"/>
      <point x="20.0" y="790.0"/>
      <point x="166.0" y="654.0"/>
      <point x="356.0" y="590.0" type="curve" smooth="yes"/>
      <point x="476.0" y="550.0" type="line" smooth="yes"/>
      <point x="606.0" y="506.0"/>
      <point x="636.0" y="474.0"/>
      <point x="636.0" y="420.0" type="curve" smooth="yes"/>
      <point x="636.0" y="354.0"/>
      <point x="582.0" y="308.0"/>
      <point x="436.0" y="308.0" type="curve" smooth="yes"/>
      <point x="308.0" y="308.0"/>
      <point x="176.0" y="334.0"/>
      <point x="66.0" y="368.0" type="curve"/>
      <point x="66.0" y="42.0" type="line"/>
      <point x="174.0" y="2.0"/>
      <point x="326.0" y="-20.0"/>
    </contour>
    <contour>
      <point x="412.0" y="-516.0" type="curve"/>
      <point x="656.0" y="-516.0" type="line"/>
      <point x="704.0" y="-456.0"/>
      <point x="744.0" y="-358.0"/>
      <point x="744.0" y="-278.0" type="curve" smooth="yes"/>
      <point x="744.0" y="-168.0"/>
      <point x="682.0" y="-104.0"/>
      <point x="536.0" y="-104.0" type="curve" smooth="yes"/>
      <point x="390.0" y="-104.0"/>
      <point x="328.0" y="-154.0"/>
      <point x="328.0" y="-236.0" type="curve" smooth="yes"/>
      <point x="328.0" y="-318.0"/>
      <point x="390.0" y="-370.0"/>
      <point x="536.0" y="-370.0" type="curve" smooth="yes"/>
      <point x="564.0" y="-370.0" type="line"/>
      <point x="482.0" y="-292.0" type="line"/>
      <point x="482.0" y="-366.0"/>
      <point x="464.0" y="-420.0"/>
    </contour>
  </outline>
</glyph>
<glyph name="tcommaaccent" format="2">
  <advance width="788.0"/>
  <unicode hex="021B"/>
  <anchor x="448.0" y="0.0" name="_bottom"/>
  <anchor x="448.0" y="0.0" name="bottom"/>
  <anchor x="628.0" y="1616.0" name="caronalt"/>
  <anchor x="140.0" y="564.0" name="stroke"/>
  <anchor x="334.0" y="1520.0" name="top"/>
  <anchor x="728.0" y="1616.0" name="topright"/>
  <outline>
    <contour>
      <point x="556.0" y="-20.0" type="curve" smooth="yes"/>
      <point x="626.0" y="-20.0"/>
      <point x="702.0" y="-10.0"/>
      <point x="756.0" y="4.0" type="curve"/>
      <point x="756.0" y="316.0" type="line"/>
      <point x="718.0" y="312.0"/>
      <point x="690.0" y="308.0"/>
      <point x="662.0" y="308.0" type="curve" smooth="yes"/>
      <point x="558.0" y="308.0"/>
      <point x="526.0" y="346.0"/>
      <point x="526.0" y="470.0" type="curve" smooth="yes"/>
      <point x="526.0" y="1480.0" type="line"/>
      <point x="212.0" y="1480.0" type="line"/>
      <point x="140.0" y="1100.0" type="line"/>
      <point x="140.0" y="426.0" type="line" smooth="yes"/>
      <point x="140.0" y="108.0"/>
      <point x="290.0" y="-20.0"/>
    </contour>
    <contour>
      <point x="0.0" y="800.0" type="line"/>
      <point x="756.0" y="800.0" type="line"/>
      <point x="756.0" y="1100.0" type="line"/>
      <point x="0.0" y="1100.0" type="line"/>
    </contour>
    <contour>
      <point x="324.0" y="-516.0" type="curve"/>
      <point x="568.0" y="-516.0" type="line"/>
      <point x="616.0" y="-456.0"/>
      <point x="656.0" y="-358.0"/>
      <point x="656.0" y="-278.0" type="curve" smooth="yes"/>
      <point x="656.0" y="-168.0"/>
      <point x="594.0" y="-104.0"/>
      <point x="448.0" y="-104.0" type="curve" smooth="yes"/>
      <point x="302.0" y="-104.0"/>
      <point x="240.0" y="-154.0"/>
      <point x="240.0" y="-236.0" type="curve" smooth="yes"/>
      <point x="240.0" y="-318.0"/>
      <point x="302.0" y="-370.0"/>
      <point x="448.0" y="-370.0" type="curve" smooth="yes"/>
      <point x="476.0" y="-370.0" type="line"/>
      <point x="394.0" y="-292.0" type="line"/>
      <point x="394.0" y="-366.0"/>
      <point x="376.0" y="-420.0"/>
    </contour>
  </outline>
</glyph>
<glyph name="ymacron" format="2">
  <advance width="1052.0"/>
  <unicode hex="0233"/>
  <anchor x="526.0" y="1200.0" name="_top"/>
  <anchor x="954.0" y="0.0" name="bottom"/>
  <anchor x="526.0" y="1200.0" name="top"/>
  <outline>
    <contour>
      <point x="284.0" y="-440.0" type="line"/>
      <point x="660.0" y="-440.0" type="line"/>
      <point x="1062.0" y="1100.0" type="line"/>
      <point x="682.0" y="1100.0" type="line"/>
      <point x="520.0" y="318.0" type="line"/>
      <point x="400.0" y="0.0" type="line"/>
    </contour>
    <contour>
      <point x="276.0" y="0.0" type="line"/>
      <point x="614.0" y="0.0" type="line"/>
      <point x="386.0" y="1100.0" type="line"/>
      <point x="-10.0" y="1100.0" type="line"/>
    </contour>
    <contour>
      <point x="170.0" y="1296.0" type="line"/>
      <point x="882.0" y="1296.0" type="line"/>
      <point x="882.0" y="1542.0" type="line"/>
      <point x="170.0" y="1542.0" type="line"/>
    </contour>
  </outline>
</glyph>
<glyph name="apostrophemod" format="2">
  <advance width="1200.0"/>
  <unicode hex="02BC"/>
  <anchor x="600.0" y="1200.0" name="_apostrophe"/>
  <outline>
    <contour>
      <point x="684.0" y="1212.0" type="curve"/>
      <point x="928.0" y="1212.0" type="line"/>
      <point x="976.0" y="1272.0"/>
      <point x="1016.0" y="1370.0"/>
      <point x="1016.0" y="1450.0" type="curve" smooth="yes"/>
      <point x="1016.0" y="1560.0"/>
      <point x="954.0" y="1624.0"/>
      <point x="808.0" y="1624.0" type="curve" smooth="yes"/>
      <point x="662.0" y="1624.0"/>
      <point x="600.0" y="1574.0"/>
      <point x="600.0" y="1492.0" type="curve" smooth="yes"/>
      <point x="600.0" y="1410.0"/>
      <point x="662.0" y="1358.0"/>
      <point x="808.0" y="1358.0" type="curve" smooth="yes"/>
      <point x="836.0" y="1358.0" type="line"/>
      <point x="754.0" y="1436.0" type="line"/>
      <point x="754.0" y="1362.0"/>
      <point x="736.0" y="1308.0"/>
    </contour>
  </outline>
</glyph>
<glyph name="ringhalfright" format="2">
  <advance width="1200.0"/>
  <unicode hex="02BE"/>
  <anchor x="600.0" y="1200.0" name="_top"/>
  <anchor x="600.0" y="1700.0" name="top"/>
  <outline>
    <contour>
      <point x="600.0" y="1214.0" type="line"/>
      <point x="732.0" y="1214.0"/>
      <point x="828.0" y="1306.0"/>
      <point x="828.0" y="1434.0" type="curve" smooth="yes"/>
      <point x="828.0" y="1562.0"/>
      <point x="732.0" y="1654.0"/>
      <point x="600.0" y="1654.0" type="curve"/>
      <point x="600.0" y="1516.0" type="line"/>
      <point x="646.0" y="1516.0"/>
      <point x="678.0" y="1484.0"/>
      <point x="678.0" y="1434.0" type="curve" smooth="yes"/>
      <point x="678.0" y="1384.0"/>
      <point x="646.0" y="1352.0"/>
      <point x="600.0" y="1352.0" type="curve"/>
    </contour>
  </outline>
</glyph>
<glyph name="circumflexcomb" format="2">
  <unicode hex="0302"/>
  <anchor x="600.0" y="1200.0" name="_top"/>
  <anchor x="600.0" y="1676.0" name="top"/>
  <outline>
    <contour>
      <point x="246.0" y="1220.0" type="line"/>
      <point x="502.0" y="1220.0" type="line"/>
      <point x="622.0" y="1492.0" type="line"/>
      <point x="578.0" y="1492.0" type="line"/>
      <point x="698.0" y="1220.0" type="line"/>
      <point x="954.0" y="1220.0" type="line"/>
      <point x="762.0" y="1616.0" type="line"/>
      <point x="438.0" y="1616.0" type="line"/>
    </contour>
  </outline>
</glyph>
<glyph name="macroncomb" format="2">
  <unicode hex="0304"/>
  <anchor x="600.0" y="1200.0" name="_top"/>
  <anchor x="600.0" y="1616.0" name="top"/>
  <outline>
    <contour>
      <point x="244.0" y="1296.0" type="line"/>
      <point x="956.0" y="1296.0" type="line"/>
      <point x="956.0" y="1542.0" type="line"/>
      <point x="244.0" y="1542.0" type="line"/>
    </contour>
  </outline>
</glyph>
<glyph name="brevecomb" format="2">
  <unicode hex="0306"/>
  <anchor x="600.0" y="1200.0" name="_top"/>
  <anchor x="600.0" y="1616.0" name="top"/>
  <outline>
    <contour>
      <point x="600.0" y="1232.0" type="curve" smooth="yes"/>
      <point x="800.0" y="1232.0"/>
      <point x="940.0" y="1338.0"/>
      <point x="954.0" y="1596.0" type="curve"/>
      <point x="722.0" y="1596.0" type="line"/>
      <point x="716.0" y="1474.0"/>
      <point x="670.0" y="1428.0"/>
      <point x="600.0" y="1428.0" type="curve" smooth="yes"/>
      <point x="530.0" y="1428.0"/>
      <point x="484.0" y="1474.0"/>
      <point x="478.0" y="1596.0" type="curve"/>
      <point x="246.0" y="1596.0" type="line"/>
      <point x="260.0" y="1338.0"/>
      <point x="400.0" y="1232.0"/>
    </contour>
  </outline>
</glyph>
<glyph name="dotaccentcomb" format="2">
  <unicode hex="0307"/>
  <anchor x="600.0" y="1200.0" name="_top"/>
  <anchor x="600.0" y="1656.0" name="top"/>
  <outline>
    <contour>
      <point x="600.0" y="1210.0" type="curve" smooth="yes"/>
      <point x="762.0" y="1210.0"/>
      <point x="834.0" y="1288.0"/>
      <point x="834.0" y="1418.0" type="curve" smooth="yes"/>
      <point x="834.0" y="1548.0"/>
      <point x="762.0" y="1626.0"/>
      <point x="600.0" y="1626.0" type="curve" smooth="yes"/>
      <point x="438.0" y="1626.0"/>
      <point x="366.0" y="1548.0"/>
      <point x="366.0" y="1418.0" type="curve" smooth="yes"/>
      <point x="366.0" y="1288.0"/>
      <point x="438.0" y="1210.0"/>
    </contour>
  </outline>
</glyph>
<glyph name="dieresiscomb" format="2">
  <unicode hex="0308"/>
  <anchor x="600.0" y="1200.0" name="_top"/>
  <anchor x="600.0" y="1616.0" name="top"/>
  <outline>
    <contour>
      <point x="842.0" y="1220.0" type="curve" smooth="yes"/>
      <point x="966.0" y="1220.0"/>
      <point x="1046.0" y="1294.0"/>
      <point x="1046.0" y="1418.0" type="curve" smooth="yes"/>
      <point x="1046.0" y="1542.0"/>
      <point x="966.0" y="1616.0"/>
      <point x="842.0" y="1616.0" type="curve" smooth="yes"/>
      <point x="718.0" y="1616.0"/>
      <point x="638.0" y="1542.0"/>
      <point x="638.0" y="1418.0" type="curve" smooth="yes"/>
      <point x="638.0" y="1294.0"/>
      <point x="718.0" y="1220.0"/>
    </contour>
    <contour>
      <point x="358.0" y="1220.0" type="curve" smooth="yes"/>
      <point x="482.0" y="1220.0"/>
      <point x="562.0" y="1294.0"/>
      <point x="562.0" y="1418.0" type="curve" smooth="yes"/>
      <point x="562.0" y="1542.0"/>
      <point x="482.0" y="1616.0"/>
      <point x="358.0" y="1616.0" type="curve" smooth="yes"/>
      <point x="234.0" y="1616.0"/>
      <point x="154.0" y="1542.0"/>
      <point x="154.0" y="1418.0" type="curve" smooth="yes"/>
      <point x="154.0" y="1294.0"/>
      <point x="234.0" y="1220.0"/>
    </contour>
  </outline>
</glyph>
<glyph name="hookabovecomb" format="2">
  <unicode hex="0309"/>
  <anchor x="600.0" y="1200.0" name="_top"/>
  <anchor x="600.0" y="1656.0" name="top"/>
  <outline>
    <contour>
      <point x="506.0" y="1220.0" type="curve"/>
      <point x="694.0" y="1220.0" type="line"/>
      <point x="708.0" y="1328.0"/>
      <point x="840.0" y="1322.0"/>
      <point x="840.0" y="1466.0" type="curve" smooth="yes"/>
      <point x="840.0" y="1578.0"/>
      <point x="758.0" y="1628.0"/>
      <point x="594.0" y="1628.0" type="curve" smooth="yes"/>
      <point x="532.0" y="1628.0"/>
      <point x="456.0" y="1618.0"/>
      <point x="404.0" y="1602.0" type="curve"/>
      <point x="404.0" y="1454.0" type="line"/>
      <point x="456.0" y="1470.0"/>
      <point x="504.0" y="1478.0"/>
      <point x="560.0" y="1478.0" type="curve" smooth="yes"/>
      <point x="604.0" y="1478.0"/>
      <point x="634.0" y="1466.0"/>
      <point x="634.0" y="1438.0" type="curve" smooth="yes"/>
      <point x="634.0" y="1380.0"/>
      <point x="514.0" y="1368.0"/>
    </contour>
  </outline>
</glyph>
<glyph name="hungarumlautcomb" format="2">
  <unicode hex="030B"/>
  <anchor x="600.0" y="1200.0" name="_top"/>
  <anchor x="600.0" y="1656.0" name="top"/>
  <outline>
    <contour>
      <point x="668.0" y="1220.0" type="line"/>
      <point x="964.0" y="1220.0" type="line"/>
      <point x="1120.0" y="1616.0" type="line"/>
      <point x="808.0" y="1616.0" type="line"/>
    </contour>
    <contour>
      <point x="236.0" y="1220.0" type="line"/>
      <point x="532.0" y="1220.0" type="line"/>
      <point x="688.0" y="1616.0" type="line"/>
      <point x="376.0" y="1616.0" type="line"/>
    </contour>
  </outline>
</glyph>
<glyph name="breveinvertedcomb" format="2">
  <unicode hex="0311"/>
  <anchor x="600.0" y="1200.0" name="_top"/>
  <anchor x="600.0" y="1656.0" name="top"/>
  <outline>
    <contour>
      <point x="246.0" y="1248.0" type="curve"/>
      <point x="478.0" y="1248.0" type="line"/>
      <point x="484.0" y="1376.0"/>
      <point x="522.0" y="1422.0"/>
      <point x="600.0" y="1422.0" type="curve" smooth="yes"/>
      <point x="668.0" y="1422.0"/>
      <point x="716.0" y="1376.0"/>
      <point x="722.0" y="1248.0" type="curve"/>
      <point x="954.0" y="1248.0" type="line"/>
      <point x="940.0" y="1506.0"/>
      <point x="796.0" y="1612.0"/>
      <point x="600.0" y="1612.0" type="curve" smooth="yes"/>
      <point x="394.0" y="1612.0"/>
      <point x="260.0" y="1506.0"/>
    </contour>
  </outline>
</glyph>
<glyph name="ogonekcomb" format="2">
  <unicode hex="0328"/>
  <anchor x="516.0" y="0.0" name="_ogonek"/>
  <outline>
    <contour>
      <point x="346.0" y="-460.0" type="curve" smooth="yes"/>
      <point x="420.0" y="-460.0"/>
      <point x="470.0" y="-446.0"/>
      <point x="516.0" y="-430.0" type="curve"/>
      <point x="516.0" y="-280.0" type="line"/>
      <point x="468.0" y="-298.0"/>
      <point x="430.0" y="-306.0"/>
      <point x="398.0" y="-306.0" type="curve" smooth="yes"/>
      <point x="326.0" y="-306.0"/>
      <point x="290.0" y="-272.0"/>
      <point x="290.0" y="-216.0" type="curve" smooth="yes"/>
      <point x="290.0" y="-144.0"/>
      <point x="328.0" y="-72.0"/>
      <point x="516.0" y="0.0" type="curve"/>
      <point x="404.0" y="86.0" type="line"/>
      <point x="150.0" y="-8.0"/>
      <point x="74.0" y="-104.0"/>
      <point x="74.0" y="-238.0" type="curve" smooth="yes"/>
      <point x="74.0" y="-374.0"/>
      <point x="166.0" y="-460.0"/>
    </contour>
  </outline>
</glyph>
<glyph name="Emacrongrave" format="2">
  <advance width="1128.0"/>
  <unicode hex="1E14"/>
  <anchor x="596.0" y="0.0" name="bottom"/>
  <anchor x="990.0" y="0.0" name="ogonek"/>
  <anchor x="596.0" y="1520.0" name="top"/>
  <anchor x="36.0" y="1480.0" name="topleft"/>
  <outline>
    <contour>
      <point x="88.0" y="0.0" type="line"/>
      <point x="1070.0" y="0.0" type="line"/>
      <point x="1070.0" y="334.0" type="line"/>
      <point x="474.0" y="334.0" type="line"/>
      <point x="474.0" y="1146.0" type="line"/>
      <point x="1060.0" y="1146.0" type="line"/>
      <point x="1060.0" y="1480.0" type="line"/>
      <point x="88.0" y="1480.0" type="line"/>
    </contour>
    <contour>
      <point x="366.0" y="588.0" type="line"/>
      <point x="956.0" y="588.0" type="line"/>
      <point x="956.0" y="922.0" type="line"/>
      <point x="366.0" y="922.0" type="line"/>
    </contour>
    <contour>
      <point x="406.0" y="1986.0" type="line"/>
      <point x="786.0" y="1986.0" type="line"/>
      <point x="624.0" y="2218.0" type="line"/>
      <point x="188.0" y="2218.0" type="line"/>
    </contour>
    <component base="macroncomb.case" xOffset="-4.0"/>
  </outline>
</glyph>
<glyph name="Hdotbelow" format="2">
  <advance width="1366.0"/>
  <unicode hex="1E24"/>
  <anchor x="684.0" y="0.0" name="_bottom"/>
  <anchor x="684.0" y="0.0" name="bottom"/>
  <anchor x="684.0" y="1200.0" name="center"/>
  <anchor x="684.0" y="1520.0" name="top"/>
  <anchor x="28.0" y="1480.0" name="topleft"/>
  <outline>
    <contour>
      <point x="88.0" y="0.0" type="line"/>
      <point x="480.0" y="0.0" type="line"/>
      <point x="480.0" y="576.0" type="line"/>
      <point x="886.0" y="576.0" type="line"/>
      <point x="886.0" y="0.0" type="line"/>
      <point x="1278.0" y="0.0" type="line"/>
      <point x="1278.0" y="1480.0" type="line"/>
      <point x="886.0" y="1480.0" type="line"/>
      <point x="886.0" y="934.0" type="line"/>
      <point x="480.0" y="934.0" type="line"/>
      <point x="480.0" y="1480.0" type="line"/>
      <point x="88.0" y="1480.0" type="line"/>
    </contour>
    <contour>
      <point x="684.0" y="-464.0" type="curve" smooth="yes"/>
      <point x="830.0" y="-464.0"/>
      <point x="920.0" y="-406.0"/>
      <point x="920.0" y="-284.0" type="curve" smooth="yes"/>
      <point x="920.0" y="-162.0"/>
      <point x="830.0" y="-104.0"/>
      <point x="684.0" y="-104.0" type="curve" smooth="yes"/>
      <point x="538.0" y="-104.0"/>
      <point x="448.0" y="-162.0"/>
      <point x="448.0" y="-284.0" type="curve" smooth="yes"/>
      <point x="448.0" y="-406.0"/>
      <point x="538.0" y="-464.0"/>
    </contour>
  </outline>
</glyph>
<glyph name="Ldotbelow" format="2">
  <advance width="1036.0"/>
  <unicode hex="1E36"/>
  <anchor x="560.0" y="0.0" name="_bottom"/>
  <anchor x="560.0" y="0.0" name="bottom"/>
  <anchor x="676.0" y="1616.0" name="caronalt"/>
  <anchor x="796.0" y="894.0" name="periodcentered"/>
  <anchor x="292.0" y="854.0" name="slash"/>
  <anchor x="292.0" y="1520.0" name="top"/>
  <outline>
    <contour>
      <point x="88.0" y="0.0" type="line"/>
      <point x="1032.0" y="0.0" type="line"/>
      <point x="1032.0" y="346.0" type="line"/>
      <point x="480.0" y="346.0" type="line"/>
      <point x="480.0" y="1480.0" type="line"/>
      <point x="88.0" y="1480.0" type="line"/>
    </contour>
    <contour>
      <point x="560.0" y="-464.0" type="curve" smooth="yes"/>
      <point x="706.0" y="-464.0"/>
      <point x="796.0" y="-406.0"/>
      <point x="796.0" y="-284.0" type="curve" smooth="yes"/>
      <point x="796.0" y="-162.0"/>
      <point x="706.0" y="-104.0"/>
      <point x="560.0" y="-104.0" type="curve" smooth="yes"/>
      <point x="414.0" y="-104.0"/>
      <point x="324.0" y="-162.0"/>
      <point x="324.0" y="-284.0" type="curve" smooth="yes"/>
      <point x="324.0" y="-406.0"/>
      <point x="414.0" y="-464.0"/>
    </contour>
  </outline>
</glyph>
<glyph name="zdotbelow" format="2">
  <advance width="876.0"/>
  <unicode hex="1E93"/>
  <anchor x="446.0" y="0.0" name="_bottom"/>
  <anchor x="446.0" y="0.0" name="bottom"/>
  <anchor x="446.0" y="1200.0" name="top"/>
  <outline>
    <contour>
      <point x="42.0" y="0.0" type="line"/>
      <point x="850.0" y="0.0" type="line"/>
      <point x="850.0" y="300.0" type="line"/>
      <point x="422.0" y="300.0" type="line"/>
      <point x="422.0" y="228.0" type="line"/>
      <point x="840.0" y="860.0" type="line"/>
      <point x="840.0" y="1100.0" type="line"/>
      <point x="52.0" y="1100.0" type="line"/>
      <point x="52.0" y="800.0" type="line"/>
      <point x="460.0" y="800.0" type="line"/>
      <point x="460.0" y="872.0" type="line"/>
      <point x="42.0" y="240.0" type="line"/>
    </contour>
    <contour>
      <point x="446.0" y="-500.0" type="curve" smooth="yes"/>
      <point x="570.0" y="-500.0"/>
      <point x="650.0" y="-426.0"/>
      <point x="650.0" y="-302.0" type="curve" smooth="yes"/>
      <point x="650.0" y="-178.0"/>
      <point x="570.0" y="-104.0"/>
      <point x="446.0" y="-104.0" type="curve" smooth="yes"/>
      <point x="322.0" y="-104.0"/>
      <point x="242.0" y="-178.0"/>
      <point x="242.0" y="-302.0" type="curve" smooth="yes"/>
      <point x="242.0" y="-426.0"/>
      <point x="322.0" y="-500.0"/>
    </contour>
  </outline>
</glyph>
<glyph name="Ahookabove" format="2">
  <advance width="1300.0"/>
  <unicode hex="1EA2"/>
  <anchor x="650.0" y="1520.0" name="_top"/>
  <anchor x="650.0" y="0.0" name="bottom"/>
  <anchor x="1308.0" y="0.0" name="ogonek"/>
  <anchor x="650.0" y="1520.0" name="top"/>
  <outline>
    <contour>
      <point x="-8.0" y="0.0" type="line"/>
      <point x="372.0" y="0.0" type="line"/>
      <point x="664.0" y="1306.0" type="line"/>
      <point x="628.0" y="1306.0" type="line"/>
      <point x="924.0" y="0.0" type="line"/>
      <point x="1308.0" y="0.0" type="line"/>
      <point x="944.0" y="1480.0" type="line"/>
      <point x="356.0" y="1480.0" type="line"/>
    </contour>
    <contour>
      <point x="246.0" y="344.0" type="line"/>
      <point x="1052.0" y="344.0" type="line"/>
      <point x="980.0" y="674.0" type="line"/>
      <point x="318.0" y="674.0" type="line"/>
    </contour>
    <contour>
      <point x="556.0" y="1586.0" type="curve"/>
      <point x="744.0" y="1586.0" type="line"/>
      <point x="758.0" y="1678.0"/>
      <point x="910.0" y="1680.0"/>
      <point x="910.0" y="1784.0" type="curve" smooth="yes"/>
      <point x="910.0" y="1888.0"/>
      <point x="828.0" y="1930.0"/>
      <point x="644.0" y="1930.0" type="curve" smooth="yes"/>
      <point x="582.0" y="1930.0"/>
      <point x="486.0" y="1922.0"/>
      <point x="434.0" y="1908.0" type="curve"/>
      <point x="434.0" y="1764.0" type="line"/>
      <point x="486.0" y="1776.0"/>
      <point x="554.0" y="1784.0"/>
      <point x="610.0" y="1784.0" type="curve" smooth="yes"/>
      <point x="674.0" y="1784.0"/>
      <point x="704.0" y="1774.0"/>
      <point x="704.0" y="1750.0" type="curve" smooth="yes"/>
      <point x="704.0" y="1716.0"/>
      <point x="564.0" y="1710.0"/>
    </contour>
  </outline>
</glyph>
<glyph name="acircumflextilde" format="2">
  <advance width="1008.0"/>
  <unicode hex="1EAB"/>
  <anchor x="502.0" y="1200.0" name="_top"/>
  <anchor x="502.0" y="0.0" name="bottom"/>
  <anchor x="934.0" y="0.0" name="ogonek"/>
  <anchor x="502.0" y="1200.0" name="top"/>
  <outline>
    <contour>
      <point x="344.0" y="-22.0" type="curve" smooth="yes"/>
      <point x="446.0" y="-22.0"/>
      <point x="532.0" y="14.0"/>
      <point x="578.0" y="112.0" type="curve"/>
      <point x="594.0" y="112.0" type="line"/>
      <point x="622.0" y="0.0" type="line"/>
      <point x="934.0" y="0.0" type="line"/>
      <point x="934.0" y="646.0" type="line" smooth="yes"/>
      <point x="934.0" y="996.0"/>
      <point x="790.0" y="1118.0"/>
      <point x="452.0" y="1118.0" type="curve" smooth="yes"/>
      <point x="344.0" y="1118.0"/>
      <point x="216.0" y="1104.0"/>
      <point x="116.0" y="1080.0" type="curve"/>
      <point x="116.0" y="776.0" type="line"/>
      <point x="200.0" y="800.0"/>
      <point x="296.0" y="812.0"/>
      <point x="374.0" y="812.0" type="curve" smooth="yes"/>
      <point x="520.0" y="812.0"/>
      <point x="560.0" y="772.0"/>
      <point x="560.0" y="664.0" type="curve" smooth="yes"/>
      <point x="560.0" y="284.0" type="line"/>
      <point x="536.0" y="266.0"/>
      <point x="510.0" y="260.0"/>
      <point x="486.0" y="260.0" type="curve" smooth="yes"/>
      <point x="438.0" y="260.0"/>
      <point x="404.0" y="290.0"/>
      <point x="404.0" y="350.0" type="curve" smooth="yes"/>
      <point x="404.0" y="414.0"/>
      <point x="442.0" y="452.0"/>
      <point x="514.0" y="456.0" type="curve" smooth="yes"/>
      <point x="650.0" y="464.0" type="line"/>
      <point x="598.0" y="678.0" type="line"/>
      <point x="466.0" y="670.0" type="line" smooth="yes"/>
      <point x="152.0" y="650.0"/>
      <point x="30.0" y="524.0"/>
      <point x="30.0" y="306.0" type="curve" smooth="yes"/>
      <point x="30.0" y="108.0"/>
      <point x="158.0" y="-22.0"/>
    </contour>
    <contour>
      <point x="148.0" y="1222.0" type="line"/>
      <point x="404.0" y="1222.0" type="line"/>
      <point x="524.0" y="1440.0" type="line"/>
      <point x="480.0" y="1440.0" type="line"/>
      <point x="600.0" y="1222.0" type="line"/>
      <point x="856.0" y="1222.0" type="line"/>
      <point x="664.0" y="1538.0" type="line"/>
      <point x="340.0" y="1538.0" type="line"/>
    </contour>
    <contour>
      <point x="672.0" y="1596.0" type="curve" smooth="yes"/>
      <point x="764.0" y="1596.0"/>
      <point x="824.0" y="1615.0"/>
      <point x="878.0" y="1661.0" type="curve"/>
      <point x="878.0" y="1863.0" type="line"/>
      <point x="816.0" y="1820.0"/>
      <point x="760.0" y="1797.0"/>
      <point x="676.0" y="1797.0" type="curve" smooth="yes"/>
      <point x="562.0" y="1797.0"/>
      <point x="470.0" y="1868.0"/>
      <point x="332.0" y="1868.0" type="curve" smooth="yes"/>
      <point x="240.0" y="1868.0"/>
      <point x="180.0" y="1847.0"/>
      <point x="126.0" y="1801.0" type="curve"/>
      <point x="126.0" y="1599.0" type="line"/>
      <point x="188.0" y="1642.0"/>
      <point x="244.0" y="1665.0"/>
      <point x="328.0" y="1665.0" type="curve" smooth="yes"/>
      <point x="442.0" y="1665.0"/>
      <point x="534.0" y="1596.0"/>
    </contour>
  </outline>
</glyph>
<glyph name="etilde" format="2">
  <advance width="998.0"/>
  <unicode hex="1EBD"/>
  <anchor x="514.0" y="1200.0" name="_top"/>
  <anchor x="514.0" y="0.0" name="bottom"/>
  <anchor x="906.0" y="0.0" name="ogonek"/>
  <anchor x="514.0" y="1200.0" name="top"/>
  <outline>
    <contour>
      <point x="614.0" y="-22.0" type="curve" smooth="yes"/>
      <point x="718.0" y="-22.0"/>
      <point x="806.0" y="-10.0"/>
      <point x="914.0" y="14.0" type="curve"/>
      <point x="914.0" y="318.0" type="line"/>
      <point x="830.0" y="298.0"/>
      <point x="746.0" y="284.0"/>
      <point x="664.0" y="284.0" type="curve" smooth="yes"/>
      <point x="476.0" y="284.0"/>
      <point x="430.0" y="328.0"/>
      <point x="430.0" y="472.0" type="curve" smooth="yes"/>
      <point x="430.0" y="646.0" type="line" smooth="yes"/>
      <point x="430.0" y="830.0"/>
      <point x="456.0" y="870.0"/>
      <point x="522.0" y="870.0" type="curve" smooth="yes"/>
      <point x="586.0" y="870.0"/>
      <point x="610.0" y="830.0"/>
      <point x="610.0" y="646.0" type="curve"/>
      <point x="664.0" y="662.0" type="line"/>
      <point x="324.0" y="662.0" type="line"/>
      <point x="324.0" y="434.0" type="line"/>
      <point x="968.0" y="434.0" type="line"/>
      <point x="968.0" y="544.0" type="line" smooth="yes"/>
      <point x="968.0" y="910.0"/>
      <point x="820.0" y="1118.0"/>
      <point x="524.0" y="1118.0" type="curve" smooth="yes"/>
      <point x="208.0" y="1118.0"/>
      <point x="40.0" y="910.0"/>
      <point x="40.0" y="556.0" type="curve" smooth="yes"/>
      <point x="40.0" y="150.0"/>
      <point x="206.0" y="-22.0"/>
    </contour>
    <contour>
      <point x="672.0" y="1250.0" type="curve" smooth="yes"/>
      <point x="756.0" y="1250.0"/>
      <point x="816.0" y="1274.0"/>
      <point x="870.0" y="1332.0" type="curve"/>
      <point x="870.0" y="1582.0" type="line"/>
      <point x="808.0" y="1520.0"/>
      <point x="752.0" y="1492.0"/>
      <point x="676.0" y="1492.0" type="curve" smooth="yes"/>
      <point x="574.0" y="1492.0"/>
      <point x="482.0" y="1588.0"/>
      <point x="356.0" y="1588.0" type="curve" smooth="yes"/>
      <point x="272.0" y="1588.0"/>
      <point x="212.0" y="1564.0"/>
      <point x="158.0" y="1506.0" type="curve"/>
      <point x="158.0" y="1256.0" type="line"/>
      <point x="220.0" y="1318.0"/>
      <point x="276.0" y="1346.0"/>
      <point x="352.0" y="1346.0" type="curve" smooth="yes"/>
      <point x="454.0" y="1346.0"/>
      <point x="546.0" y="1250.0"/>
    </contour>
  </outline>
</glyph>
<glyph name="ohookabove" format="2">
  <advance width="1068.0"/>
  <unicode hex="1ECF"/>
  <anchor x="534.0" y="1200.0" name="_top"/>
  <anchor x="534.0" y="0.0" name="bottom"/>
  <anchor x="534.0" y="550.0" name="center"/>
  <anchor x="706.0" y="0.0" name="ogonek"/>
  <anchor x="534.0" y="1200.0" name="top"/>
  <anchor x="534.0" y="1100.0" name="topright"/>
  <outline>
    <contour>
      <point x="534.0" y="-22.0" type="curve" smooth="yes"/>
      <point x="850.0" y="-22.0"/>
      <point x="1028.0" y="158.0"/>
      <point x="1028.0" y="546.0" type="curve" smooth="yes"/>
      <point x="1028.0" y="926.0"/>
      <point x="850.0" y="1118.0"/>
      <point x="534.0" y="1118.0" type="curve" smooth="yes"/>
      <point x="218.0" y="1118.0"/>
      <point x="40.0" y="936.0"/>
      <point x="40.0" y="542.0" type="curve" smooth="yes"/>
      <point x="40.0" y="158.0"/>
      <point x="218.0" y="-22.0"/>
    </contour>
    <contour>
      <point x="534.0" y="262.0" type="curve" smooth="yes"/>
      <point x="466.0" y="262.0"/>
      <point x="434.0" y="302.0"/>
      <point x="434.0" y="546.0" type="curve" smooth="yes"/>
      <point x="434.0" y="790.0"/>
      <point x="470.0" y="834.0"/>
      <point x="534.0" y="834.0" type="curve" smooth="yes"/>
      <point x="598.0" y="834.0"/>
      <point x="634.0" y="790.0"/>
      <point x="634.0" y="542.0" type="curve" smooth="yes"/>
      <point x="634.0" y="302.0"/>
      <point x="602.0" y="262.0"/>
    </contour>
    <contour>
      <point x="440.0" y="1220.0" type="curve"/>
      <point x="628.0" y="1220.0" type="line"/>
      <point x="642.0" y="1328.0"/>
      <point x="774.0" y="1322.0"/>
      <point x="774.0" y="1466.0" type="curve" smooth="yes"/>
      <point x="774.0" y="1578.0"/>
      <point x="692.0" y="1628.0"/>
      <point x="528.0" y="1628.0" type="curve" smooth="yes"/>
      <point x="466.0" y="1628.0"/>
      <point x="390.0" y="1618.0"/>
      <point x="338.0" y="1602.0" type="curve"/>
      <point x="338.0" y="1454.0" type="line"/>
      <point x="390.0" y="1470.0"/>
      <point x="438.0" y="1478.0"/>
      <point x="494.0" y="1478.0" type="curve" smooth="yes"/>
      <point x="538.0" y="1478.0"/>
      <point x="568.0" y="1466.0"/>
      <point x="568.0" y="1438.0" type="curve" smooth="yes"/>
      <point x="568.0" y="1380.0"/>
      <point x="448.0" y="1368.0"/>
    </contour>
  </outline>
</glyph>
<glyph name="Ocircumflexhookabove" format="2">
  <advance width="1396.0"/>
  <unicode hex="1ED4"/>
  <anchor x="698.0" y="1520.0" name="_top"/>
  <anchor x="698.0" y="0.0" name="bottom"/>
  <anchor x="698.0" y="740.0" name="center"/>
  <anchor x="890.0" y="0.0" name="ogonek"/>
  <anchor x="698.0" y="1520.0" name="top"/>
  <anchor x="42.0" y="1480.0" name="topleft"/>
  <anchor x="882.0" y="1480.0" name="topright"/>
  <outline>
    <contour>
      <point x="698.0" y="-20.0" type="curve" smooth="yes"/>
      <point x="1078.0" y="-20.0"/>
      <point x="1342.0" y="204.0"/>
      <point x="1342.0" y="740.0" type="curve" smooth="yes"/>
      <point x="1342.0" y="1276.0"/>
      <point x="1078.0" y="1500.0"/>
      <point x="698.0" y="1500.0" type="curve" smooth="yes"/>
      <point x="318.0" y="1500.0"/>
      <point x="54.0" y="1276.0"/>
      <point x="54.0" y="740.0" type="curve" smooth="yes"/>
      <point x="54.0" y="204.0"/>
      <point x="318.0" y="-20.0"/>
    </contour>
    <contour>
      <point x="698.0" y="304.0" type="curve" smooth="yes"/>
      <point x="544.0" y="304.0"/>
      <point x="458.0" y="414.0"/>
      <point x="458.0" y="748.0" type="curve" smooth="yes"/>
      <point x="458.0" y="1066.0"/>
      <point x="544.0" y="1176.0"/>
      <point x="698.0" y="1176.0" type="curve" smooth="yes"/>
      <point x="852.0" y="1176.0"/>
      <point x="938.0" y="1066.0"/>
      <point x="938.0" y="732.0" type="curve" smooth="yes"/>
      <point x="938.0" y="414.0"/>
      <point x="852.0" y="304.0"/>
    </contour>
    <contour>
      <point x="344.0" y="1586.0" type="line"/>
      <point x="600.0" y="1586.0" type="line"/>
      <point x="720.0" y="1774.0" type="line"/>
      <point x="676.0" y="1774.0" type="line"/>
      <point x="796.0" y="1586.0" type="line"/>
      <point x="1052.0" y="1586.0" type="line"/>
      <point x="860.0" y="1858.0" type="line"/>
      <point x="536.0" y="1858.0" type="line"/>
    </contour>
    <contour>
      <point x="942.0" y="1828.0" type="curve"/>
      <point x="1130.0" y="1828.0" type="line"/>
      <point x="1144.0" y="1908.0"/>
      <point x="1296.0" y="1908.0"/>
      <point x="1296.0" y="1998.0" type="curve" smooth="yes"/>
      <point x="1296.0" y="2088.0"/>
      <point x="1214.0" y="2124.0"/>
      <point x="1030.0" y="2124.0" type="curve" smooth="yes"/>
      <point x="968.0" y="2124.0"/>
      <point x="872.0" y="2116.0"/>
      <point x="820.0" y="2104.0" type="curve"/>
      <point x="820.0" y="1982.0" type="line"/>
      <point x="872.0" y="1992.0"/>
      <point x="940.0" y="1998.0"/>
      <point x="996.0" y="1998.0" type="curve" smooth="yes"/>
      <point x="1060.0" y="1998.0"/>
      <point x="1090.0" y="1990.0"/>
      <point x="1090.0" y="1970.0" type="curve" smooth="yes"/>
      <point x="1090.0" y="1940.0"/>
      <point x="950.0" y="1934.0"/>
    </contour>
  </outline>
</glyph>
<glyph name="ocircumflexhookabove" format="2">
  <advance width="1068.0"/>
  <unicode hex="1ED5"/>
  <anchor x="534.0" y="1200.0" name="_top"/>
  <anchor x="534.0" y="0.0" name="bottom"/>
  <anchor x="534.0" y="550.0" name="center"/>
  <anchor x="706.0" y="0.0" name="ogonek"/>
  <anchor x="534.0" y="1200.0" name="top"/>
  <anchor x="534.0" y="1100.0" name="topright"/>
  <outline>
    <contour>
      <point x="534.0" y="-22.0" type="curve" smooth="yes"/>
      <point x="850.0" y="-22.0"/>
      <point x="1028.0" y="158.0"/>
      <point x="1028.0" y="546.0" type="curve" smooth="yes"/>
      <point x="1028.0" y="926.0"/>
      <point x="850.0" y="1118.0"/>
      <point x="534.0" y="1118.0" type="curve" smooth="yes"/>
      <point x="218.0" y="1118.0"/>
      <point x="40.0" y="936.0"/>
      <point x="40.0" y="542.0" type="curve" smooth="yes"/>
      <point x="40.0" y="158.0"/>
      <point x="218.0" y="-22.0"/>
    </contour>
    <contour>
      <point x="534.0" y="262.0" type="curve" smooth="yes"/>
      <point x="466.0" y="262.0"/>
      <point x="434.0" y="302.0"/>
      <point x="434.0" y="546.0" type="curve" smooth="yes"/>
      <point x="434.0" y="790.0"/>
      <point x="470.0" y="834.0"/>
      <point x="534.0" y="834.0" type="curve" smooth="yes"/>
      <point x="598.0" y="834.0"/>
      <point x="634.0" y="790.0"/>
      <point x="634.0" y="542.0" type="curve" smooth="yes"/>
      <point x="634.0" y="302.0"/>
      <point x="602.0" y="262.0"/>
    </contour>
    <contour>
      <point x="180.0" y="1220.0" type="line"/>
      <point x="436.0" y="1220.0" type="line"/>
      <point x="556.0" y="1492.0" type="line"/>
      <point x="512.0" y="1492.0" type="line"/>
      <point x="632.0" y="1220.0" type="line"/>
      <point x="888.0" y="1220.0" type="line"/>
      <point x="696.0" y="1616.0" type="line"/>
      <point x="372.0" y="1616.0" type="line"/>
    </contour>
    <contour>
      <point x="762.0" y="1598.0" type="curve"/>
      <point x="950.0" y="1598.0" type="line"/>
      <point x="964.0" y="1678.0"/>
      <point x="1116.0" y="1678.0"/>
      <point x="1116.0" y="1768.0" type="curve" smooth="yes"/>
      <point x="1116.0" y="1858.0"/>
      <point x="1034.0" y="1894.0"/>
      <point x="850.0" y="1894.0" type="curve" smooth="yes"/>
      <point x="788.0" y="1894.0"/>
      <point x="692.0" y="1886.0"/>
      <point x="640.0" y="1874.0" type="curve"/>
      <point x="640.0" y="1752.0" type="line"/>
      <point x="692.0" y="1762.0"/>
      <point x="760.0" y="1768.0"/>
      <point x="816.0" y="1768.0" type="curve" smooth="yes"/>
      <point x="880.0" y="1768.0"/>
      <point x="910.0" y="1760.0"/>
      <point x="910.0" y="1740.0" type="curve" smooth="yes"/>
      <point x="910.0" y="1710.0"/>
      <point x="770.0" y="1704.0"/>
    </contour>
  </outline>
</glyph>
<glyph name="Ohorntilde" format="2">
  <advance width="1396.0"/>
  <unicode hex="1EE0"/>
  <outline>
    <contour>
      <point x="698.0" y="-20.0" type="curve" smooth="yes"/>
      <point x="1084.0" y="-20.0"/>
      <point x="1342.0" y="204.0"/>
      <point x="1342.0" y="740.0" type="curve" smooth="yes"/>
      <point x="1342.0" y="1060.0"/>
      <point x="1248.0" y="1270.0"/>
      <point x="1090.0" y="1384.0" type="curve"/>
      <point x="1030.0" y="1304.0" type="line"/>
      <point x="1222.0" y="1304.0"/>
      <point x="1362.0" y="1384.0"/>
      <point x="1362.0" y="1612.0" type="curve" smooth="yes"/>
      <point x="1362.0" y="1672.0"/>
      <point x="1358.0" y="1726.0"/>
      <point x="1342.0" y="1776.0" type="curve"/>
      <point x="1076.0" y="1776.0" type="line"/>
      <point x="1088.0" y="1724.0"/>
      <point x="1092.0" y="1678.0"/>
      <point x="1092.0" y="1636.0" type="curve" smooth="yes"/>
      <point x="1092.0" y="1518.0"/>
      <point x="1040.0" y="1480.0"/>
      <point x="946.0" y="1480.0" type="curve" smooth="yes"/>
      <point x="862.0" y="1480.0"/>
      <point x="804.0" y="1500.0"/>
      <point x="698.0" y="1500.0" type="curve" smooth="yes"/>
      <point x="318.0" y="1500.0"/>
      <point x="54.0" y="1276.0"/>
      <point x="54.0" y="740.0" type="curve" smooth="yes"/>
      <point x="54.0" y="204.0"/>
      <point x="312.0" y="-20.0"/>
    </contour>
    <contour>
      <point x="698.0" y="304.0" type="curve" smooth="yes"/>
      <point x="544.0" y="304.0"/>
      <point x="458.0" y="414.0"/>
      <point x="458.0" y="748.0" type="curve" smooth="yes"/>
      <point x="458.0" y="1066.0"/>
      <point x="544.0" y="1176.0"/>
      <point x="698.0" y="1176.0" type="curve" smooth="yes"/>
      <point x="852.0" y="1176.0"/>
      <point x="938.0" y="1066.0"/>
      <point x="938.0" y="732.0" type="curve" smooth="yes"/>
      <point x="938.0" y="414.0"/>
      <point x="852.0" y="304.0"/>
    </contour>
    <contour>
      <point x="852.0" y="1586.0" type="curve" smooth="yes"/>
      <point x="934.0" y="1586.0"/>
      <point x="988.0" y="1608.0"/>
      <point x="1036.0" y="1662.0" type="curve"/>
      <point x="1036.0" y="1896.0" type="line"/>
      <point x="980.0" y="1846.0"/>
      <point x="930.0" y="1820.0"/>
      <point x="854.0" y="1820.0" type="curve" smooth="yes"/>
      <point x="752.0" y="1820.0"/>
      <point x="670.0" y="1902.0"/>
      <point x="546.0" y="1902.0" type="curve" smooth="yes"/>
      <point x="462.0" y="1902.0"/>
      <point x="408.0" y="1878.0"/>
      <point x="360.0" y="1824.0" type="curve"/>
      <point x="360.0" y="1590.0" type="line"/>
      <point x="416.0" y="1640.0"/>
      <point x="466.0" y="1666.0"/>
      <point x="542.0" y="1666.0" type="curve" smooth="yes"/>
      <point x="644.0" y="1666.0"/>
      <point x="726.0" y="1586.0"/>
    </contour>
  </outline>
</glyph>
<glyph name="ohorntilde" format="2">
  <advance width="1068.0"/>
  <unicode hex="1EE1"/>
  <outline>
    <contour>
      <point x="534.0" y="-22.0" type="curve" smooth="yes"/>
      <point x="850.0" y="-22.0"/>
      <point x="1028.0" y="158.0"/>
      <point x="1028.0" y="546.0" type="curve" smooth="yes"/>
      <point x="1028.0" y="776.0"/>
      <point x="962.0" y="938.0"/>
      <point x="838.0" y="1026.0" type="curve"/>
      <point x="742.0" y="932.0" type="line"/>
      <point x="934.0" y="932.0"/>
      <point x="1074.0" y="1012.0"/>
      <point x="1074.0" y="1236.0" type="curve" smooth="yes"/>
      <point x="1074.0" y="1292.0"/>
      <point x="1070.0" y="1346.0"/>
      <point x="1054.0" y="1396.0" type="curve"/>
      <point x="808.0" y="1396.0" type="line"/>
      <point x="820.0" y="1344.0"/>
      <point x="824.0" y="1298.0"/>
      <point x="824.0" y="1260.0" type="curve" smooth="yes"/>
      <point x="824.0" y="1146.0"/>
      <point x="772.0" y="1108.0"/>
      <point x="678.0" y="1108.0" type="curve" smooth="yes"/>
      <point x="650.0" y="1108.0"/>
      <point x="590.0" y="1118.0"/>
      <point x="534.0" y="1118.0" type="curve" smooth="yes"/>
      <point x="218.0" y="1118.0"/>
      <point x="40.0" y="936.0"/>
      <point x="40.0" y="542.0" type="curve" smooth="yes"/>
      <point x="40.0" y="158.0"/>
      <point x="218.0" y="-22.0"/>
    </contour>
    <contour>
      <point x="534.0" y="262.0" type="curve" smooth="yes"/>
      <point x="466.0" y="262.0"/>
      <point x="434.0" y="302.0"/>
      <point x="434.0" y="546.0" type="curve" smooth="yes"/>
      <point x="434.0" y="790.0"/>
      <point x="470.0" y="834.0"/>
      <point x="534.0" y="834.0" type="curve" smooth="yes"/>
      <point x="598.0" y="834.0"/>
      <point x="634.0" y="790.0"/>
      <point x="634.0" y="542.0" type="curve" smooth="yes"/>
      <point x="634.0" y="302.0"/>
      <point x="602.0" y="262.0"/>
    </contour>
    <contour>
      <point x="612.0" y="1250.0" type="curve" smooth="yes"/>
      <point x="676.0" y="1250.0"/>
      <point x="736.0" y="1274.0"/>
      <point x="790.0" y="1332.0" type="curve"/>
      <point x="790.0" y="1582.0" type="line"/>
      <point x="728.0" y="1520.0"/>
      <point x="672.0" y="1492.0"/>
      <point x="616.0" y="1492.0" type="curve" smooth="yes"/>
      <point x="514.0" y="1492.0"/>
      <point x="462.0" y="1588.0"/>
      <point x="336.0" y="1588.0" type="curve" smooth="yes"/>
      <point x="272.0" y="1588.0"/>
      <point x="212.0" y="1564.0"/>
      <point x="158.0" y="1506.0" type="curve"/>
      <point x="158.0" y="1256.0" type="line"/>
      <point x="220.0" y="1318.0"/>
      <point x="276.0" y="1346.0"/>
      <point x="332.0" y="1346.0" type="curve" smooth="yes"/>
      <point x="434.0" y="1346.0"/>
      <point x="486.0" y="1250.0"/>
    </contour>
  </outline>
</glyph>
<glyph name="Ydotbelow" format="2">
  <advance width="1186.0"/>
  <unicode hex="1EF4"/>
  <anchor x="594.0" y="0.0" name="_bottom"/>
  <anchor x="594.0" y="0.0" name="bottom"/>
  <anchor x="596.0" y="1520.0" name="top"/>
  <anchor x="-46.0" y="1480.0" name="topleft"/>
  <outline>
    <contour>
      <point x="398.0" y="0.0" type="line"/>
      <point x="790.0" y="0.0" type="line"/>
      <point x="790.0" y="770.0" type="line"/>
      <point x="710.0" y="460.0" type="line"/>
      <point x="1252.0" y="1480.0" type="line"/>
      <point x="876.0" y="1480.0" type="line"/>
      <point x="556.0" y="870.0" type="line"/>
      <point x="656.0" y="870.0" type="line"/>
      <point x="338.0" y="1480.0" type="line"/>
      <point x="-72.0" y="1480.0" type="line"/>
      <point x="478.0" y="460.0" type="line"/>
      <point x="398.0" y="776.0" type="line"/>
    </contour>
    <contour>
      <point x="594.0" y="-464.0" type="curve" smooth="yes"/>
      <point x="740.0" y="-464.0"/>
      <point x="830.0" y="-406.0"/>
      <point x="830.0" y="-284.0" type="curve" smooth="yes"/>
      <point x="830.0" y="-162.0"/>
      <point x="740.0" y="-104.0"/>
      <point x="594.0" y="-104.0" type="curve" smooth="yes"/>
      <point x="448.0" y="-104.0"/>
      <point x="358.0" y="-162.0"/>
      <point x="358.0" y="-284.0" type="curve" smooth="yes"/>
      <point x="358.0" y="-406.0"/>
      <point x="448.0" y="-464.0"/>
    </contour>
  </outline>
</glyph>
<glyph name="Yhookabove" format="2">
  <advance width="1186.0"/>
  <unicode hex="1EF6"/>
  <anchor x="596.0" y="1520.0" name="_top"/>
  <anchor x="594.0" y="0.0" name="bottom"/>
  <anchor x="596.0" y="1520.0" name="top"/>
  <anchor x="-46.0" y="1480.0" name="topleft"/>
  <outline>
    <contour>
      <point x="398.0" y="0.0" type="line"/>
      <point x="790.0" y="0.0" type="line"/>
      <point x="790.0" y="770.0" type="line"/>
      <point x="710.0" y="460.0" type="line"/>
      <point x="1252.0" y="1480.0" type="line"/>
      <point x="876.0" y="1480.0" type="line"/>
      <point x="556.0" y="870.0" type="line"/>
      <point x="656.0" y="870.0" type="line"/>
      <point x="338.0" y="1480.0" type="line"/>
      <point x="-72.0" y="1480.0" type="line"/>
      <point x="478.0" y="460.0" type="line"/>
      <point x="398.0" y="776.0" type="line"/>
    </contour>
    <contour>
      <point x="502.0" y="1586.0" type="curve"/>
      <point x="690.0" y="1586.0" type="line"/>
      <point x="704.0" y="1678.0"/>
      <point x="856.0" y="1680.0"/>
      <point x="856.0" y="1784.0" type="curve" smooth="yes"/>
      <point x="856.0" y="1888.0"/>
      <point x="774.0" y="1930.0"/>
      <point x="590.0" y="1930.0" type="curve" smooth="yes"/>
      <point x="528.0" y="1930.0"/>
      <point x="432.0" y="1922.0"/>
      <point x="380.0" y="1908.0" type="curve"/>
      <point x="380.0" y="1764.0" type="line"/>
      <point x="432.0" y="1776.0"/>
      <point x="500.0" y="1784.0"/>
      <point x="556.0" y="1784.0" type="curve" smooth="yes"/>
      <point x="620.0" y="1784.0"/>
      <point x="650.0" y="1774.0"/>
      <point x="650.0" y="1750.0" type="curve" smooth="yes"/>
      <point x="650.0" y="1716.0"/>
      <point x="510.0" y="1710.0"/>
    </contour>
  </outline>
</glyph>
<glyph name="ytilde" format="2">
  <advance width="1052.0"/>
  <unicode hex="1EF9"/>
  <anchor x="526.0" y="1200.0" name="_top"/>
  <anchor x="954.0" y="0.0" name="bottom"/>
  <anchor x="526.0" y="1200.0" name="top"/>
  <outline>
    <contour>
      <point x="284.0" y="-440.0" type="line"/>
      <point x="660.0" y="-440.0" type="line"/>
      <point x="1062.0" y="1100.0" type="line"/>
      <point x="682.0" y="1100.0" type="line"/>
      <point x="520.0" y="318.0" type="line"/>
      <point x="400.0" y="0.0" type="line"/>
    </contour>
    <contour>
      <point x="276.0" y="0.0" type="line"/>
      <point x="614.0" y="0.0" type="line"/>
      <point x="386.0" y="1100.0" type="line"/>
      <point x="-10.0" y="1100.0" type="line"/>
    </contour>
    <contour>
      <point x="684.0" y="1250.0" type="curve" smooth="yes"/>
      <point x="768.0" y="1250.0"/>
      <point x="828.0" y="1274.0"/>
      <point x="882.0" y="1332.0" type="curve"/>
      <point x="882.0" y="1582.0" type="line"/>
      <point x="820.0" y="1520.0"/>
      <point x="764.0" y="1492.0"/>
      <point x="688.0" y="1492.0" type="curve" smooth="yes"/>
      <point x="586.0" y="1492.0"/>
      <point x="494.0" y="1588.0"/>
      <point x="368.0" y="1588.0" type="curve" smooth="yes"/>
      <point x="284.0" y="1588.0"/>
      <point x="224.0" y="1564.0"/>
      <point x="170.0" y="1506.0" type="curve"/>
      <point x="170.0" y="1256.0" type="line"/>
      <point x="232.0" y="1318.0"/>
      <point x="288.0" y="1346.0"/>
      <point x="364.0" y="1346.0" type="curve" smooth="yes"/>
      <point x="466.0" y="1346.0"/>
      <point x="558.0" y="1250.0"/>
    </contour>
  </outline>
</glyph>
<glyph name="daggerdbl" format="2">
  <advance width="1004.0"/>
  <unicode hex="2021"/>
  <outline>
    <contour>
      <point x="368.0" y="160.0" type="line"/>
      <point x="636.0" y="160.0" type="line"/>
      <point x="636.0" y="300.0" type="line"/>
      <point x="604.0" y="440.0" type="line"/>
      <point x="824.0" y="410.0" type="line"/>
      <point x="964.0" y="410.0" type="line"/>
      <point x="964.0" y="674.0" type="line"/>
      <point x="824.0" y="674.0" type="line"/>
      <point x="604.0" y="644.0" type="line"/>
      <point x="636.0" y="784.0" type="line"/>
      <point x="636.0" y="992.0" type="line"/>
      <point x="604.0" y="1132.0" type="line"/>
      <point x="824.0" y="1102.0" type="line"/>
      <point x="964.0" y="1102.0" type="line"/>
      <point x="964.0" y="1366.0" type="line"/>
      <point x="824.0" y="1366.0" type="line"/>
      <point x="604.0" y="1336.0" type="line"/>
      <point x="636.0" y="1476.0" type="line"/>
      <point x="636.0" y="1616.0" type="line"/>
      <point x="368.0" y="1616.0" type="line"/>
      <point x="368.0" y="1476.0" type="line"/>
      <point x="400.0" y="1336.0" type="line"/>
      <point x="180.0" y="1366.0" type="line"/>
      <point x="40.0" y="1366.0" type="line"/>
      <point x="40.0" y="1102.0" type="line"/>
      <point x="180.0" y="1102.0" type="line"/>
      <point x="400.0" y="1132.0" type="line"/>
      <point x="368.0" y="992.0" type="line"/>
      <point x="368.0" y="784.0" type="line"/>
      <point x="400.0" y="644.0" type="line"/>
      <point x="180.0" y="674.0" type="line"/>
      <point x="40.0" y="674.0" type="line"/>
      <point x="40.0" y="410.0" type="line"/>
      <point x="180.0" y="410.0" type="line"/>
      <point x="400.0" y="440.0" type="line"/>
      <point x="368.0" y="300.0" type="line"/>
    </contour>
  </outline>
</glyph>
<glyph name="ellipsis" format="2">
  <advance width="1592.0"/>
  <unicode hex="2026"/>
  <outline>
    <contour>
      <point x="272.0" y="-20.0" type="curve" smooth="yes"/>
      <point x="416.0" y="-20.0"/>
      <point x="518.0" y="76.0"/>
      <point x="518.0" y="222.0" type="curve" smooth="yes"/>
      <point x="518.0" y="368.0"/>
      <point x="420.0" y="464.0"/>
      <point x="272.0" y="464.0" type="curve" smooth="yes"/>
      <point x="124.0" y="464.0"/>
      <point x="26.0" y="372.0"/>
      <point x="26.0" y="222.0" type="curve" smooth="yes"/>
      <point x="26.0" y="72.0"/>
      <point x="128.0" y="-20.0"/>
    </contour>
    <contour>
      <point x="796.0" y="-20.0" type="curve" smooth="yes"/>
      <point x="940.0" y="-20.0"/>
      <point x="1042.0" y="76.0"/>
      <point x="1042.0" y="222.0" type="curve" smooth="yes"/>
      <point x="1042.0" y="368.0"/>
      <point x="944.0" y="464.0"/>
      <point x="796.0" y="464.0" type="curve" smooth="yes"/>
      <point x="648.0" y="464.0"/>
      <point x="550.0" y="372.0"/>
      <point x="550.0" y="222.0" type="curve" smooth="yes"/>
      <point x="550.0" y="72.0"/>
      <point x="652.0" y="-20.0"/>
    </contour>
    <contour>
      <point x="1320.0" y="-20.0" type="curve" smooth="yes"/>
      <point x="1464.0" y="-20.0"/>
      <point x="1566.0" y="76.0"/>
      <point x="1566.0" y="222.0" type="curve" smooth="yes"/>
      <point x="1566.0" y="368.0"/>
      <point x="1468.0" y="464.0"/>
      <point x="1320.0" y="464.0" type="curve" smooth="yes"/>
      <point x="1172.0" y="464.0"/>
      <point x="1074.0" y="372.0"/>
      <point x="1074.0" y="222.0" type="curve" smooth="yes"/>
      <point x="1074.0" y="72.0"/>
      <point x="1176.0" y="-20.0"/>
    </contour>
  </outline>
</glyph>
<glyph name="perthousand" format="2">
  <advance width="2856.0"/>
  <unicode hex="2030"/>
  <outline>
    <contour>
      <point x="2406.0" y="-18.0" type="curve" smooth="yes"/>
      <point x="2646.0" y="-18.0"/>
      <point x="2806.0" y="132.0"/>
      <point x="2806.0" y="450.0" type="curve" smooth="yes"/>
      <point x="2806.0" y="768.0"/>
      <point x="2646.0" y="916.0"/>
      <point x="2406.0" y="916.0" type="curve" smooth="yes"/>
      <point x="2166.0" y="916.0"/>
      <point x="2006.0" y="768.0"/>
      <point x="2006.0" y="450.0" type="curve" smooth="yes"/>
      <point x="2006.0" y="132.0"/>
      <point x="2166.0" y="-18.0"/>
    </contour>
    <contour>
      <point x="2406.0" y="226.0" type="curve" smooth="yes"/>
      <point x="2352.0" y="226.0"/>
      <point x="2314.0" y="272.0"/>
      <point x="2314.0" y="450.0" type="curve" smooth="yes"/>
      <point x="2314.0" y="628.0"/>
      <point x="2352.0" y="672.0"/>
      <point x="2406.0" y="672.0" type="curve" smooth="yes"/>
      <point x="2460.0" y="672.0"/>
      <point x="2498.0" y="628.0"/>
      <point x="2498.0" y="450.0" type="curve" smooth="yes"/>
      <point x="2498.0" y="272.0"/>
      <point x="2460.0" y="226.0"/>
    </contour>
    <component base="percent"/>
  </outline>
</glyph>
<glyph name="guilsinglleft" format="2">
  <advance width="658.0"/>
  <unicode hex="2039"/>
  <outline>
    <contour>
      <point x="258.0" y="130.0" type="line"/>
      <point x="638.0" y="130.0" type="line"/>
      <point x="440.0" y="570.0" type="line"/>
      <point x="638.0" y="1010.0" type="line"/>
      <point x="258.0" y="1010.0" type="line"/>
      <point x="60.0" y="570.0" type="line"/>
    </contour>
  </outline>
</glyph>
<glyph name="fraction" format="2">
  <advance width="346.0"/>
  <unicode hex="2044"/>
  <outline>
    <contour>
      <point x="-350.0" y="-136.0" type="line"/>
      <point x="-34.0" y="-136.0" type="line"/>
      <point x="696.0" y="1616.0" type="line"/>
      <point x="380.0" y="1616.0" type="line"/>
    </contour>
  </outline>
</glyph>
<glyph name="zeroinferior" format="2">
  <advance width="820.0"/>
  <unicode hex="2080"/>
  <outline>
    <contour>
      <point x="410.0" y="602.0" type="curve" smooth="yes"/>
      <point x="634.0" y="602.0"/>
      <point x="784.0" y="744.0"/>
      <point x="784.0" y="1116.0" type="curve" smooth="yes"/>
      <point x="784.0" y="1488.0"/>
      <point x="634.0" y="1630.0"/>
      <point x="410.0" y="1630.0" type="curve" smooth="yes"/>
      <point x="186.0" y="1630.0"/>
      <point x="36.0" y="1488.0"/>
      <point x="36.0" y="1116.0" type="curve" smooth="yes"/>
      <point x="36.0" y="744.0"/>
      <point x="186.0" y="602.0"/>
    </contour>
    <contour>
      <point x="410.0" y="844.0" type="curve" smooth="yes"/>
      <point x="360.0" y="844.0"/>
      <point x="330.0" y="884.0"/>
      <point x="330.0" y="1116.0" type="curve" smooth="yes"/>
      <point x="330.0" y="1348.0"/>
      <point x="360.0" y="1388.0"/>
      <point x="410.0" y="1388.0" type="curve" smooth="yes"/>
      <point x="460.0" y="1388.0"/>
      <point x="490.0" y="1348.0"/>
      <point x="490.0" y="1116.0" type="curve" smooth="yes"/>
      <point x="490.0" y="884.0"/>
      <point x="460.0" y="844.0"/>
    </contour>
  </outline>
</glyph>
<glyph name="fourinferior" format="2">
  <advance width="820.0"/>
  <unicode hex="2084"/>
  <outline>
    <contour>
      <point x="24.0" y="800.0" type="line"/>
      <point x="798.0" y="800.0" type="line"/>
      <point x="798.0" y="1024.0" type="line"/>
      <point x="280.0" y="1024.0" type="line"/>
      <point x="314.0" y="966.0" type="line"/>
      <point x="578.0" y="1616.0" type="line"/>
      <point x="296.0" y="1616.0" type="line"/>
      <point x="24.0" y="966.0" type="line"/>
    </contour>
    <contour>
      <point x="436.0" y="616.0" type="line"/>
      <point x="696.0" y="616.0" type="line"/>
      <point x="696.0" y="1278.0" type="line"/>
      <point x="504.0" y="1278.0" type="line"/>
      <point x="436.0" y="1024.0" type="line"/>
    </contour>
  </outline>
</glyph>
<glyph name="colonsign" format="2">
  <advance width="1102.0"/>
  <unicode hex="20A1"/>
  <outline>
    <contour>
      <point x="770.0" y="-20.0" type="curve" smooth="yes"/>
      <point x="874.0" y="-20.0"/>
      <point x="992.0" y="-2.0"/>
      <point x="1068.0" y="28.0" type="curve"/>
      <point x="1068.0" y="356.0" type="line"/>
      <point x="978.0" y="328.0"/>
      <point x="894.0" y="310.0"/>
      <point x="828.0" y="310.0" type="curve" smooth="yes"/>
      <point x="578.0" y="310.0"/>
      <point x="464.0" y="410.0"/>
      <point x="464.0" y="740.0" type="curve" smooth="yes"/>
      <point x="464.0" y="1060.0"/>
      <point x="586.0" y="1170.0"/>
      <point x="828.0" y="1170.0" type="curve" smooth="yes"/>
      <point x="912.0" y="1170.0"/>
      <point x="992.0" y="1158.0"/>
      <point x="1068.0" y="1142.0" type="curve"/>
      <point x="1068.0" y="1470.0" type="line"/>
      <point x="984.0" y="1490.0"/>
      <point x="888.0" y="1500.0"/>
      <point x="792.0" y="1500.0" type="curve" smooth="yes"/>
      <point x="330.0" y="1500.0"/>
      <point x="54.0" y="1254.0"/>
      <point x="54.0" y="736.0" type="curve" smooth="yes"/>
      <point x="54.0" y="198.0"/>
      <point x="318.0" y="-20.0"/>
    </contour>
    <contour>
      <point x="404.0" y="276.0" type="line"/>
      <point x="232.0" y="466.0" type="line"/>
      <point x="54.0" y="-240.0" type="line"/>
      <point x="274.0" y="-240.0" type="line"/>
    </contour>
    <contour>
      <point x="674.0" y="158.0" type="line"/>
      <point x="470.0" y="220.0" type="line"/>
      <point x="354.0" y="-240.0" type="line"/>
      <point x="574.0" y="-240.0" type="line"/>
    </contour>
    <contour>
      <point x="470.0" y="1408.0" type="line"/>
      <point x="690.0" y="1408.0" type="line"/>
      <point x="768.0" y="1720.0" type="line"/>
      <point x="548.0" y="1720.0" type="line"/>
    </contour>
    <contour>
      <point x="770.0" y="1408.0" type="line"/>
      <point x="990.0" y="1408.0" type="line"/>
      <point x="1068.0" y="1720.0" type="line"/>
      <point x="848.0" y="1720.0" type="line"/>
    </contour>
  </outline>
</glyph>
<glyph name="peseta" format="2">
  <advance width="2736.0"/>
  <unicode hex="20A7"/>
  <outline>
    <contour>
      <point x="88.0" y="0.0" type="line"/>
      <point x="480.0" y="0.0" type="line"/>
      <point x="480.0" y="396.0" type="line"/>
      <point x="514.0" y="396.0"/>
      <point x="536.0" y="394.0"/>
      <point x="574.0" y="394.0" type="curve" smooth="yes"/>
      <point x="956.0" y="394.0"/>
      <point x="1172.0" y="584.0"/>
      <point x="1172.0" y="946.0" type="curve" smooth="yes"/>
      <point x="1172.0" y="1330.0"/>
      <point x="956.0" y="1500.0"/>
      <point x="530.0" y="1500.0" type="curve" smooth="yes"/>
      <point x="370.0" y="1500.0"/>
      <point x="224.0" y="1480.0"/>
      <point x="88.0" y="1450.0" type="curve"/>
    </contour>
    <contour>
      <point x="578.0" y="708.0" type="curve" smooth="yes"/>
      <point x="538.0" y="708.0"/>
      <point x="510.0" y="710.0"/>
      <point x="480.0" y="714.0" type="curve"/>
      <point x="480.0" y="1178.0" type="line"/>
      <point x="506.0" y="1184.0"/>
      <point x="528.0" y="1186.0"/>
      <point x="568.0" y="1186.0" type="curve" smooth="yes"/>
      <point x="720.0" y="1186.0"/>
      <point x="792.0" y="1114.0"/>
      <point x="792.0" y="942.0" type="curve" smooth="yes"/>
      <point x="792.0" y="770.0"/>
      <point x="720.0" y="708.0"/>
    </contour>
    <contour>
      <point x="1686.0" y="-20.0" type="curve" smooth="yes"/>
      <point x="1756.0" y="-20.0"/>
      <point x="1832.0" y="-10.0"/>
      <point x="1886.0" y="4.0" type="curve"/>
      <point x="1886.0" y="316.0" type="line"/>
      <point x="1848.0" y="312.0"/>
      <point x="1820.0" y="308.0"/>
      <point x="1792.0" y="308.0" type="curve" smooth="yes"/>
      <point x="1688.0" y="308.0"/>
      <point x="1656.0" y="346.0"/>
      <point x="1656.0" y="470.0" type="curve" smooth="yes"/>
      <point x="1656.0" y="1480.0" type="line"/>
      <point x="1342.0" y="1480.0" type="line"/>
      <point x="1270.0" y="1100.0" type="line"/>
      <point x="1270.0" y="426.0" type="line" smooth="yes"/>
      <point x="1270.0" y="108.0"/>
      <point x="1420.0" y="-20.0"/>
    </contour>
    <contour>
      <point x="1130.0" y="800.0" type="line"/>
      <point x="1874.0" y="800.0" type="line"/>
      <point x="1874.0" y="1100.0" type="line"/>
      <point x="1130.0" y="1100.0" type="line"/>
    </contour>
    <contour>
      <point x="2242.0" y="-22.0" type="curve" smooth="yes"/>
      <point x="2538.0" y="-22.0"/>
      <point x="2718.0" y="120.0"/>
      <point x="2718.0" y="350.0" type="curve" smooth="yes"/>
      <point x="2718.0" y="542.0"/>
      <point x="2624.0" y="632.0"/>
      <point x="2466.0" y="670.0" type="curve" smooth="yes"/>
      <point x="2306.0" y="708.0" type="line" smooth="yes"/>
      <point x="2274.0" y="716.0"/>
      <point x="2258.0" y="726.0"/>
      <point x="2258.0" y="750.0" type="curve" smooth="yes"/>
      <point x="2258.0" y="782.0"/>
      <point x="2288.0" y="816.0"/>
      <point x="2434.0" y="816.0" type="curve" smooth="yes"/>
      <point x="2508.0" y="816.0"/>
      <point x="2582.0" y="810.0"/>
      <point x="2656.0" y="794.0" type="curve"/>
      <point x="2656.0" y="1096.0" type="line"/>
      <point x="2582.0" y="1110.0"/>
      <point x="2496.0" y="1118.0"/>
      <point x="2406.0" y="1118.0" type="curve" smooth="yes"/>
      <point x="2070.0" y="1118.0"/>
      <point x="1910.0" y="974.0"/>
      <point x="1910.0" y="752.0" type="curve" smooth="yes"/>
      <point x="1910.0" y="562.0"/>
      <point x="2008.0" y="462.0"/>
      <point x="2164.0" y="426.0" type="curve" smooth="yes"/>
      <point x="2324.0" y="388.0" type="line" smooth="yes"/>
      <point x="2356.0" y="380.0"/>
      <point x="2370.0" y="368.0"/>
      <point x="2370.0" y="342.0" type="curve" smooth="yes"/>
      <point x="2370.0" y="306.0"/>
      <point x="2344.0" y="280.0"/>
      <point x="2238.0" y="280.0" type="curve" smooth="yes"/>
      <point x="2138.0" y="280.0"/>
      <point x="2034.0" y="294.0"/>
      <point x="1948.0" y="318.0" type="curve"/>
      <point x="1948.0" y="16.0" type="line"/>
      <point x="2044.0" y="-10.0"/>
      <point x="2146.0" y="-22.0"/>
    </contour>
  </outline>
</glyph>
<glyph name="won" format="2">
  <advance width="2204.0"/>
  <unicode hex="20A9"/>
  <outline>
    <contour>
      <point x="396.0" y="0.0" type="line"/>
      <point x="904.0" y="0.0" type="line"/>
      <point x="1164.0" y="1200.0" type="line"/>
      <point x="1064.0" y="1200.0" type="line"/>
      <point x="1300.0" y="0.0" type="line"/>
      <point x="1808.0" y="0.0" type="line"/>
      <point x="2112.0" y="1480.0" type="line"/>
      <point x="1746.0" y="1480.0" type="line"/>
      <point x="1482.0" y="138.0" type="line"/>
      <point x="1588.0" y="138.0" type="line"/>
      <point x="1328.0" y="1480.0" type="line"/>
      <point x="904.0" y="1480.0" type="line"/>
      <point x="624.0" y="138.0" type="line"/>
      <point x="738.0" y="138.0" type="line"/>
      <point x="486.0" y="1480.0" type="line"/>
      <point x="92.0" y="1480.0" type="line"/>
    </contour>
    <contour>
      <point x="40.0" y="478.0" type="line"/>
      <point x="466.0" y="478.0" type="line"/>
      <point x="466.0" y="712.0" type="line"/>
      <point x="40.0" y="712.0" type="line"/>
    </contour>
    <contour>
      <point x="40.0" y="788.0" type="line"/>
      <point x="386.0" y="788.0" type="line"/>
      <point x="386.0" y="1022.0" type="line"/>
      <point x="40.0" y="1022.0" type="line"/>
    </contour>
    <contour>
      <point x="1738.0" y="478.0" type="line"/>
      <point x="2164.0" y="478.0" type="line"/>
      <point x="2164.0" y="712.0" type="line"/>
      <point x="1738.0" y="712.0" type="line"/>
    </contour>
    <contour>
      <point x="1818.0" y="788.0" type="line"/>
      <point x="2164.0" y="788.0" type="line"/>
      <point x="2164.0" y="1022.0" type="line"/>
      <point x="1818.0" y="1022.0" type="line"/>
    </contour>
  </outline>
</glyph>
<glyph name="dong" format="2">
  <advance width="1104.0"/>
  <unicode hex="20AB"/>
  <outline>
    <contour>
      <point x="430.0" y="-22.0" type="curve" smooth="yes"/>
      <point x="542.0" y="-22.0"/>
      <point x="618.0" y="32.0"/>
      <point x="658.0" y="120.0" type="curve"/>
      <point x="674.0" y="120.0" type="line"/>
      <point x="700.0" y="0.0" type="line"/>
      <point x="1026.0" y="0.0" type="line"/>
      <point x="1026.0" y="1616.0" type="line"/>
      <point x="640.0" y="1616.0" type="line"/>
      <point x="640.0" y="1116.0" type="line"/>
      <point x="634.0" y="1116.0"/>
      <point x="630.0" y="1116.0"/>
      <point x="624.0" y="1116.0" type="curve" smooth="yes"/>
      <point x="212.0" y="1116.0"/>
      <point x="40.0" y="904.0"/>
      <point x="40.0" y="528.0" type="curve" smooth="yes"/>
      <point x="40.0" y="146.0"/>
      <point x="226.0" y="-22.0"/>
    </contour>
    <contour>
      <point x="120.0" y="-440.0" type="line"/>
      <point x="1026.0" y="-440.0" type="line"/>
      <point x="1026.0" y="-140.0" type="line"/>
      <point x="120.0" y="-140.0" type="line"/>
    </contour>
    <contour>
      <point x="564.0" y="300.0" type="curve" smooth="yes"/>
      <point x="484.0" y="300.0"/>
      <point x="434.0" y="346.0"/>
      <point x="434.0" y="562.0" type="curve" smooth="yes"/>
      <point x="434.0" y="770.0"/>
      <point x="488.0" y="824.0"/>
      <point x="592.0" y="824.0" type="curve" smooth="yes"/>
      <point x="602.0" y="824.0"/>
      <point x="624.0" y="822.0"/>
      <point x="640.0" y="820.0" type="curve"/>
      <point x="640.0" y="320.0" type="line"/>
      <point x="620.0" y="308.0"/>
      <point x="592.0" y="300.0"/>
    </contour>
    <contour>
      <point x="410.0" y="1220.0" type="line"/>
      <point x="1104.0" y="1220.0" type="line"/>
      <point x="1104.0" y="1480.0" type="line"/>
      <point x="410.0" y="1480.0" type="line"/>
    </contour>
  </outline>
</glyph>
<glyph name="euro" format="2">
  <advance width="1248.0"/>
  <unicode hex="20AC"/>
  <outline>
    <contour>
      <point x="916.0" y="-20.0" type="curve" smooth="yes"/>
      <point x="1020.0" y="-20.0"/>
      <point x="1138.0" y="-2.0"/>
      <point x="1214.0" y="28.0" type="curve"/>
      <point x="1214.0" y="356.0" type="line"/>
      <point x="1124.0" y="328.0"/>
      <point x="1040.0" y="310.0"/>
      <point x="974.0" y="310.0" type="curve" smooth="yes"/>
      <point x="718.0" y="310.0"/>
      <point x="600.0" y="410.0"/>
      <point x="600.0" y="740.0" type="curve" smooth="yes"/>
      <point x="600.0" y="1060.0"/>
      <point x="726.0" y="1170.0"/>
      <point x="974.0" y="1170.0" type="curve" smooth="yes"/>
      <point x="1058.0" y="1170.0"/>
      <point x="1138.0" y="1158.0"/>
      <point x="1214.0" y="1142.0" type="curve"/>
      <point x="1214.0" y="1470.0" type="line"/>
      <point x="1130.0" y="1490.0"/>
      <point x="1034.0" y="1500.0"/>
      <point x="938.0" y="1500.0" type="curve" smooth="yes"/>
      <point x="476.0" y="1500.0"/>
      <point x="200.0" y="1254.0"/>
      <point x="200.0" y="736.0" type="curve" smooth="yes"/>
      <point x="200.0" y="198.0"/>
      <point x="464.0" y="-20.0"/>
    </contour>
    <contour>
      <point x="40.0" y="478.0" type="line"/>
      <point x="1054.0" y="478.0" type="line"/>
      <point x="1054.0" y="712.0" type="line"/>
      <point x="40.0" y="712.0" type="line"/>
    </contour>
    <contour>
      <point x="40.0" y="788.0" type="line"/>
      <point x="1054.0" y="788.0" type="line"/>
      <point x="1054.0" y="1022.0" type="line"/>
      <point x="40.0" y="1022.0" type="line"/>
    </contour>
  </outline>
</glyph>
<glyph name="kip" format="2">
  <advance width="1360.0"/>
  <unicode hex="20AD"/>
  <outline>
    <contour>
      <point x="1002.0" y="0.0" type="line"/>
      <point x="1420.0" y="0.0" type="line"/>
      <point x="960.0" y="816.0" type="line"/>
      <point x="956.0" y="706.0" type="line"/>
      <point x="1384.0" y="1480.0" type="line"/>
      <point x="978.0" y="1480.0" type="line"/>
      <point x="576.0" y="750.0" type="line"/>
    </contour>
    <contour>
      <point x="200.0" y="0.0" type="line"/>
      <point x="592.0" y="0.0" type="line"/>
      <point x="592.0" y="1480.0" type="line"/>
      <point x="200.0" y="1480.0" type="line"/>
    </contour>
    <contour>
      <point x="40.0" y="606.0" type="line"/>
      <point x="1290.0" y="606.0" type="line"/>
      <point x="1290.0" y="906.0" type="line"/>
      <point x="40.0" y="906.0" type="line"/>
    </contour>
  </outline>
</glyph>
<glyph name="manat" format="2">
  <advance width="1398.0"/>
  <unicode hex="20BC"/>
  <outline>
    <contour>
      <point x="72.0" y="0.0" type="curve"/>
      <point x="460.0" y="0.0" type="line"/>
      <point x="460.0" y="1102.0"/>
      <point x="526.0" y="1172.0"/>
      <point x="700.0" y="1172.0" type="curve" smooth="yes"/>
      <point x="874.0" y="1172.0"/>
      <point x="938.0" y="1102.0"/>
      <point x="938.0" y="0.0" type="curve"/>
      <point x="1326.0" y="0.0" type="line"/>
      <point x="1326.0" y="1106.0"/>
      <point x="1186.0" y="1500.0"/>
      <point x="700.0" y="1500.0" type="curve" smooth="yes"/>
      <point x="214.0" y="1500.0"/>
      <point x="72.0" y="1106.0"/>
    </contour>
    <contour>
      <point x="588.0" y="490.0" type="line"/>
      <point x="812.0" y="490.0" type="line"/>
      <point x="812.0" y="1288.0" type="line"/>
      <point x="880.0" y="1414.0" type="line"/>
      <point x="880.0" y="1720.0" type="line"/>
      <point x="520.0" y="1720.0" type="line"/>
      <point x="520.0" y="1414.0" type="line"/>
      <point x="588.0" y="1288.0" type="line"/>
    </contour>
  </outline>
</glyph>
<glyph name="literSign" format="2">
  <advance width="856.0"/>
  <unicode hex="2113"/>
  <outline>
    <contour>
      <point x="522.0" y="-34.0" type="curve" smooth="yes"/>
      <point x="642.0" y="-34.0"/>
      <point x="748.0" y="12.0"/>
      <point x="836.0" y="102.0" type="curve"/>
      <point x="758.0" y="240.0" type="line"/>
      <point x="696.0" y="194.0"/>
      <point x="650.0" y="170.0"/>
      <point x="596.0" y="170.0" type="curve" smooth="yes"/>
      <point x="532.0" y="170.0"/>
      <point x="498.0" y="210.0"/>
      <point x="498.0" y="286.0" type="curve" smooth="yes"/>
      <point x="498.0" y="1164.0" type="line" smooth="yes"/>
      <point x="498.0" y="1240.0"/>
      <point x="526.0" y="1282.0"/>
      <point x="578.0" y="1282.0" type="curve" smooth="yes"/>
      <point x="618.0" y="1282.0"/>
      <point x="640.0" y="1252.0"/>
      <point x="640.0" y="1196.0" type="curve" smooth="yes"/>
      <point x="640.0" y="994.0"/>
      <point x="482.0" y="814.0"/>
      <point x="0.0" y="470.0" type="curve"/>
      <point x="90.0" y="344.0" type="line"/>
      <point x="610.0" y="714.0"/>
      <point x="812.0" y="964.0"/>
      <point x="812.0" y="1236.0" type="curve" smooth="yes"/>
      <point x="812.0" y="1404.0"/>
      <point x="714.0" y="1500.0"/>
      <point x="546.0" y="1500.0" type="curve" smooth="yes"/>
      <point x="334.0" y="1500.0"/>
      <point x="210.0" y="1378.0"/>
      <point x="210.0" y="1164.0" type="curve" smooth="yes"/>
      <point x="210.0" y="254.0" type="line" smooth="yes"/>
      <point x="210.0" y="62.0"/>
      <point x="322.0" y="-34.0"/>
    </contour>
  </outline>
</glyph>
<glyph name="numero" format="2">
  <advance width="2266.0"/>
  <unicode hex="2116"/>
  <anchor x="690.0" y="0.0" name="bottom"/>
  <anchor x="690.0" y="1520.0" name="top"/>
  <outline>
    <contour>
      <point x="88.0" y="0.0" type="line"/>
      <point x="454.0" y="0.0" type="line"/>
      <point x="454.0" y="930.0" type="line"/>
      <point x="396.0" y="930.0" type="line"/>
      <point x="902.0" y="0.0" type="line"/>
      <point x="1292.0" y="0.0" type="line"/>
      <point x="1292.0" y="1480.0" type="line"/>
      <point x="926.0" y="1480.0" type="line"/>
      <point x="926.0" y="550.0" type="line"/>
      <point x="984.0" y="550.0" type="line"/>
      <point x="478.0" y="1480.0" type="line"/>
      <point x="88.0" y="1480.0" type="line"/>
    </contour>
    <contour>
      <point x="1824.0" y="592.0" type="curve" smooth="yes"/>
      <point x="2098.0" y="592.0"/>
      <point x="2246.0" y="760.0"/>
      <point x="2246.0" y="1044.0" type="curve" smooth="yes"/>
      <point x="2246.0" y="1328.0"/>
      <point x="2098.0" y="1502.0"/>
      <point x="1824.0" y="1502.0" type="curve" smooth="yes"/>
      <point x="1550.0" y="1502.0"/>
      <point x="1400.0" y="1338.0"/>
      <point x="1400.0" y="1044.0" type="curve" smooth="yes"/>
      <point x="1400.0" y="750.0"/>
      <point x="1550.0" y="592.0"/>
    </contour>
    <contour>
      <point x="1824.0" y="846.0" type="curve" smooth="yes"/>
      <point x="1788.0" y="846.0"/>
      <point x="1758.0" y="866.0"/>
      <point x="1758.0" y="1044.0" type="curve" smooth="yes"/>
      <point x="1758.0" y="1224.0"/>
      <point x="1788.0" y="1248.0"/>
      <point x="1824.0" y="1248.0" type="curve" smooth="yes"/>
      <point x="1860.0" y="1248.0"/>
      <point x="1888.0" y="1224.0"/>
      <point x="1888.0" y="1044.0" type="curve" smooth="yes"/>
      <point x="1888.0" y="866.0"/>
      <point x="1860.0" y="846.0"/>
    </contour>
  </outline>
</glyph>
<glyph name="estimated" format="2">
  <advance width="1502.0"/>
  <unicode hex="212E"/>
  <outline>
    <contour>
      <point x="750.0" y="-18.0" type="curve" smooth="yes"/>
      <point x="1002.0" y="-18.0"/>
      <point x="1190.0" y="82.0"/>
      <point x="1374.0" y="352.0" type="curve"/>
      <point x="1318.0" y="390.0" type="line"/>
      <point x="1148.0" y="140.0"/>
      <point x="978.0" y="46.0"/>
      <point x="750.0" y="46.0" type="curve" smooth="yes"/>
      <point x="594.0" y="46.0"/>
      <point x="468.0" y="96.0"/>
      <point x="364.0" y="198.0" type="curve"/>
      <point x="364.0" y="738.0" type="line"/>
      <point x="1448.0" y="738.0" type="line"/>
      <point x="1426.0" y="1204.0"/>
      <point x="1154.0" y="1498.0"/>
      <point x="750.0" y="1498.0" type="curve" smooth="yes"/>
      <point x="340.0" y="1498.0"/>
      <point x="54.0" y="1186.0"/>
      <point x="54.0" y="738.0" type="curve" smooth="yes"/>
      <point x="54.0" y="306.0"/>
      <point x="352.0" y="-18.0"/>
    </contour>
    <contour>
      <point x="364.0" y="802.0" type="line"/>
      <point x="364.0" y="1280.0" type="line"/>
      <point x="448.0" y="1380.0"/>
      <point x="594.0" y="1434.0"/>
      <point x="748.0" y="1434.0" type="curve" smooth="yes"/>
      <point x="896.0" y="1434.0"/>
      <point x="1044.0" y="1380.0"/>
      <point x="1138.0" y="1280.0" type="curve"/>
      <point x="1138.0" y="802.0" type="line"/>
    </contour>
  </outline>
</glyph>
<glyph name="twothirds" format="2">
  <advance width="1986.0"/>
  <unicode hex="2154"/>
  <outline>
    <contour>
      <point x="84.0" y="616.0" type="line"/>
      <point x="748.0" y="616.0" type="line"/>
      <point x="748.0" y="872.0" type="line"/>
      <point x="420.0" y="872.0" type="line"/>
      <point x="430.0" y="802.0" type="line"/>
      <point x="582.0" y="1004.0" type="line" smooth="yes"/>
      <point x="672.0" y="1122.0"/>
      <point x="706.0" y="1220.0"/>
      <point x="706.0" y="1316.0" type="curve" smooth="yes"/>
      <point x="706.0" y="1542.0"/>
      <point x="554.0" y="1630.0"/>
      <point x="308.0" y="1630.0" type="curve" smooth="yes"/>
      <point x="228.0" y="1630.0"/>
      <point x="130.0" y="1616.0"/>
      <point x="70.0" y="1596.0" type="curve"/>
      <point x="70.0" y="1354.0" type="line"/>
      <point x="124.0" y="1374.0"/>
      <point x="198.0" y="1386.0"/>
      <point x="256.0" y="1386.0" type="curve" smooth="yes"/>
      <point x="370.0" y="1386.0"/>
      <point x="406.0" y="1350.0"/>
      <point x="406.0" y="1290.0" type="curve" smooth="yes"/>
      <point x="406.0" y="1236.0"/>
      <point x="376.0" y="1170.0"/>
      <point x="304.0" y="1074.0" type="curve" smooth="yes"/>
      <point x="84.0" y="780.0" type="line"/>
    </contour>
    <contour>
      <point x="470.0" y="-136.0" type="line"/>
      <point x="786.0" y="-136.0" type="line"/>
      <point x="1516.0" y="1616.0" type="line"/>
      <point x="1200.0" y="1616.0" type="line"/>
    </contour>
    <contour>
      <point x="1476.0" y="-150.0" type="curve" smooth="yes"/>
      <point x="1748.0" y="-150.0"/>
      <point x="1906.0" y="-44.0"/>
      <point x="1906.0" y="146.0" type="curve" smooth="yes"/>
      <point x="1906.0" y="274.0"/>
      <point x="1842.0" y="360.0"/>
      <point x="1706.0" y="382.0" type="curve"/>
      <point x="1706.0" y="374.0" type="line"/>
      <point x="1814.0" y="398.0"/>
      <point x="1878.0" y="484.0"/>
      <point x="1878.0" y="606.0" type="curve" smooth="yes"/>
      <point x="1878.0" y="780.0"/>
      <point x="1746.0" y="878.0"/>
      <point x="1494.0" y="878.0" type="curve" smooth="yes"/>
      <point x="1410.0" y="878.0"/>
      <point x="1310.0" y="864.0"/>
      <point x="1246.0" y="844.0" type="curve"/>
      <point x="1246.0" y="616.0" type="line"/>
      <point x="1302.0" y="638.0"/>
      <point x="1382.0" y="650.0"/>
      <point x="1448.0" y="650.0" type="curve" smooth="yes"/>
      <point x="1550.0" y="650.0"/>
      <point x="1590.0" y="624.0"/>
      <point x="1590.0" y="570.0" type="curve" smooth="yes"/>
      <point x="1590.0" y="520.0"/>
      <point x="1558.0" y="490.0"/>
      <point x="1472.0" y="490.0" type="curve" smooth="yes"/>
      <point x="1318.0" y="490.0" type="line"/>
      <point x="1318.0" y="256.0" type="line"/>
      <point x="1476.0" y="256.0" type="line" smooth="yes"/>
      <point x="1578.0" y="256.0"/>
      <point x="1618.0" y="230.0"/>
      <point x="1618.0" y="168.0" type="curve" smooth="yes"/>
      <point x="1618.0" y="106.0"/>
      <point x="1578.0" y="78.0"/>
      <point x="1464.0" y="78.0" type="curve" smooth="yes"/>
      <point x="1398.0" y="78.0"/>
      <point x="1308.0" y="88.0"/>
      <point x="1238.0" y="106.0" type="curve"/>
      <point x="1238.0" y="-122.0" type="line"/>
      <point x="1314.0" y="-140.0"/>
      <point x="1398.0" y="-150.0"/>
    </contour>
  </outline>
</glyph>
<glyph name="threeeighths" format="2">
  <advance width="1986.0"/>
  <unicode hex="215C"/>
  <outline>
    <contour>
      <point x="310.0" y="602.0" type="curve" smooth="yes"/>
      <point x="582.0" y="602.0"/>
      <point x="740.0" y="708.0"/>
      <point x="740.0" y="898.0" type="curve" smooth="yes"/>
      <point x="740.0" y="1026.0"/>
      <point x="676.0" y="1112.0"/>
      <point x="540.0" y="1134.0" type="curve"/>
      <point x="540.0" y="1126.0" type="line"/>
      <point x="648.0" y="1150.0"/>
      <point x="712.0" y="1236.0"/>
      <point x="712.0" y="1358.0" type="curve" smooth="yes"/>
      <point x="712.0" y="1532.0"/>
      <point x="580.0" y="1630.0"/>
      <point x="328.0" y="1630.0" type="curve" smooth="yes"/>
      <point x="244.0" y="1630.0"/>
      <point x="144.0" y="1616.0"/>
      <point x="80.0" y="1596.0" type="curve"/>
      <point x="80.0" y="1368.0" type="line"/>
      <point x="136.0" y="1390.0"/>
      <point x="216.0" y="1402.0"/>
      <point x="282.0" y="1402.0" type="curve" smooth="yes"/>
      <point x="384.0" y="1402.0"/>
      <point x="424.0" y="1376.0"/>
      <point x="424.0" y="1322.0" type="curve" smooth="yes"/>
      <point x="424.0" y="1272.0"/>
      <point x="392.0" y="1242.0"/>
      <point x="306.0" y="1242.0" type="curve" smooth="yes"/>
      <point x="152.0" y="1242.0" type="line"/>
      <point x="152.0" y="1008.0" type="line"/>
      <point x="310.0" y="1008.0" type="line" smooth="yes"/>
      <point x="412.0" y="1008.0"/>
      <point x="452.0" y="982.0"/>
      <point x="452.0" y="920.0" type="curve" smooth="yes"/>
      <point x="452.0" y="858.0"/>
      <point x="412.0" y="830.0"/>
      <point x="298.0" y="830.0" type="curve" smooth="yes"/>
      <point x="232.0" y="830.0"/>
      <point x="142.0" y="840.0"/>
      <point x="72.0" y="858.0" type="curve"/>
      <point x="72.0" y="630.0" type="line"/>
      <point x="148.0" y="612.0"/>
      <point x="232.0" y="602.0"/>
    </contour>
    <contour>
      <point x="470.0" y="-136.0" type="line"/>
      <point x="786.0" y="-136.0" type="line"/>
      <point x="1516.0" y="1616.0" type="line"/>
      <point x="1200.0" y="1616.0" type="line"/>
    </contour>
    <contour>
      <point x="1576.0" y="-150.0" type="curve" smooth="yes"/>
      <point x="1814.0" y="-150.0"/>
      <point x="1954.0" y="-28.0"/>
      <point x="1954.0" y="148.0" type="curve" smooth="yes"/>
      <point x="1954.0" y="296.0"/>
      <point x="1890.0" y="386.0"/>
      <point x="1662.0" y="470.0" type="curve" smooth="yes"/>
      <point x="1518.0" y="526.0"/>
      <point x="1492.0" y="548.0"/>
      <point x="1492.0" y="598.0" type="curve" smooth="yes"/>
      <point x="1492.0" y="644.0"/>
      <point x="1528.0" y="674.0"/>
      <point x="1588.0" y="674.0" type="curve" smooth="yes"/>
      <point x="1646.0" y="674.0"/>
      <point x="1678.0" y="648.0"/>
      <point x="1678.0" y="596.0" type="curve" smooth="yes"/>
      <point x="1678.0" y="544.0"/>
      <point x="1652.0" y="502.0"/>
      <point x="1604.0" y="458.0" type="curve"/>
      <point x="1776.0" y="376.0" type="line"/>
      <point x="1898.0" y="444.0"/>
      <point x="1932.0" y="530.0"/>
      <point x="1932.0" y="618.0" type="curve" smooth="yes"/>
      <point x="1932.0" y="778.0"/>
      <point x="1808.0" y="878.0"/>
      <point x="1590.0" y="878.0" type="curve" smooth="yes"/>
      <point x="1350.0" y="878.0"/>
      <point x="1216.0" y="764.0"/>
      <point x="1216.0" y="590.0" type="curve" smooth="yes"/>
      <point x="1216.0" y="446.0"/>
      <point x="1288.0" y="338.0"/>
      <point x="1516.0" y="260.0" type="curve" smooth="yes"/>
      <point x="1644.0" y="216.0"/>
      <point x="1678.0" y="186.0"/>
      <point x="1678.0" y="134.0" type="curve" smooth="yes"/>
      <point x="1678.0" y="84.0"/>
      <point x="1650.0" y="54.0"/>
      <point x="1578.0" y="54.0" type="curve" smooth="yes"/>
      <point x="1510.0" y="54.0"/>
      <point x="1470.0" y="88.0"/>
      <point x="1470.0" y="146.0" type="curve" smooth="yes"/>
      <point x="1470.0" y="190.0"/>
      <point x="1496.0" y="250.0"/>
      <point x="1562.0" y="280.0" type="curve"/>
      <point x="1382.0" y="360.0" type="line"/>
      <point x="1256.0" y="306.0"/>
      <point x="1196.0" y="222.0"/>
      <point x="1196.0" y="120.0" type="curve" smooth="yes"/>
      <point x="1196.0" y="-34.0"/>
      <point x="1322.0" y="-150.0"/>
    </contour>
  </outline>
</glyph>
<glyph name="upArrow" format="2">
  <advance width="1404.0"/>
  <unicode hex="2191"/>
  <outline>
    <contour>
      <point x="552.0" y="144.0" type="line"/>
      <point x="852.0" y="144.0" type="line"/>
      <point x="852.0" y="862.0" type="line"/>
      <point x="1144.0" y="570.0" type="line"/>
      <point x="1326.0" y="752.0" type="line"/>
      <point x="702.0" y="1376.0" type="line"/>
      <point x="78.0" y="752.0" type="line"/>
      <point x="260.0" y="570.0" type="line"/>
      <point x="552.0" y="862.0" type="line"/>
    </contour>
  </outline>
</glyph>
<glyph name="rightArrow" format="2">
  <advance width="1388.0"/>
  <unicode hex="2192"/>
  <outline>
    <contour>
      <point x="686.0" y="136.0" type="line"/>
      <point x="1310.0" y="760.0" type="line"/>
      <point x="686.0" y="1384.0" type="line"/>
      <point x="504.0" y="1202.0" type="line"/>
      <point x="796.0" y="910.0" type="line"/>
      <point x="78.0" y="910.0" type="line"/>
      <point x="78.0" y="610.0" type="line"/>
      <point x="796.0" y="610.0" type="line"/>
      <point x="504.0" y="318.0" type="line"/>
    </contour>
  </outline>
</glyph>
<glyph name="downArrow" format="2">
  <advance width="1404.0"/>
  <unicode hex="2193"/>
  <outline>
    <contour>
      <point x="702.0" y="144.0" type="line"/>
      <point x="1326.0" y="768.0" type="line"/>
      <point x="1144.0" y="950.0" type="line"/>
      <point x="852.0" y="658.0" type="line"/>
      <point x="852.0" y="1376.0" type="line"/>
      <point x="552.0" y="1376.0" type="line"/>
      <point x="552.0" y="658.0" type="line"/>
      <point x="260.0" y="950.0" type="line"/>
      <point x="78.0" y="768.0" type="line"/>
    </contour>
  </outline>
</glyph>
<glyph name="partialdiff" format="2">
  <advance width="1162.0"/>
  <unicode hex="2202"/>
  <outline>
    <contour>
      <point x="540.0" y="-20.0" type="curve" smooth="yes"/>
      <point x="866.0" y="-20.0"/>
      <point x="1090.0" y="178.0"/>
      <point x="1090.0" y="702.0" type="curve" smooth="yes"/>
      <point x="1090.0" y="1256.0"/>
      <point x="812.0" y="1500.0"/>
      <point x="378.0" y="1500.0" type="curve" smooth="yes"/>
      <point x="280.0" y="1500.0"/>
      <point x="180.0" y="1490.0"/>
      <point x="110.0" y="1464.0" type="curve"/>
      <point x="110.0" y="1152.0" type="line"/>
      <point x="194.0" y="1176.0"/>
      <point x="266.0" y="1186.0"/>
      <point x="366.0" y="1186.0" type="curve" smooth="yes"/>
      <point x="594.0" y="1186.0"/>
      <point x="706.0" y="1072.0"/>
      <point x="706.0" y="794.0" type="curve" smooth="yes"/>
      <point x="706.0" y="628.0" type="line" smooth="yes"/>
      <point x="706.0" y="340.0"/>
      <point x="640.0" y="276.0"/>
      <point x="536.0" y="276.0" type="curve" smooth="yes"/>
      <point x="456.0" y="276.0"/>
      <point x="390.0" y="328.0"/>
      <point x="390.0" y="490.0" type="curve" smooth="yes"/>
      <point x="390.0" y="648.0"/>
      <point x="456.0" y="700.0"/>
      <point x="550.0" y="700.0" type="curve" smooth="yes"/>
      <point x="632.0" y="700.0"/>
      <point x="716.0" y="666.0"/>
      <point x="772.0" y="580.0" type="curve"/>
      <point x="772.0" y="860.0" type="line"/>
      <point x="710.0" y="946.0"/>
      <point x="592.0" y="992.0"/>
      <point x="470.0" y="992.0" type="curve" smooth="yes"/>
      <point x="242.0" y="992.0"/>
      <point x="36.0" y="858.0"/>
      <point x="36.0" y="504.0" type="curve" smooth="yes"/>
      <point x="36.0" y="158.0"/>
      <point x="242.0" y="-20.0"/>
    </contour>
  </outline>
</glyph>
<glyph name="product" format="2">
  <advance width="1306.0"/>
  <unicode hex="220F"/>
  <outline>
    <contour>
      <point x="88.0" y="-440.0" type="line"/>
      <point x="480.0" y="-440.0" type="line"/>
      <point x="480.0" y="1122.0" type="line"/>
      <point x="826.0" y="1122.0" type="line"/>
      <point x="826.0" y="-440.0" type="line"/>
      <point x="1218.0" y="-440.0" type="line"/>
      <point x="1218.0" y="1480.0" type="line"/>
      <point x="88.0" y="1480.0" type="line"/>
    </contour>
  </outline>
</glyph>
<glyph name="minus" format="2">
  <advance width="1036.0"/>
  <unicode hex="2212"/>
  <outline>
    <contour>
      <point x="78.0" y="610.0" type="line"/>
      <point x="958.0" y="610.0" type="line"/>
      <point x="958.0" y="910.0" type="line"/>
      <point x="78.0" y="910.0" type="line"/>
    </contour>
  </outline>
</glyph>
<glyph name="integral" format="2">
  <advance width="740.0"/>
  <unicode hex="222B"/>
  <outline>
    <contour>
      <point x="146.0" y="-460.0" type="curve" smooth="yes"/>
      <point x="466.0" y="-460.0"/>
      <point x="676.0" y="-276.0"/>
      <point x="620.0" y="114.0" type="curve" smooth="yes"/>
      <point x="496.0" y="972.0" type="line" smooth="yes"/>
      <point x="472.0" y="1138.0"/>
      <point x="538.0" y="1190.0"/>
      <point x="656.0" y="1190.0" type="curve" smooth="yes"/>
      <point x="682.0" y="1190.0"/>
      <point x="708.0" y="1188.0"/>
      <point x="740.0" y="1184.0" type="curve"/>
      <point x="740.0" y="1488.0" type="line"/>
      <point x="696.0" y="1496.0"/>
      <point x="642.0" y="1500.0"/>
      <point x="594.0" y="1500.0" type="curve" smooth="yes"/>
      <point x="274.0" y="1500.0"/>
      <point x="64.0" y="1316.0"/>
      <point x="120.0" y="926.0" type="curve" smooth="yes"/>
      <point x="244.0" y="68.0" type="line" smooth="yes"/>
      <point x="268.0" y="-98.0"/>
      <point x="202.0" y="-150.0"/>
      <point x="84.0" y="-150.0" type="curve" smooth="yes"/>
      <point x="58.0" y="-150.0"/>
      <point x="32.0" y="-148.0"/>
      <point x="0.0" y="-144.0" type="curve"/>
      <point x="0.0" y="-448.0" type="line"/>
      <point x="44.0" y="-456.0"/>
      <point x="98.0" y="-460.0"/>
    </contour>
  </outline>
</glyph>
<glyph name="approxequal" format="2">
  <advance width="1036.0"/>
  <unicode hex="2248"/>
  <outline>
    <contour>
      <point x="714.0" y="780.0" type="curve" smooth="yes"/>
      <point x="818.0" y="780.0"/>
      <point x="892.0" y="810.0"/>
      <point x="958.0" y="882.0" type="curve"/>
      <point x="958.0" y="1190.0" type="line"/>
      <point x="882.0" y="1114.0"/>
      <point x="812.0" y="1080.0"/>
      <point x="718.0" y="1080.0" type="curve" smooth="yes"/>
      <point x="592.0" y="1080.0"/>
      <point x="478.0" y="1198.0"/>
      <point x="322.0" y="1198.0" type="curve" smooth="yes"/>
      <point x="218.0" y="1198.0"/>
      <point x="144.0" y="1168.0"/>
      <point x="78.0" y="1096.0" type="curve"/>
      <point x="78.0" y="788.0" type="line"/>
      <point x="154.0" y="864.0"/>
      <point x="224.0" y="898.0"/>
      <point x="318.0" y="898.0" type="curve" smooth="yes"/>
      <point x="444.0" y="898.0"/>
      <point x="558.0" y="780.0"/>
    </contour>
    <contour>
      <point x="714.0" y="322.0" type="curve" smooth="yes"/>
      <point x="818.0" y="322.0"/>
      <point x="892.0" y="352.0"/>
      <point x="958.0" y="424.0" type="curve"/>
      <point x="958.0" y="732.0" type="line"/>
      <point x="882.0" y="656.0"/>
      <point x="812.0" y="622.0"/>
      <point x="718.0" y="622.0" type="curve" smooth="yes"/>
      <point x="592.0" y="622.0"/>
      <point x="478.0" y="740.0"/>
      <point x="322.0" y="740.0" type="curve" smooth="yes"/>
      <point x="218.0" y="740.0"/>
      <point x="144.0" y="710.0"/>
      <point x="78.0" y="638.0" type="curve"/>
      <point x="78.0" y="330.0" type="line"/>
      <point x="154.0" y="406.0"/>
      <point x="224.0" y="440.0"/>
      <point x="318.0" y="440.0" type="curve" smooth="yes"/>
      <point x="444.0" y="440.0"/>
      <point x="558.0" y="322.0"/>
    </contour>
  </outline>
</glyph>
<glyph name="Delta.tf" format="2">
  <advance width="1200.0"/>
  <outline>
    <contour>
      <point x="10.0" y="0.0" type="line"/>
      <point x="1190.0" y="0.0" type="line"/>
      <point x="864.0" y="1480.0" type="line"/>
      <point x="336.0" y="1480.0" type="line"/>
    </contour>
    <contour>
      <point x="414.0" y="164.0" type="line"/>
      <point x="642.0" y="1306.0" type="line"/>
      <point x="550.0" y="1306.0" type="line"/>
      <point x="784.0" y="164.0" type="line"/>
      <point x="842.0" y="330.0" type="line"/>
      <point x="354.0" y="330.0" type="line"/>
    </contour>
  </outline>
</glyph>
<glyph name="Omega.tf" format="2">
  <advance width="1200.0"/>
  <outline>
    <contour>
      <point x="54.0" y="0.0" type="line"/>
      <point x="550.0" y="0.0" type="line"/>
      <point x="550.0" y="264.0" type="line"/>
      <point x="462.0" y="448.0"/>
      <point x="446.0" y="584.0"/>
      <point x="446.0" y="804.0" type="curve" smooth="yes"/>
      <point x="446.0" y="1082.0"/>
      <point x="492.0" y="1176.0"/>
      <point x="598.0" y="1176.0" type="curve" smooth="yes"/>
      <point x="710.0" y="1176.0"/>
      <point x="754.0" y="1082.0"/>
      <point x="754.0" y="804.0" type="curve" smooth="yes"/>
      <point x="754.0" y="584.0"/>
      <point x="738.0" y="448.0"/>
      <point x="650.0" y="264.0" type="curve"/>
      <point x="650.0" y="0.0" type="line"/>
      <point x="1146.0" y="0.0" type="line"/>
      <point x="1146.0" y="322.0" type="line"/>
      <point x="814.0" y="322.0" type="line"/>
      <point x="742.0" y="136.0" type="line"/>
      <point x="984.0" y="238.0"/>
      <point x="1136.0" y="506.0"/>
      <point x="1136.0" y="824.0" type="curve" smooth="yes"/>
      <point x="1136.0" y="1270.0"/>
      <point x="948.0" y="1500.0"/>
      <point x="598.0" y="1500.0" type="curve" smooth="yes"/>
      <point x="252.0" y="1500.0"/>
      <point x="64.0" y="1270.0"/>
      <point x="64.0" y="824.0" type="curve" smooth="yes"/>
      <point x="64.0" y="506.0"/>
      <point x="216.0" y="238.0"/>
      <point x="458.0" y="136.0" type="curve"/>
      <point x="386.0" y="322.0" type="line"/>
      <point x="54.0" y="322.0" type="line"/>
    </contour>
  </outline>
</glyph>
<glyph name="acutecomb_dotaccentcomb.case" format="2">
  <anchor x="600.0" y="1520.0" name="_top"/>
  <anchor x="600.0" y="1920.0" name="top"/>
  <outline>
    <contour>
      <point x="300.0" y="1862.0" type="curve" smooth="yes"/>
      <point x="416.0" y="1862.0"/>
      <point x="488.0" y="1908.0"/>
      <point x="488.0" y="2006.0" type="curve" smooth="yes"/>
      <point x="488.0" y="2104.0"/>
      <point x="416.0" y="2150.0"/>
      <point x="300.0" y="2150.0" type="curve" smooth="yes"/>
      <point x="184.0" y="2150.0"/>
      <point x="112.0" y="2104.0"/>
      <point x="112.0" y="2006.0" type="curve" smooth="yes"/>
      <point x="112.0" y="1908.0"/>
      <point x="184.0" y="1862.0"/>
    </contour>
    <contour>
      <point x="428.0" y="1586.0" type="line"/>
      <point x="772.0" y="1586.0" type="line"/>
      <point x="990.0" y="1902.0" type="line"/>
      <point x="590.0" y="1902.0" type="line"/>
    </contour>
  </outline>
</glyph>
